<?xml version="1.0" encoding="UTF-8"?>
<svg version="1.1" xmlns="http://www.w3.org/2000/svg" width="1200" height="1200">
<path d="M0 0 C1.12019531 0.35449219 2.24039062 0.70898438 3.39453125 1.07421875 C29.94769083 9.72296216 52.90347299 27.07386732 73 46 C73.66 46.61746094 74.32 47.23492187 75 47.87109375 C80.11804275 52.81142668 84.80205293 58.25994993 89 64 C89 64.66 89 65.32 89 66 C89.66 66 90.32 66 91 66 C92.69372874 68.30227199 94.26756424 70.60056938 95.8125 73 C96.26028809 73.68537842 96.70807617 74.37075684 97.16943359 75.0769043 C98.45318795 77.04689984 99.72718866 79.02292417 101 81 C101.58394531 81.89332031 102.16789062 82.78664063 102.76953125 83.70703125 C106 88.72496398 106 88.72496398 106 91 C106.95777344 91.02578125 107.91554688 91.0515625 108.90234375 91.078125 C133.65081018 92.01813916 160.1991393 100.37777981 179 117 C179.71285156 117.62003906 180.42570313 118.24007812 181.16015625 118.87890625 C181.78792969 119.43449219 182.41570313 119.99007812 183.0625 120.5625 C185.33306058 122.56721759 187.59796136 124.46092855 190 126.3125 C190.66 126.869375 191.32 127.42625 192 128 C192 128.66 192 129.32 192 130 C192.66 130 193.32 130 194 130 C208.19658177 145.33883548 217.46618496 163.3754835 224 183 C224.51046875 184.47919922 224.51046875 184.47919922 225.03125 185.98828125 C233.05159818 211.77370064 231.52943215 245.62941362 220.55078125 270.25 C217.90273841 274.9457737 214.07730225 277.9371942 209.3125 280.375 C207 281 207 281 203 281 C202.94392578 281.85271484 202.94392578 281.85271484 202.88671875 282.72265625 C202.34039687 289.13926024 201.25218521 294.12652231 197.1875 299.3125 C191.28263936 303.86767821 184.49087809 303.27375876 177.39501953 303.22705078 C176.21474623 303.22729185 175.03447292 303.22753292 173.81843376 303.2277813 C170.00648273 303.22629121 166.19472845 303.21107212 162.3828125 303.1953125 C160.02596124 303.19237113 157.66910868 303.19033127 155.31225586 303.18920898 C146.58315062 303.17873259 137.85407337 303.15081012 129.125 303.125 C99.858125 303.063125 99.858125 303.063125 70 303 C70 367.35 70 431.7 70 498 C-16.46 498 -102.92 498 -192 498 C-192 433.65 -192 369.3 -192 303 C-246.31559632 303.11876788 -246.31559632 303.11876788 -300.63110352 303.27026367 C-311.13659668 303.28381348 -311.13659668 303.28381348 -316.05479431 303.28633118 C-319.48954584 303.28912595 -322.92415824 303.30036763 -326.35887146 303.31672668 C-330.74239524 303.33732771 -335.12571716 303.34346908 -339.50928485 303.33921683 C-341.11658447 303.3401058 -342.72389125 303.34604075 -344.33114922 303.35764539 C-346.50642504 303.37261947 -348.68092183 303.36895197 -350.85621643 303.36076355 C-352.07390496 303.36352893 -353.29159349 303.36629431 -354.54618168 303.36914349 C-359.52331767 302.83718808 -363.44824678 301.37933619 -367.25 298 C-372.63546217 288.76777913 -372.50118395 278.50036275 -372.44604492 268.13110352 C-372.4375499 265.70176892 -372.46635972 263.27480611 -372.49804688 260.84570312 C-372.54163032 251.0301868 -371.73960012 242.21961584 -368 233 C-367.01 232.01 -367.01 232.01 -366 231 C-365.62660401 228.56996262 -365.3494219 226.19389471 -365.125 223.75 C-363.40029754 208.20849513 -358.53721728 190.91639325 -348.3359375 178.6640625 C-346.96409534 176.95527665 -345.96511228 175.24441108 -344.9375 173.3125 C-342.93413941 169.88739964 -340.89582554 167.6937912 -338 165 C-336.91619697 163.87545249 -335.83290071 162.75041644 -334.75 161.625 C-317.20581679 144.23108817 -293.40151425 134.33049059 -268.71630859 133.96630859 C-262.07612898 134.10707374 -255.56079272 135.03664309 -249 136 C-246.69636294 131.12692159 -244.70824517 126.25061467 -242.98022461 121.15039062 C-235.38334861 98.77884807 -223.94069604 79.24533598 -209 61 C-207.70312015 59.31650314 -206.41072261 57.62953322 -205.125 55.9375 C-202.619477 52.71014776 -199.97127602 49.81489307 -197 47 C-196.27167969 46.2575 -195.54335938 45.515 -194.79296875 44.75 C-191.61155134 41.61752748 -188.31253171 38.67049404 -184.9375 35.75 C-184.32583984 35.20859375 -183.71417969 34.6671875 -183.08398438 34.109375 C-182.48779297 33.59375 -181.89160156 33.078125 -181.27734375 32.546875 C-180.47671509 31.84836426 -180.47671509 31.84836426 -179.65991211 31.13574219 C-177.79592365 29.86036723 -176.20501614 29.4186322 -174 29 C-174 28.34 -174 27.68 -174 27 C-172.41796875 25.70654297 -172.41796875 25.70654297 -170.1875 24.2421875 C-169.36765625 23.70295654 -168.5478125 23.16372559 -167.703125 22.6081543 C-166.81109375 22.03621338 -165.9190625 21.46427246 -165 20.875 C-164.08734375 20.28823486 -163.1746875 19.70146973 -162.234375 19.09692383 C-154.39886503 14.13064957 -146.47726393 9.75936246 -138 6 C-137.24283691 5.66129883 -136.48567383 5.32259766 -135.70556641 4.97363281 C-123.09568296 -0.58239705 -110.49010686 -4.27877438 -97 -7 C-95.88334961 -7.24556641 -95.88334961 -7.24556641 -94.74414062 -7.49609375 C-64.08026792 -14.1873987 -29.31211241 -10.72394356 0 0 Z M-145.22216797 27.83276367 C-146.96905779 28.97968488 -148.74714528 30.00636341 -150.57421875 31.01953125 C-154.13288796 33.07682348 -157.47440394 35.29579571 -160.8125 37.6875 C-161.41707031 38.11957764 -162.02164063 38.55165527 -162.64453125 38.99682617 C-167.33123087 42.40076519 -171.65765826 46.09338177 -175.89453125 50.046875 C-177.61257461 51.64060724 -179.34865335 53.11458926 -181.1875 54.5625 C-184.23784672 57.20613382 -186.78370366 60.05706594 -189.38671875 63.1328125 C-190.85919783 64.83703768 -192.38636694 66.43024216 -194 68 C-193.67 68.66 -193.34 69.32 -193 70 C-192.17757812 69.35933594 -191.35515625 68.71867187 -190.5078125 68.05859375 C-187.02117405 65.35131536 -183.51512647 62.67015393 -180 60 C-178.71416016 59.02160156 -178.71416016 59.02160156 -177.40234375 58.0234375 C-171.71219679 53.86269565 -165.6915029 50.65755868 -159.35546875 47.6171875 C-156.63276567 46.30496506 -153.97722538 44.92304706 -151.3125 43.5 C-121.10870803 28.39810402 -85.32337673 23.60017794 -52.07910156 28.69677734 C-49.91815059 29.01193717 -47.75522301 29.26857469 -45.5859375 29.51953125 C-1.16117966 35.04962325 40.73140288 62.72091111 68.09765625 97.4765625 C73.74335859 104.96552289 78.79194929 112.75336705 83.71264648 120.73120117 C85.62009113 124.04378334 85.62009113 124.04378334 88 127 C89.45722981 127.22625806 90.92321646 127.39660063 92.390625 127.54296875 C118.1171638 130.34083887 140.6830469 136.92997561 161 153.4375 C162.83967603 155.20521468 162.83967603 155.20521468 165 155 C165.33 155.99 165.66 156.98 166 158 C167.46490111 159.3679353 167.46490111 159.3679353 169.3125 160.75 C186.01754045 175.12826696 196.63697157 195.8872251 202 217 C202.24081299 217.86834473 202.48162598 218.73668945 202.72973633 219.63134766 C204.82988993 227.45677317 205.88744248 235.196962 206.6875 243.25 C206.81705078 244.48363281 206.94660156 245.71726562 207.08007812 246.98828125 C207.39436679 249.99148405 207.70087215 252.99525595 208 256 C208.33 256 208.66 256 209 256 C209.4864712 253.8766603 209.96374872 251.75121387 210.4375 249.625 C210.70433594 248.44164062 210.97117187 247.25828125 211.24609375 246.0390625 C215.79683123 223.48977503 214.38268098 196.69837692 204 176 C203.37100804 174.50166956 202.74585294 173.00172122 202.125 171.5 C198.20109542 162.86120612 193.24744308 155.03975566 187.4375 147.5625 C186.99075928 146.98346924 186.54401855 146.40443848 186.08374023 145.80786133 C183.04970127 141.99966896 179.80390704 139.03677697 176 136 C175.21625 135.195625 174.4325 134.39125 173.625 133.5625 C161.27013076 121.50179431 145.39039022 114.63371816 129 110 C128.34330322 109.80639893 127.68660645 109.61279785 127.01000977 109.41333008 C121.2192965 107.8119176 115.60280425 107.62745476 109.62304688 107.52148438 C104.49592646 107.34166236 100.54865708 106.60961039 96 104 C93.91796875 101.390625 93.91796875 101.390625 92.1875 98.25 C91.51843897 97.08301758 90.84643225 95.9177203 90.171875 94.75390625 C89.64883789 93.83762451 89.64883789 93.83762451 89.11523438 92.90283203 C83.89536043 83.99659351 78.05671791 75.54051181 71 68 C69.78798577 66.60736162 68.57968215 65.21148572 67.375 63.8125 C64.69646677 60.74960325 61.91875348 57.837677 59 55 C58.443125 54.401875 57.88625 53.80375 57.3125 53.1875 C56.04781729 51.77636223 56.04781729 51.77636223 54 52 C53.67 51.01 53.34 50.02 53 49 C51.15150492 47.27479999 51.15150492 47.27479999 48.875 45.625 C48.06675781 45.01785156 47.25851562 44.41070312 46.42578125 43.78515625 C45.62527344 43.19605469 44.82476563 42.60695313 44 42 C42.96939453 41.22462891 42.96939453 41.22462891 41.91796875 40.43359375 C38.78993797 37.86379517 38.78993797 37.86379517 35 37 C35 36.34 35 35.68 35 35 C-18.857151 4.15454079 -89.69985374 -8.86634348 -145.22216797 27.83276367 Z M-278.3984375 151.015625 C-286.2984462 151.43938026 -293.77427772 155.01865933 -301 158 C-301.78761719 158.3196875 -302.57523438 158.639375 -303.38671875 158.96875 C-316.30506649 164.81856784 -326.64315532 175.11586628 -334 187 C-330.44472702 185.63258731 -327.22100915 184.04961267 -323.94140625 182.09765625 C-305.87932487 171.88549354 -283.14965245 168.22175334 -262.94628906 173.58007812 C-260.68017421 174.14060147 -260.68017421 174.14060147 -257 174 C-255.99009308 171.08666921 -254.99384048 168.16884681 -254 165.25 C-253.71382813 164.425 -253.42765625 163.6 -253.1328125 162.75 C-252.86210937 161.95078125 -252.59140625 161.1515625 -252.3125 160.328125 C-252.06113281 159.5949707 -251.80976563 158.86181641 -251.55078125 158.10644531 C-250.83135359 155.71789426 -250.83135359 155.71789426 -251 152 C-260.14991301 150.7943644 -269.19136828 150.95564409 -278.3984375 151.015625 Z M-183 158 C-183 164.6 -183 171.2 -183 178 C-179.84078728 178.00213753 -179.84078728 178.00213753 -176.61775208 178.00431824 C-156.79655499 178.0200997 -136.97555484 178.06337941 -117.15446949 178.13209057 C-106.96355098 178.16675471 -96.77276793 178.19209796 -86.58178711 178.19555664 C-77.70008393 178.19859455 -68.81862191 178.21906172 -59.9370119 178.26052457 C-55.23349698 178.281872 -50.53032507 178.29444626 -45.82676125 178.28615379 C-41.40002722 178.27862464 -36.97398884 178.29438975 -32.54738235 178.32806015 C-30.92243309 178.33630719 -29.29741483 178.33602712 -27.672472 178.32659721 C-25.4532152 178.31499294 -23.23624507 178.33406121 -21.01716614 178.36076355 C-19.77551099 178.36352893 -18.53385584 178.36629431 -17.25457478 178.36914349 C-13.10406192 179.17366581 -11.68646494 180.81681266 -9 184 C-7.70420353 185.36984198 -6.38007251 186.7151049 -5 188 C-4.34 188 -3.68 188 -3 188 C-2.62101562 188.88751953 -2.62101562 188.88751953 -2.234375 189.79296875 C-0.85451102 192.26013061 0.56361107 193.53711829 2.75 195.3125 C6.08107525 198.12366151 8.92417217 201.04740885 11.67578125 204.421875 C13.04770908 206.05685684 14.40467714 207.58003434 16 209 C16.66 209 17.32 209 18 209 C18.226875 209.5775 18.45375 210.155 18.6875 210.75 C20.3408693 213.58434736 22.42963944 214.96762189 25 217 C26.68732277 218.98260426 28.35366057 220.9832342 30 223 C32.83431254 225.98751862 35.80942371 228.70483602 38.9375 231.375 C42.15995646 234.16133453 44.92043297 237.09424605 47.6328125 240.37109375 C50.39392371 243.66076053 53.39313334 246.51726516 56.75 249.1875 C59 251 59 251 60 253 C60.66 253 61.32 253 62 253 C62.02709444 250.91673869 62.04643873 248.83337559 62.0625 246.75 C62.07990234 245.00976562 62.07990234 245.00976562 62.09765625 243.234375 C61.97168113 239.06207895 61.79862612 236.92743678 59.0625 233.75 C57.19664456 231.78434085 57.19664456 231.78434085 55 232 C54.67 231.01 54.34 230.02 54 229 C52.01739574 227.31267723 50.0167658 225.64633943 48 224 C47.34 223.01 46.68 222.02 46 221 C45.34 221 44.68 221 44 221 C43.67 220.01 43.34 219.02 43 218 C41.12491838 215.7914234 41.12491838 215.7914234 39 214 C38.34 214 37.68 214 37 214 C36.01 212.02 36.01 212.02 35 210 C34.34 210 33.68 210 33 210 C32.67 209.01 32.34 208.02 32 207 C30.01739574 205.31267723 28.0167658 203.64633943 26 202 C25.34 201.01 24.68 200.02 24 199 C23.34 199 22.68 199 22 199 C21.01 197.02 21.01 197.02 20 195 C19.34 195 18.68 195 18 195 C17.67 194.01 17.34 193.02 17 192 C15.12491838 189.7914234 15.12491838 189.7914234 13 188 C12.34 188 11.68 188 11 188 C10.01 186.02 10.01 186.02 9 184 C8.34 184 7.68 184 7 184 C6.67 183.01 6.34 182.02 6 181 C4.12491838 178.7914234 4.12491838 178.7914234 2 177 C1.34 177 0.68 177 0 177 C-0.99 175.02 -0.99 175.02 -2 173 C-2.66 173 -3.32 173 -4 173 C-4.33 172.01 -4.66 171.02 -5 170 C-6.87508162 167.7914234 -6.87508162 167.7914234 -9 166 C-9.66 166 -10.32 166 -11 166 C-11.99 164.02 -11.99 164.02 -13 162 C-13.66 162 -14.32 162 -15 162 C-15.33 161.01 -15.66 160.02 -16 159 C-18.86473275 157.56763362 -21.301303 157.8773151 -24.50454712 157.87974548 C-25.5177896 157.87846385 -25.5177896 157.87846385 -26.55150163 157.87715632 C-28.82553939 157.87550307 -31.09950414 157.88102034 -33.37353516 157.88647461 C-34.99942523 157.88675654 -36.62531544 157.88659863 -38.25120544 157.8860321 C-42.67451074 157.88574436 -47.0977891 157.89163737 -51.52108812 157.89860606 C-56.14022721 157.90484344 -60.75936687 157.9054437 -65.37850952 157.90663147 C-74.12973441 157.90974365 -82.88094686 157.91795552 -91.63216627 157.92798096 C-101.59332735 157.93914561 -111.55448902 157.94465344 -121.5156548 157.94967639 C-142.01044368 157.96013822 -162.50522062 157.97793613 -183 158 Z M-176 195 C-176 289.71 -176 384.42 -176 482 C-100.1 482 -24.2 482 54 482 C54 415.67 54 349.34 54 281 C25.29 281 -3.42 281 -33 281 C-33 252.62 -33 224.24 -33 195 C-80.19 195 -127.38 195 -176 195 Z M-16 200 C-16 221.45 -16 242.9 -16 265 C5.45 265 26.9 265 49 265 C45.09654304 260.44596688 41.24136216 256.09547255 37.01049805 251.88110352 C36.44552109 251.31437424 35.88054413 250.74764496 35.29844666 250.16374207 C33.45535501 248.31629627 31.60868663 246.47247619 29.76171875 244.62890625 C28.47216939 243.33868257 27.18276845 242.04831053 25.89350891 240.75779724 C23.20463396 238.06745455 20.51397467 235.3789129 17.82202148 232.69165039 C14.36389367 229.23925388 10.91032088 225.78234089 7.45804119 222.32409763 C4.80311539 219.66557058 2.14582779 217.00941459 -0.51219749 214.35398674 C-1.78764529 213.07920764 -3.06234622 211.80368084 -4.33629799 210.52740669 C-6.10762205 208.75355956 -7.8820909 206.98292135 -9.6574707 205.21313477 C-10.45145264 204.41611649 -10.45145264 204.41611649 -11.26147461 203.60299683 C-13.28612925 201.1077535 -13.28612925 201.1077535 -16 200 Z " fill="#CFEDEB" transform="translate(672,356)"/>
<path d="M0 0 C43.9003125 -0.1546875 43.9003125 -0.1546875 88.6875 -0.3125 C102.55849731 -0.38078003 102.55849731 -0.38078003 116.7097168 -0.45043945 C127.98596191 -0.47302246 127.98596191 -0.47302246 133.26179504 -0.47721863 C136.95339424 -0.48188444 140.64463537 -0.50065086 144.33613586 -0.52787781 C149.04288299 -0.56213377 153.74910827 -0.5724635 158.4559685 -0.56536138 C160.18460719 -0.56684678 161.91326382 -0.57678599 163.64179552 -0.59607565 C165.97557898 -0.62091272 168.30732988 -0.61496763 170.64115906 -0.60127258 C171.9491833 -0.60588155 173.25720755 -0.61049051 174.60486889 -0.61523914 C178.86534393 0.15681087 180.24164221 1.75363281 183 5 C184.175625 5.8971875 184.175625 5.8971875 185.375 6.8125 C188.37664912 9.31387427 190.77417872 12.09122994 193.3125 15.05078125 C197.06244358 19.3823133 201.2009379 23.07709054 205.64453125 26.66796875 C206.09183594 27.10753906 206.53914062 27.54710937 207 28 C207 28.66 207 29.32 207 30 C207.66 30 208.32 30 209 30 C211.625 32.375 211.625 32.375 214 35 C214 35.66 214 36.32 214 37 C214.99 37.33 215.98 37.66 217 38 C218.36639342 39.6396721 219.6949419 41.31110128 221 43 C224.01271851 46.18487385 227.21791985 49.09892418 230.5 52 C237.19613821 57.92479675 237.19613821 57.92479675 240 61 C240 61.66 240 62.32 240 63 C240.99 63.33 241.98 63.66 243 64 C244.34919532 65.65385233 245.68133728 67.321702 247 69 C247.680625 69.495 248.36125 69.99 249.0625 70.5 C251 72 251 72 252.375 74.3125 C253.94317863 77.23260624 253.94317863 77.23260624 257.05646706 79.56527901 C260.35880737 82.83803004 260.70908309 85.37721118 260.77448463 89.925951 C260.75700865 90.82258902 260.73953266 91.71922703 260.7215271 92.64303589 C260.72666321 93.60547714 260.73179932 94.5679184 260.73709106 95.55952454 C260.74701487 98.79150254 260.71390036 102.02161079 260.68115234 105.25341797 C260.67931421 107.60704044 260.68011549 109.96066621 260.68334389 112.31428719 C260.68469881 118.61890953 260.64991757 124.92284901 260.60768127 131.22731018 C260.57351836 137.14252889 260.57190299 143.05758128 260.56762695 148.97290039 C260.53613951 166.27369076 260.45237258 183.57435399 260.375 200.875 C260.25125 239.52625 260.1275 278.1775 260 318 C174.2 318 88.4 318 0 318 C0 213.06 0 108.12 0 0 Z M15 16 C15 110.71 15 205.42 15 303 C90.9 303 166.8 303 245 303 C245 236.67 245 170.34 245 102 C216.29 102 187.58 102 158 102 C158 73.62 158 45.24 158 16 C110.81 16 63.62 16 15 16 Z M175 21 C175 42.45 175 63.9 175 86 C196.45 86 217.9 86 240 86 C236.09654304 81.44596688 232.24136216 77.09547255 228.01049805 72.88110352 C227.44552109 72.31437424 226.88054413 71.74764496 226.29844666 71.16374207 C224.45535501 69.31629627 222.60868663 67.47247619 220.76171875 65.62890625 C219.47216939 64.33868257 218.18276845 63.04831053 216.89350891 61.75779724 C214.20463396 59.06745455 211.51397467 56.3789129 208.82202148 53.69165039 C205.36389367 50.23925388 201.91032088 46.78234089 198.45804119 43.32409763 C195.80311539 40.66557058 193.14582779 38.00941459 190.48780251 35.35398674 C189.21235471 34.07920764 187.93765378 32.80368084 186.66370201 31.52740669 C184.89237795 29.75355956 183.1179091 27.98292135 181.3425293 26.21313477 C180.54854736 25.41611649 180.54854736 25.41611649 179.73852539 24.60299683 C177.71387075 22.1077535 177.71387075 22.1077535 175 21 Z " fill="#2E4E59" transform="translate(481,535)"/>
<path d="M0 0 C1.12019531 0.35449219 2.24039062 0.70898438 3.39453125 1.07421875 C29.94769083 9.72296216 52.90347299 27.07386732 73 46 C73.66 46.61746094 74.32 47.23492187 75 47.87109375 C80.11804275 52.81142668 84.80205293 58.25994993 89 64 C89 64.66 89 65.32 89 66 C89.66 66 90.32 66 91 66 C92.69372874 68.30227199 94.26756424 70.60056938 95.8125 73 C96.26028809 73.68537842 96.70807617 74.37075684 97.16943359 75.0769043 C98.45318795 77.04689984 99.72718866 79.02292417 101 81 C101.58394531 81.89332031 102.16789062 82.78664063 102.76953125 83.70703125 C106 88.72496398 106 88.72496398 106 91 C106.95777344 91.02578125 107.91554688 91.0515625 108.90234375 91.078125 C133.65081018 92.01813916 160.1991393 100.37777981 179 117 C179.71285156 117.62003906 180.42570313 118.24007812 181.16015625 118.87890625 C181.78792969 119.43449219 182.41570313 119.99007812 183.0625 120.5625 C185.33306058 122.56721759 187.59796136 124.46092855 190 126.3125 C190.66 126.869375 191.32 127.42625 192 128 C192 128.66 192 129.32 192 130 C192.66 130 193.32 130 194 130 C208.19658177 145.33883548 217.46618496 163.3754835 224 183 C224.51046875 184.47919922 224.51046875 184.47919922 225.03125 185.98828125 C233.06313631 211.81079574 231.48711825 245.5766433 220.5625 270.24609375 C219.05927554 272.89552686 217.79150302 274.42624704 215.4375 276.3125 C214.83808594 276.80363281 214.23867188 277.29476563 213.62109375 277.80078125 C210.7760333 279.90544043 208.9940206 280.12415439 205.50753784 280.12025452 C204.56240326 280.12162918 203.61726868 280.12300385 202.64349365 280.12442017 C201.60340149 280.12082489 200.56330933 280.11722961 199.49169922 280.11352539 C198.39900726 280.11367142 197.30631531 280.11381744 196.18051147 280.1139679 C192.55521688 280.11326914 188.92997316 280.10547842 185.3046875 280.09765625 C182.79647856 280.09579194 180.28826925 280.0943681 177.78005981 280.09336853 C171.84440201 280.08993561 165.90876063 280.08204764 159.97311127 280.07201904 C152.55369203 280.05975505 145.13427053 280.05437629 137.71484375 280.04882812 C124.47655288 280.0380926 111.23827826 280.02101738 98 280 C98 275.38 98 270.76 98 266 C99.32353485 265.98969254 100.6470697 265.97938507 102.01071167 265.96876526 C114.45999534 265.8711747 126.90922742 265.76845447 139.35842705 265.66066074 C145.7592786 265.60540403 152.16013469 265.55197965 158.56103516 265.50268555 C164.73371595 265.45508253 170.90633977 265.40274123 177.07895279 265.34705925 C179.43854485 265.32661726 181.79815256 265.30790728 184.15777206 265.29092598 C187.45273261 265.26692278 190.74758469 265.23686265 194.04248047 265.20532227 C195.0264682 265.1995668 196.01045593 265.19381134 197.02426147 265.18788147 C197.91891113 265.17809265 198.81356079 265.16830383 199.73532104 265.15821838 C200.51515791 265.15176583 201.29499477 265.14531328 202.09846306 265.1386652 C204.08747395 265.11500383 204.08747395 265.11500383 206 264 C206.85022534 261.27023403 206.85022534 261.27023403 207.5 258 C207.75523437 256.81792969 208.01046875 255.63585937 208.2734375 254.41796875 C208.63308594 252.72607422 208.63308594 252.72607422 209 251 C209.37426462 249.43732369 209.74915139 247.87479609 210.125 246.3125 C215.02849036 223.85073167 213.3489653 196.63116309 203 176 C202.37100804 174.50166956 201.74585294 173.00172122 201.125 171.5 C197.27810074 163.01239687 192.39664023 155.26493983 186.75 147.875 C186.3257373 147.31844727 185.90147461 146.76189453 185.46435547 146.18847656 C183.43876245 143.60079958 181.76264977 141.84176651 179 140 C179 139.34 179 138.68 179 138 C177.68 137.34 176.36 136.68 175 136 C175 135.34 175 134.68 175 134 C174.40703125 133.72285156 173.8140625 133.44570313 173.203125 133.16015625 C171.13449742 132.07082577 169.5508724 130.91438367 167.75 129.4375 C155.97595233 120.55265591 143.1240729 114.99300884 129 111 C128.34330322 110.80639893 127.68660645 110.61279785 127.01000977 110.41333008 C121.2192965 108.8119176 115.60280425 108.62745476 109.62304688 108.52148438 C103.83013122 108.31831111 98.51954726 107.65431374 94.3203125 103.23046875 C93.92585938 102.55628906 93.53140625 101.88210938 93.125 101.1875 C92.40183594 100.00414062 92.40183594 100.00414062 91.6640625 98.796875 C91.11492187 97.87390625 90.56578125 96.9509375 90 96 C88.51670384 93.63508274 87.00947148 91.28577509 85.5 88.9375 C85.1095752 88.32825684 84.71915039 87.71901367 84.31689453 87.09130859 C79.41066973 79.47293429 73.87059004 72.52451117 68.09765625 65.546875 C66.90000125 64.09273895 65.71278202 62.62949659 64.55859375 61.140625 C61.99909458 57.86311451 59.30563757 55.60009211 55.84375 53.37109375 C54 52 54 52 51.66796875 49.64453125 C48.87843525 46.87950317 45.96750015 44.58587589 42.8125 42.25 C41.76707031 41.47140625 40.72164062 40.6928125 39.64453125 39.890625 C37.18143795 38.02556211 37.18143795 38.02556211 35 37 C35 36.34 35 35.68 35 35 C33.7625 34.6596875 33.7625 34.6596875 32.5 34.3125 C29.18084533 33.067817 26.5350401 31.46150873 23.5703125 29.55078125 C-15.1807653 6.17057169 -62.23006976 1.88914578 -105.78515625 12.24609375 C-119.27212231 15.8026405 -133.53996016 21.11106471 -145.22216797 28.83276367 C-146.96905779 29.97968488 -148.74714528 31.00636341 -150.57421875 32.01953125 C-154.13299112 34.07688312 -157.47387081 36.29642176 -160.8125 38.6875 C-161.41416992 39.11595215 -162.01583984 39.5444043 -162.63574219 39.98583984 C-167.45196627 43.47446574 -171.81025794 47.26875677 -176.109375 51.3828125 C-178 53 -178 53 -180 53 C-180.33 53.99 -180.66 54.98 -181 56 C-182.37116094 57.09692876 -183.74347953 58.19243684 -185.12109375 59.28125 C-188.39127 62.27267942 -191.01673052 65.80733 -193.75390625 69.28125 C-196.0261455 72.03164742 -198.47892273 74.47892273 -201 77 C-207.37863795 84.73993264 -212.26749025 93.33382961 -216.99658203 102.13525391 C-217.8582816 103.73663136 -218.73795293 105.32831527 -219.62109375 106.91796875 C-227.4567183 121.63365389 -234.15047597 139.35428372 -236 156 C-237.155 155.71125 -238.31 155.4225 -239.5 155.125 C-251.6095623 152.46772928 -263.62556188 151.57681756 -276 152 C-276.78375 152.00644531 -277.5675 152.01289063 -278.375 152.01953125 C-286.28202097 152.42386755 -293.77021334 156.01698237 -301 159 C-301.78761719 159.3196875 -302.57523437 159.639375 -303.38671875 159.96875 C-314.48629866 164.99497486 -323.35771237 173.72839217 -331 183 C-331.71027344 183.85207031 -332.42054688 184.70414063 -333.15234375 185.58203125 C-337.16206038 190.71539207 -340.17111997 196.0139568 -342.8125 201.9375 C-343.09053467 202.55713623 -343.36856934 203.17677246 -343.6550293 203.81518555 C-348.10587505 214.35766069 -349.48731351 224.55015824 -349.375 235.9375 C-349.38660156 237.10990234 -349.39820313 238.28230469 -349.41015625 239.49023438 C-349.60677352 253.21164422 -349.60677352 253.21164422 -344 265 C-341.84355039 265.31393199 -341.84355039 265.31393199 -339.31771851 265.2784729 C-338.33051315 265.28963638 -337.3433078 265.30079987 -336.32618713 265.31230164 C-335.23934128 265.31446182 -334.15249542 265.31662201 -333.03271484 265.31884766 C-331.89125504 265.32889328 -330.74979523 265.3389389 -329.57374573 265.34928894 C-325.7861483 265.38027585 -321.99862203 265.39719918 -318.2109375 265.4140625 C-315.59062074 265.43276166 -312.97031007 265.45233412 -310.3500061 265.4727478 C-304.14877152 265.51958101 -297.94751964 265.55630303 -291.7461983 265.58942068 C-284.68697895 265.62761008 -277.62785231 265.6770285 -270.56871104 265.72740483 C-256.04587782 265.83079216 -241.52297839 265.91963205 -227 266 C-227 270.62 -227 275.24 -227 280 C-242.54240085 280.06948842 -258.084779 280.12300511 -273.62729836 280.15543652 C-280.84419676 280.17089618 -288.06099678 280.19196838 -295.27783203 280.22631836 C-301.56906017 280.25624841 -307.86021705 280.27558155 -314.15151441 280.28226548 C-317.48181412 280.28617169 -320.81186281 280.29691306 -324.14210892 280.31719017 C-327.86260349 280.33894395 -331.58267479 280.34196769 -335.30322266 280.34057617 C-336.95399811 280.35675491 -336.95399811 280.35675491 -338.63812256 280.3732605 C-345.25760942 280.34644306 -349.78438348 279.70361544 -355.01171875 275.30859375 C-366.47702801 262.50700135 -365.79192296 241.75660422 -365.15234375 225.40576172 C-364.18220012 210.08557685 -358.66693149 187.88913605 -347 177 C-346.0293951 175.25291117 -345.05889585 173.50576309 -344.08984375 171.7578125 C-342.43303163 169.08553488 -340.29551356 167.13536145 -338 165 C-336.91619697 163.87545249 -335.83290071 162.75041644 -334.75 161.625 C-317.20581679 144.23108817 -293.40151425 134.33049059 -268.71630859 133.96630859 C-262.07612898 134.10707374 -255.56079272 135.03664309 -249 136 C-246.69636294 131.12692159 -244.70824517 126.25061467 -242.98022461 121.15039062 C-235.38334861 98.77884807 -223.94069604 79.24533598 -209 61 C-207.70312015 59.31650314 -206.41072261 57.62953322 -205.125 55.9375 C-202.619477 52.71014776 -199.97127602 49.81489307 -197 47 C-196.27167969 46.2575 -195.54335938 45.515 -194.79296875 44.75 C-191.61155134 41.61752748 -188.31253171 38.67049404 -184.9375 35.75 C-184.32583984 35.20859375 -183.71417969 34.6671875 -183.08398438 34.109375 C-182.48779297 33.59375 -181.89160156 33.078125 -181.27734375 32.546875 C-180.47671509 31.84836426 -180.47671509 31.84836426 -179.65991211 31.13574219 C-177.79592365 29.86036723 -176.20501614 29.4186322 -174 29 C-174 28.34 -174 27.68 -174 27 C-172.41796875 25.70654297 -172.41796875 25.70654297 -170.1875 24.2421875 C-169.36765625 23.70295654 -168.5478125 23.16372559 -167.703125 22.6081543 C-166.81109375 22.03621338 -165.9190625 21.46427246 -165 20.875 C-164.08734375 20.28823486 -163.1746875 19.70146973 -162.234375 19.09692383 C-154.39886503 14.13064957 -146.47726393 9.75936246 -138 6 C-137.24283691 5.66129883 -136.48567383 5.32259766 -135.70556641 4.97363281 C-123.09568296 -0.58239705 -110.49010686 -4.27877438 -97 -7 C-95.88334961 -7.24556641 -95.88334961 -7.24556641 -94.74414062 -7.49609375 C-64.08026792 -14.1873987 -29.31211241 -10.72394356 0 0 Z " fill="#31515C" transform="translate(672,356)"/>
<path d="M0 0 C2.91043462 1.5994724 4.97799085 3.67753313 7.33718872 6.01550293 C7.85631836 6.52616302 8.375448 7.03682312 8.91030884 7.56295776 C10.6219356 9.25120671 12.3221546 10.95041132 14.02151489 12.65100098 C15.20617198 13.82855887 16.39112793 15.00581618 17.57637024 16.18278503 C20.05704 18.65000954 22.53169094 21.12309328 25.00271606 23.59997559 C28.1749351 26.77810192 31.36505001 29.9375708 34.56033802 33.09248066 C37.01128555 35.51762628 39.45071916 37.95410036 41.88696861 40.39400291 C43.05884364 41.56418081 44.23472369 42.73036171 45.41459084 43.89248085 C47.05978354 45.51562444 48.68842231 47.15375252 50.31375122 48.79675293 C51.24544632 49.72639359 52.17714142 50.65603424 53.1370697 51.61384583 C55.00198364 54.10021973 55.00198364 54.10021973 54.90168762 56.29570007 C53.67612731 58.75378375 52.11564197 60.45797278 50.18948364 62.41271973 C49.15887817 63.48973145 49.15887817 63.48973145 48.10745239 64.58850098 C46.00198364 66.10021973 46.00198364 66.10021973 44.12722778 65.92883301 C41.41457674 64.87119514 39.94538525 63.41575488 37.89260864 61.35412598 C36.7614563 60.22200684 36.7614563 60.22200684 35.60745239 59.0670166 C34.83014771 58.27359863 34.05284302 57.48018066 33.25198364 56.66271973 C32.45921021 55.87316895 31.66643677 55.08361816 30.84963989 54.2701416 C25.00198364 48.36712888 25.00198364 48.36712888 25.00198364 46.10021973 C24.41932739 45.84240723 23.83667114 45.58459473 23.23635864 45.31896973 C20.82169334 44.00187956 19.18458187 42.54933589 17.25198364 40.60021973 C16.63838989 39.99178223 16.02479614 39.38334473 15.39260864 38.75646973 C14.00198364 37.10021973 14.00198364 37.10021973 14.00198364 35.10021973 C13.38323364 34.81146973 12.76448364 34.52271973 12.12698364 34.22521973 C10.00198364 33.10021973 10.00198364 33.10021973 8.00198364 31.10021973 C7.67198364 61.79021973 7.34198364 92.48021973 7.00198364 124.10021973 C2.05198364 124.10021973 -2.89801636 124.10021973 -7.99801636 124.10021973 C-8.93216978 119.42945263 -9.13263122 115.1758503 -9.11154175 110.45446777 C-9.11168777 109.59542343 -9.1118338 108.73637909 -9.11198425 107.8513031 C-9.11128948 105.0214889 -9.10351746 102.19174113 -9.09567261 99.36193848 C-9.09380688 97.39610327 -9.09238371 95.4302676 -9.09138489 93.46443176 C-9.08757188 88.29742137 -9.07775198 83.1304392 -9.06668091 77.96343994 C-9.05644063 72.68807355 -9.05188166 67.41270258 -9.04684448 62.1373291 C-9.03612862 51.79161359 -9.01906681 41.44591901 -8.99801636 31.10021973 C-9.42761658 31.540923 -9.8572168 31.98162628 -10.29983521 32.4356842 C-14.76212079 37.00834396 -19.24171935 41.56350016 -23.73190308 46.10876465 C-25.40668568 47.80873562 -27.0769592 49.51316089 -28.74264526 51.2220459 C-31.13383225 53.67368823 -33.54062948 56.1090009 -35.95114136 58.54162598 C-36.69607849 59.31236954 -37.44101562 60.0831131 -38.20852661 60.87721252 C-38.90895081 61.57801437 -39.609375 62.27881622 -40.33102417 63.00085449 C-40.94391296 63.62484634 -41.55680176 64.2488382 -42.18826294 64.89173889 C-43.99801636 66.10021973 -43.99801636 66.10021973 -46.08657837 65.9150238 C-48.69131322 64.80468249 -50.17936454 63.24363079 -51.99801636 61.10021973 C-51.99801636 60.44021973 -51.99801636 59.78021973 -51.99801636 59.10021973 C-53.31801636 58.44021973 -54.63801636 57.78021973 -55.99801636 57.10021973 C-55.50219475 52.81425688 -53.03586647 50.74496154 -50.08273315 47.76501465 C-49.57207306 47.24588501 -49.06141296 46.72675537 -48.53527832 46.19189453 C-46.84702938 44.48026776 -45.14782477 42.78004877 -43.44723511 41.08068848 C-42.26967721 39.89603139 -41.0924199 38.71107544 -39.91545105 37.52583313 C-37.44822654 35.04516337 -34.9751428 32.57051243 -32.4982605 30.0994873 C-29.32013417 26.92726827 -26.16066529 23.73715335 -23.00575542 20.54186535 C-20.58060981 18.09091782 -18.14413573 15.65148421 -15.70423317 13.21523476 C-14.53405528 12.04335973 -13.36787437 10.86747968 -12.20575523 9.68761253 C-10.58261164 8.04241983 -8.94448356 6.41378105 -7.30148315 4.78845215 C-6.3718425 3.85675705 -5.44220184 2.92506195 -4.48439026 1.96513367 C-1.99801636 0.10021973 -1.99801636 0.10021973 0 0 Z " fill="#355560" transform="translate(611.9980163574219,664.8997802734375)"/>
<path d="M0 0 C0.66 0 1.32 0 2 0 C3.11817663 3.3545299 3.08322593 5.77468803 3.02172852 9.30737305 C3.00163223 10.60849533 2.98153595 11.90961761 2.96083069 13.25016785 C2.93363419 14.67068696 2.90632335 16.09120388 2.87890625 17.51171875 C2.85460066 18.96473955 2.83075732 20.41776816 2.80735779 21.87080383 C2.74456043 25.69313448 2.67548154 29.51532685 2.60510254 33.33752441 C2.53437978 37.23862415 2.46958642 41.13982184 2.40429688 45.04101562 C2.2753406 52.69411877 2.13974941 60.34708553 2 68 C2.79513504 67.98747192 3.59027008 67.97494385 4.40950012 67.96203613 C11.89908138 67.84407259 19.38866612 67.72633394 26.87825489 67.60884857 C30.72881578 67.54843883 34.57937525 67.48794181 38.42993164 67.42724609 C42.14519117 67.36868624 45.86045422 67.31035465 49.57571983 67.25218201 C50.99390478 67.22993619 52.41208843 67.20760781 53.83027077 67.18519592 C55.81498502 67.15384503 57.79970432 67.1228136 59.78442383 67.09179688 C60.91471512 67.07403198 62.04500641 67.05626709 63.20954895 67.03796387 C65.13956217 67.01170619 67.06980817 67 69 67 C69.33 67.66 69.66 68.32 70 69 C46.9 69 23.8 69 0 69 C0 46.23 0 23.46 0 0 Z " fill="#B1C3C7" transform="translate(654,553)"/>
<path d="M0 0 C0 4.50595294 -1.37892611 6.3311512 -4.4375 9.625 C-7 12 -7 12 -10 14 C-8.43632643 10.47761953 -6.30504111 7.72876006 -3.875 4.75 C-3.15054687 3.85796875 -2.42609375 2.9659375 -1.6796875 2.046875 C-0.84824219 1.03367187 -0.84824219 1.03367187 0 0 Z " fill="#83999F" transform="translate(467,412)"/>
<path d="M0 0 C0.33 1.32 0.66 2.64 1 4 C0.01 4.33 -0.98 4.66 -2 5 C-3.20882096 7.00016466 -3.20882096 7.00016466 -4 9 C-4.99 9 -5.98 9 -7 9 C-4.69 6.03 -2.38 3.06 0 0 Z " fill="#CCE3E4" transform="translate(473,429)"/>
<path d="M0 0 C1.1079276 3.32378281 1.11204374 5.66386877 0 9 C-2.05078125 10.65234375 -2.05078125 10.65234375 -4 12 C-3.52309796 10.37433394 -3.04340334 8.74948689 -2.5625 7.125 C-2.29566406 6.22007812 -2.02882813 5.31515625 -1.75390625 4.3828125 C-1 2 -1 2 0 0 Z " fill="#8EA3A8" transform="translate(434,464)"/>
<path d="M0 0 C0.33 0.66 0.66 1.32 1 2 C-1.16798732 7.4770206 -1.16798732 7.4770206 -4.1875 9.375 C-4.785625 9.58125 -5.38375 9.7875 -6 10 C-4.6302836 6.00499382 -2.74277578 3.19990508 0 0 Z " fill="#899CA1" transform="translate(456,426)"/>
<path d="M0 0 C0 0.99 0 1.98 0 3 C-0.66 2.67 -1.32 2.34 -2 2 C-1.34 1.34 -0.68 0.68 0 0 Z M-3 3 C-2.34 3.66 -1.68 4.32 -1 5 C-2.32 5.99 -3.64 6.98 -5 8 C-5 5 -5 5 -3 3 Z " fill="#26444F" transform="translate(571,706)"/>
<path d="M0 0 C0.66 0.33 1.32 0.66 2 1 C0.75023244 4.65316671 0.32901247 5.78065836 -3 8 C-1.125 1.125 -1.125 1.125 0 0 Z " fill="#798F95" transform="translate(438,456)"/>
</svg>
