<?xml version="1.0" encoding="UTF-8"?>
<svg version="1.1" xmlns="http://www.w3.org/2000/svg" width="1280" height="720">
<path d="M0 0 C1.58361328 0.15275391 1.58361328 0.15275391 3.19921875 0.30859375 C28.3861478 3.64165257 51.33840446 18.62391996 67.390625 37.89453125 C84.02866433 59.66128658 90.55019123 83.98463737 87.77734375 111.18408203 C85.59380307 126.98784213 79.05385489 140.48917589 71 154 C70.34 154 69.68 154 69 154 C68.73703125 154.58007812 68.4740625 155.16015625 68.203125 155.7578125 C64.88563061 161.94041568 59.10556116 167.25064078 54 172 C53.34 172 52.68 172 52 172 C51.67 172.99 51.34 173.98 51 175 C45.62857143 179 45.62857143 179 43 179 C43 179.66 43 180.32 43 181 C24.86682731 190.26906594 9.26808886 196.55318523 -11.37158203 196.44604492 C-13.8644487 196.43753601 -16.35501434 196.46639194 -18.84765625 196.49804688 C-42.43803463 196.60088341 -63.11270232 187.14724692 -81 172 C-81.71800781 171.42765625 -82.43601562 170.8553125 -83.17578125 170.265625 C-84.84408934 168.91493068 -86.43189589 167.46583645 -88 166 C-88 165.01 -88 164.02 -88 163 C-88.99 162.67 -89.98 162.34 -91 162 C-91 161.34 -91 160.68 -91 160 C-91.99 159.67 -92.98 159.34 -94 159 C-95.57460762 156.87988225 -96.9894935 154.80084918 -98.375 152.5625 C-98.77565674 151.91998291 -99.17631348 151.27746582 -99.58911133 150.61547852 C-100.73917329 148.7512633 -101.87157688 146.87736719 -103 145 C-103.49113281 144.20335937 -103.98226562 143.40671875 -104.48828125 142.5859375 C-107.67003307 136.88573067 -109.42508185 130.73445869 -111.25 124.5 C-111.50869873 123.62142334 -111.76739746 122.74284668 -112.03393555 121.83764648 C-118.65781837 98.12914097 -114.93731527 73.02770027 -103.625 51.3671875 C-97.96397028 41.55268488 -90.60948615 32.39486985 -82 25 C-81.34 25 -80.68 25 -80 25 C-79.505 23.515 -79.505 23.515 -79 22 C-73.62857143 18 -73.62857143 18 -71 18 C-71 17.34 -71 16.68 -71 16 C-47.08368639 3.90978993 -27.1225766 -2.73578406 0 0 Z M-26 8 C-26 8.66 -26 9.32 -26 10 C-26.5775 10.226875 -27.155 10.45375 -27.75 10.6875 C-33.00119677 13.75069811 -35.07856603 18.93852372 -37.0625 24.4375 C-37.31999023 25.14342285 -37.57748047 25.8493457 -37.84277344 26.57666016 C-45.29066588 47.6223841 -45.33467243 69.64248672 -45.26074219 91.69360352 C-45.24938248 95.1154117 -45.25610339 98.53690758 -45.26761913 101.95870495 C-46.2871446 146.64009805 -46.2871446 146.64009805 -28 186 C-22.68831634 191.05257714 -17.64656609 191.3918899 -10.5546875 191.265625 C-4.17048853 190.6018245 -0.26559818 187.68919248 3.75 182.8125 C6.89334923 178.43604551 9.13107295 174.04043963 11 169 C11.34933594 168.08347656 11.69867187 167.16695312 12.05859375 166.22265625 C17.93930193 149.82991295 18.15309478 132.32325177 18.16796875 115.08203125 C18.17119836 113.69024118 18.17456356 112.29845142 18.17805481 110.90666199 C18.1839857 108.00995093 18.18590104 105.11326942 18.18530273 102.21655273 C18.1852216 99.28940639 18.19215461 96.36241695 18.20581055 93.43530273 C18.5269609 64.49596537 18.5269609 64.49596537 14 36 C13.79632812 35.18660156 13.59265625 34.37320313 13.3828125 33.53515625 C10.67274572 23.65407006 6.53853921 13.05503006 -2.6875 7.6875 C-10.58325386 3.66513483 -18.12007527 3.79737348 -26 8 Z " fill="#F4F4F4" transform="translate(754,308)"/>
<path d="M0 0 C3.91335841 1.3044528 4.13542825 2.34543938 6 6 C6.57179509 7.45471397 7.13308246 8.91357482 7.6875 10.375 C9.45284437 14.94853695 11.64213671 19.15287932 14 23.4375 C16.82283209 28.5861867 19.07204834 33.61305768 20.9453125 39.19140625 C22.64643075 43.72142114 24.89862033 47.95974968 27.12109375 52.25 C29.59050346 57.0842977 31.77605256 62.0494521 34 67 C35.2488677 69.76678954 36.49902131 72.53299244 37.75 75.29882812 C38.58480033 77.14451948 39.41812904 78.99087713 40.25 80.83789062 C42.63346134 86.10012636 45.11841559 91.2919366 47.72314453 96.44799805 C50.02940878 101.05743977 52.22512757 105.71996958 54.4375 110.375 C57.37839713 116.55250769 60.33022425 122.71684937 63.4375 128.8125 C65.09258344 132.08046928 66.56624988 135.32927545 67.875 138.75 C69.90678881 144.02925041 72.45285558 149.00852899 75.00732422 154.0480957 C77.34506938 158.66658108 79.55290174 163.32157479 81.66796875 168.046875 C85.87499062 177.37387951 90.26680346 186.61473715 94.875 195.75 C99.28081416 204.4855911 103.4635336 213.32361085 107.65283203 222.16455078 C109.53127714 226.11820455 111.42439517 230.06476793 113.31738281 234.01147461 C115.55118999 238.67133037 117.77597884 243.3354681 120 248 C120.51167725 249.06927734 120.51167725 249.06927734 121.03369141 250.16015625 C126.52598411 261.66173165 126.52598411 261.66173165 128 268 C124.98968256 268.93423645 124.13349732 269.04449911 121 268 C118.58458612 267.8699837 116.1674878 267.77045301 113.75 267.6875 C97.92566897 266.87429274 83.00054554 261.18140616 69 254 C69 253.34 69 252.68 69 252 C68.27425781 251.89558594 67.54851562 251.79117188 66.80078125 251.68359375 C63.74015809 250.93657973 61.78528522 249.82451352 59.1875 248.0625 C58.39730469 247.53785156 57.60710937 247.01320313 56.79296875 246.47265625 C56.20128906 245.98667969 55.60960937 245.50070312 55 245 C55 244.34 55 243.68 55 243 C54.443125 242.7525 53.88625 242.505 53.3125 242.25 C50.57589087 240.77075182 48.32349131 239.06532561 46 237 C46 236.34 46 235.68 46 235 C45.01 234.67 44.02 234.34 43 234 C41.39453125 232.44140625 41.39453125 232.44140625 39.8125 230.5625 C39.28269531 229.94503906 38.75289062 229.32757813 38.20703125 228.69140625 C37 227 37 227 37 225 C36.34 225 35.68 225 35 225 C26.20240867 214.05047986 20.03794106 200.61916773 14.30541992 187.88452148 C12.094766 182.99974945 9.80061789 178.15539732 7.5 173.3125 C6.80970703 171.84200195 6.80970703 171.84200195 6.10546875 170.34179688 C0.0750556 157.66094218 -5.38020598 149.88256767 -19 145 C-32.62599015 142.20890102 -46.16032994 143.45682761 -58 151 C-69.59394114 160.5786344 -75.02542196 178.34098026 -80.703125 191.71484375 C-82.38173579 195.64824189 -84.20968898 199.46197844 -86.15576172 203.26831055 C-87.29038354 205.59563054 -88.12613489 207.98097062 -88.9375 210.4375 C-90.4827526 214.84298485 -92.42354672 218.66311642 -94.77734375 222.6796875 C-96.59587795 226.13083548 -97.76572259 229.76446469 -99.03515625 233.4453125 C-99.86885351 235.65275382 -100.76991336 237.49931433 -102 239.5 C-103.73804159 242.33361645 -104.84418263 245.17305453 -105.9375 248.3125 C-107.84983837 253.80007966 -110.30650107 258.86036428 -113 264 C-113.32484375 264.73863281 -113.6496875 265.47726562 -113.984375 266.23828125 C-115 268 -115 268 -117.625 268.75 C-118.40875 268.8325 -119.1925 268.915 -120 269 C-121.43720433 264.41785442 -120.48179432 262.09896693 -118.375 257.875 C-117.81554687 256.72773438 -117.25609375 255.58046875 -116.6796875 254.3984375 C-115.84824219 252.71621094 -115.84824219 252.71621094 -115 251 C-114.15832136 249.17048295 -113.32439234 247.33737117 -112.5 245.5 C-104.60319304 228.10671136 -104.60319304 228.10671136 -101.875 222.875 C-99.86420398 218.9364987 -98.46674526 214.82548362 -97 210.66015625 C-95.88197518 207.68603554 -94.52508831 204.93506013 -93.04736328 202.12768555 C-91.9803079 199.95999611 -91.10518493 197.77967382 -90.2421875 195.5234375 C-87.83140252 189.43235842 -84.99307073 183.57388441 -82.125 177.6875 C-81.05002539 175.46651152 -79.97579768 173.24516136 -78.90234375 171.0234375 C-78.39558105 169.97510742 -77.88881836 168.92677734 -77.36669922 167.84667969 C-75.7686785 164.51818351 -74.21814639 161.17245549 -72.6875 157.8125 C-70.68774486 153.42365686 -68.5588642 149.11187495 -66.375 144.8125 C-63.95558414 140.02152485 -61.80922485 135.23345014 -59.89453125 130.22265625 C-59.03727579 128.09261977 -58.06388038 126.09578489 -57 124.0625 C-55.39671907 120.96823018 -54.20146486 117.85589238 -53.0625 114.5625 C-51.50820853 110.13734075 -49.56756728 106.26853965 -47.2109375 102.2265625 C-45.98059754 99.96432451 -45.04160431 97.71760703 -44.125 95.3125 C-42.27468673 90.48071029 -39.9965306 85.93170619 -37.64379883 81.3269043 C-35.21568253 76.53259682 -33.1323176 71.65043171 -31.1171875 66.671875 C-29.88822272 63.73267252 -28.4832086 60.92938802 -27.02001953 58.10229492 C-25.95393065 55.90504951 -25.05608688 53.68646722 -24.171875 51.41015625 C-22.04758924 46.04972661 -19.71382901 40.8037028 -17.3125 35.5625 C-16.88187256 34.61963135 -16.45124512 33.6767627 -16.00756836 32.70532227 C-13.05884558 26.26728651 -10.07919477 19.84396565 -7.0625 13.4375 C-6.69745361 12.65898682 -6.33240723 11.88047363 -5.95629883 11.07836914 C-4.14548339 7.25769648 -2.26219416 3.58121646 0 0 Z " fill="#F6F6F6" transform="translate(188,237)"/>
<path d="M0 0 C1.03547722 -0.00143509 1.03547722 -0.00143509 2.09187317 -0.00289917 C3.54310193 -0.00357455 4.99433382 -0.00176551 6.44555664 0.00244141 C8.62197985 0.00775742 10.7981928 0.0024957 12.97460938 -0.00390625 C34.01244716 -0.01706901 55.43135417 2.38130409 72.45703125 16.1328125 C74.70703125 18.7578125 74.70703125 18.7578125 76.45703125 21.1328125 C77.2253125 21.71289062 77.99359375 22.29296875 78.78515625 22.890625 C93.62691002 35.34554702 96.30468198 56.76500561 98.18249893 74.81767654 C99.05217569 85.31952464 98.81697914 95.88205797 98.75 106.41015625 C98.74438773 109.04529068 98.74012538 111.6804283 98.73713684 114.31556702 C98.72792926 120.47371704 98.70347416 126.63170122 98.67308837 132.78977925 C98.63918556 139.81796661 98.62296961 146.84616323 98.60800207 153.87441242 C98.57690987 168.29396342 98.5243774 182.71338563 98.45703125 197.1328125 C95.45703125 198.1328125 95.45703125 198.1328125 92.45703125 197.1328125 C90.83308667 197.03096232 89.20776434 196.95035037 87.58203125 196.8828125 C73.54961404 195.66099253 60.40102239 187.85582606 50.45703125 178.1328125 C50.45703125 177.1428125 50.45703125 176.1528125 50.45703125 175.1328125 C49.46703125 174.8028125 48.47703125 174.4728125 47.45703125 174.1328125 C38.72701904 165.42665279 35.77422922 152.81299741 33.45703125 141.1328125 C33.09351563 142.16019531 32.73 143.18757812 32.35546875 144.24609375 C27.29662822 158.31072611 21.4636896 169.80003119 10.45703125 180.1328125 C9.46703125 180.4628125 8.47703125 180.7928125 7.45703125 181.1328125 C7.12703125 182.1228125 6.79703125 183.1128125 6.45703125 184.1328125 C3.5362332 186.20811637 2.08156394 187.1328125 -1.54296875 187.1328125 C-1.54296875 187.7928125 -1.54296875 188.4528125 -1.54296875 189.1328125 C-20.22180302 197.83193863 -39.42970135 200.98339367 -59.54296875 195.1328125 C-65.23886189 192.83941658 -70.85618611 190.16256954 -75.54296875 186.1328125 C-75.54296875 185.4728125 -75.54296875 184.8128125 -75.54296875 184.1328125 C-76.53296875 183.8028125 -77.52296875 183.4728125 -78.54296875 183.1328125 C-87.14120887 172.856867 -88.35230351 158.97128815 -87.29296875 146.09375 C-85.00123818 132.87537549 -76.0910955 122.01705388 -65.54296875 114.1328125 C-64.88296875 114.1328125 -64.22296875 114.1328125 -63.54296875 114.1328125 C-63.54296875 113.4728125 -63.54296875 112.8128125 -63.54296875 112.1328125 C-57.94995636 108.97379624 -52.35105945 105.87935031 -46.54296875 103.1328125 C-45.61742187 102.68035156 -44.691875 102.22789062 -43.73828125 101.76171875 C-25.29010564 93.24547461 -4.4366706 89.49559501 15.5546875 86.5625 C17.48588939 86.27658855 19.41131833 85.94844683 21.328125 85.578125 C25.09404395 85.04215152 28.65497789 85.06725986 32.45703125 85.1328125 C32.36181225 80.70745153 32.25540547 76.28252618 32.13964844 71.85766602 C32.10191522 70.35968944 32.06697812 68.8616392 32.03515625 67.36352539 C31.68095027 50.87634392 31.22194097 35.08268353 21.45703125 21.1328125 C21.45703125 20.4728125 21.45703125 19.8128125 21.45703125 19.1328125 C19.97203125 18.6378125 19.97203125 18.6378125 18.45703125 18.1328125 C18.45703125 17.4728125 18.45703125 16.8128125 18.45703125 16.1328125 C17.10355436 15.67244621 15.74920425 15.21464713 14.39453125 14.7578125 C13.64042969 14.50257813 12.88632813 14.24734375 12.109375 13.984375 C10.79646484 13.56285156 10.79646484 13.56285156 9.45703125 13.1328125 C8.41933594 12.77703125 7.38164063 12.42125 6.3125 12.0546875 C-10.7505111 7.97477806 -27.3088405 11.55757982 -42.08203125 20.44921875 C-44.52518596 22.0089743 -44.52518596 22.0089743 -46.25390625 23.84765625 C-47.54296875 25.1328125 -47.54296875 25.1328125 -49.54296875 25.1328125 C-50.03796875 26.6178125 -50.03796875 26.6178125 -50.54296875 28.1328125 C-51.20296875 28.1328125 -51.86296875 28.1328125 -52.54296875 28.1328125 C-52.78789063 28.64328125 -53.0328125 29.15375 -53.28515625 29.6796875 C-54.97443795 32.97431143 -56.8223973 36.17425719 -58.66796875 39.3828125 C-59.22677734 40.35734375 -59.22677734 40.35734375 -59.796875 41.3515625 C-60.71125996 42.94587474 -61.62698131 44.5394204 -62.54296875 46.1328125 C-63.20296875 46.1328125 -63.86296875 46.1328125 -64.54296875 46.1328125 C-64.54296875 46.7928125 -64.54296875 47.4528125 -64.54296875 48.1328125 C-65.86296875 47.8028125 -67.18296875 47.4728125 -68.54296875 47.1328125 C-67.54996618 39.00933366 -63.23690965 31.03010843 -57.54296875 25.1328125 C-56.88296875 25.1328125 -56.22296875 25.1328125 -55.54296875 25.1328125 C-55.04796875 23.6478125 -55.04796875 23.6478125 -54.54296875 22.1328125 C-53.88296875 22.1328125 -53.22296875 22.1328125 -52.54296875 22.1328125 C-52.04796875 20.6478125 -52.04796875 20.6478125 -51.54296875 19.1328125 C-49.48737317 17.53014476 -47.45898677 16.0689251 -45.29296875 14.6328125 C-44.71933594 14.24222656 -44.14570312 13.85164063 -43.5546875 13.44921875 C-30.02297815 4.29450878 -16.38817825 0.01469509 0 0 Z M-8.54296875 109.1328125 C-18.12735393 119.78413867 -22.24059133 131.36137287 -21.89453125 145.69140625 C-21.21242933 152.36842612 -19.34808436 157.91113175 -15.10546875 163.1328125 C-10.2792168 166.89964329 -6.80509585 168.92749686 -0.54296875 169.1328125 C7.59139382 167.98617764 13.01887596 164.15163324 18.45703125 158.1328125 C20.16799716 155.82939272 21.20529327 153.77537046 22.45703125 151.1328125 C22.78058594 150.50246094 23.10414062 149.87210938 23.4375 149.22265625 C32.26945993 131.11883034 32.84660029 110.84933444 32.45703125 91.1328125 C17.46756802 90.64868077 2.13468472 98.99088905 -8.54296875 109.1328125 Z " fill="#F6F6F6" transform="translate(1115.54296875,307.8671875)"/>
<path d="M0 0 C1.80164439 0.00138269 1.80164439 0.00138269 3.63968563 0.00279331 C4.30615909 0.00193889 4.97263255 0.00108446 5.65930218 0.00020415 C7.9088071 -0.00145252 10.15823864 0.00407372 12.40773678 0.00952244 C14.01377517 0.0098043 15.61981369 0.0096466 17.22585201 0.00907993 C21.59963144 0.0087919 25.97338368 0.01468951 30.34715676 0.02165389 C34.91291655 0.02788652 39.47867689 0.02849116 44.04444027 0.0296793 C52.69653382 0.03279288 61.3486148 0.04100663 70.0007028 0.05102879 C79.84817899 0.06218909 89.69565578 0.06770016 99.54313672 0.07272422 C119.80587176 0.08318923 140.06859547 0.10078919 160.33132076 0.12304783 C161.56629637 3.82797465 160.95272514 4.6726399 159.33132076 8.12304783 C158.48787703 9.72070237 157.61363995 11.3023662 156.71413326 12.86914158 C156.19568844 13.77776951 155.67724361 14.68639744 155.14308834 15.62255955 C154.58645504 16.59209568 154.02982174 17.56163181 153.45632076 18.56054783 C148.93170581 26.49455129 144.48669392 34.46316404 140.14382076 42.49804783 C136.13782776 49.89756903 131.99751986 57.19507985 127.69777584 64.42749119 C125.01634007 68.94047009 122.44163293 73.49448399 119.95632076 78.11914158 C117.78159075 82.13925547 115.55533897 86.13004513 113.33132076 90.12304783 C110.54245837 95.13421225 107.7605685 100.14838338 105.01882076 105.18554783 C104.5534692 106.04019627 104.08811764 106.8948447 103.60866451 107.77539158 C102.80835608 109.24629485 102.00876312 110.71758788 101.21022701 112.18945408 C98.37709144 117.35576012 95.39195012 122.42649739 92.39382076 127.49804783 C88.57096255 133.97158891 84.86771443 140.48765655 81.33132076 147.12304783 C80.41093014 148.82654392 80.41093014 148.82654392 79.47194576 150.56445408 C75.48985376 157.95336035 71.64494983 165.39777351 67.94509029 172.932374 C66.53389156 175.79286294 65.10391717 178.46415322 63.33132076 181.12304783 C65.39105875 183.18278582 69.79143215 182.27720194 72.6272192 182.28076267 C73.93212307 182.28838375 73.93212307 182.28838375 75.26338863 182.29615879 C77.15953458 182.3068878 79.05569339 182.31549797 80.95185757 182.32227802 C83.95261994 182.33403204 86.95323609 182.3534767 89.95394039 182.37539768 C98.488213 182.43712448 107.0224725 182.49104464 115.5569067 182.52441502 C120.77123977 182.54535618 125.98530969 182.58065946 131.19949245 182.62517262 C133.18816435 182.63934216 135.17688284 182.6480572 137.16560268 182.651227 C139.94996315 182.65613351 142.73362548 182.67928622 145.5178442 182.70654392 C146.75087276 182.70203472 146.75087276 182.70203472 148.008811 182.69743443 C152.56801135 182.76374492 155.66137372 183.11004449 159.33132076 186.12304783 C160.14382076 188.81054783 160.14382076 188.81054783 160.33132076 191.12304783 C157.44862489 192.56439577 154.97330871 192.24571798 151.75084591 192.24330235 C150.72535277 192.24458398 150.72535277 192.24458398 149.67914259 192.24589151 C147.37746609 192.24754484 145.0758617 192.24202735 142.77419186 192.23657322 C141.12859759 192.23629129 139.48300321 192.23644919 137.83740902 192.23701572 C133.36038656 192.23730347 128.88339071 192.23141036 124.40637445 192.22444177 C119.73118092 192.2182045 115.05598681 192.21760413 110.38078976 192.21641636 C101.52331703 192.21330415 92.66585661 192.20509223 83.80838931 192.19506687 C73.72631152 192.18390233 63.64423315 192.17839442 53.56215072 192.17337143 C32.81853386 192.16290954 12.07492809 192.14531221 -8.66867924 192.12304783 C-9.85398007 188.56714534 -9.17984161 187.5271908 -7.57273197 184.28857517 C-7.23314457 183.63582615 -6.89355717 182.98307713 -6.54367924 182.31054783 C-6.19184574 181.61912693 -5.84001225 180.92770603 -5.47751713 180.21533298 C-1.74402849 173.01948091 2.43808101 166.0905976 6.60768795 159.14184666 C10.30597542 152.95158702 13.64951801 146.72340402 16.78444576 140.22851658 C18.90069119 135.97999356 21.29678014 131.92196884 23.71803951 127.84179783 C26.60768312 122.97208367 29.33776516 118.02438444 31.96022701 113.00586033 C36.03853826 105.20863764 40.37607274 97.61263301 44.89382076 90.06054783 C49.17390143 82.90088542 53.15789442 75.74194101 56.78444576 68.22851658 C58.90069119 63.97999356 61.29678014 59.92196884 63.71803951 55.84179783 C66.99274471 50.3231663 70.03374336 44.6902183 73.02248287 39.01245213 C76.81125428 31.8276195 80.80709814 24.79976615 85.00588131 17.84570408 C85.4097607 17.17152439 85.8136401 16.4973447 86.22975826 15.80273533 C86.58731197 15.21218357 86.94486568 14.62163181 87.31325436 14.01318455 C88.51487702 11.78225826 89.40486332 9.47969734 90.33132076 7.12304783 C88.58698505 7.12637875 88.58698505 7.12637875 86.80741024 7.12977695 C75.87362708 7.15000695 64.9398477 7.16501928 54.00605011 7.17486 C48.38424115 7.18008919 42.76244723 7.18718749 37.14064693 7.19848728 C31.72013799 7.20931488 26.29964356 7.21532439 20.87912464 7.21792507 C18.80617132 7.21977955 16.73321883 7.2234006 14.66027164 7.22877789 C11.76748183 7.23598663 8.87475281 7.23703884 5.98195553 7.23657322 C5.11593212 7.2401685 4.24990871 7.24376377 3.35764217 7.24746799 C-2.55462708 7.23709999 -2.55462708 7.23709999 -3.66867924 6.12304783 C-3.79367924 3.62304783 -3.79367924 3.62304783 -3.66867924 1.12304783 C-2.66867924 0.12304783 -2.66867924 0.12304783 0 0 Z " fill="#F4F4F4" transform="translate(453.6686792373657,313.8769521713257)"/>
<path d="M0 0 C0.33 1.32 0.66 2.64 1 4 C-2.67370151 6.27957889 -6.42420345 6.48923257 -10.625 6.875 C-17.32795862 7.60844296 -22.8997415 9.03850698 -29 12 C-29.80566406 12.32484375 -30.61132812 12.6496875 -31.44140625 12.984375 C-42.13529292 17.60333075 -50.36096091 26.969017 -56 37 C-56.48339844 37.8559375 -56.96679688 38.711875 -57.46484375 39.59375 C-59.52708751 44.16951732 -60.77702098 48.84476189 -62.0625 53.6875 C-62.31837891 54.61755859 -62.57425781 55.54761719 -62.83789062 56.50585938 C-65.68857798 67.08051711 -67.29658095 77.11500062 -67.31884766 88.08081055 C-67.32889328 89.23333817 -67.3389389 90.38586578 -67.34928894 91.57331848 C-67.37993001 95.3444473 -67.39710285 99.11550575 -67.4140625 102.88671875 C-67.43278949 105.51659238 -67.45236403 108.1464601 -67.4727478 110.77632141 C-67.51931037 116.96663237 -67.55616252 123.15696048 -67.58942068 129.34735566 C-67.62780246 136.40194538 -67.67716985 143.45644531 -67.72740483 150.51095903 C-67.83038914 165.00723673 -67.91975716 179.50357878 -68 194 C-74.85177399 197.42588699 -85.88967758 194.71897905 -93 193 C-96.16736713 191.93049941 -99.05632902 190.57864125 -102 189 C-102.80050781 188.57847656 -103.60101562 188.15695312 -104.42578125 187.72265625 C-117.15145829 180.57806929 -127.27855957 170.44956176 -131.39453125 156.16796875 C-131.69423828 155.09482422 -131.69423828 155.09482422 -132 154 C-132.3366055 153.09093745 -132.673211 152.1818749 -133.02001667 151.24526501 C-134.01573478 147.94789346 -134.26261275 145.34015065 -134.28520203 141.90779114 C-134.29781067 140.70906876 -134.31041931 139.51034637 -134.32341003 138.27529907 C-134.32714127 136.97377899 -134.3308725 135.67225891 -134.3347168 134.33129883 C-134.34566125 132.93627767 -134.35745302 131.54126293 -134.37002563 130.14625549 C-134.40153328 126.36969129 -134.42084095 122.59315457 -134.43764853 118.81649995 C-134.4570401 114.86205353 -134.48675138 110.90768339 -134.51509094 106.95329285 C-134.5611054 100.31662747 -134.59951964 93.67995243 -134.63305664 87.04321289 C-134.67190272 79.3677534 -134.72118382 71.6924173 -134.77638692 64.01705915 C-134.82939731 56.63168246 -134.87658361 49.24628122 -134.92057228 41.86084557 C-134.93930408 38.71775722 -134.95980455 35.57468773 -134.98166466 32.43161964 C-135.00700852 28.73395053 -135.02716983 25.03628819 -135.043293 21.33856773 C-135.05321363 19.33173072 -135.06812926 17.32492036 -135.08317566 15.31811523 C-135.08939941 13.53272087 -135.08939941 13.53272087 -135.0957489 11.71125793 C-135.1014474 10.6746594 -135.1071459 9.63806086 -135.11301708 8.57005024 C-135 6 -135 6 -134 3 C-130.99375703 2.95071733 -128.00536594 2.95166809 -125 3 C-123.77023437 3.00580078 -123.77023437 3.00580078 -122.515625 3.01171875 C-108.11578727 3.64443889 -95.30493813 10.18913425 -85 20 C-85 20.66 -85 21.32 -85 22 C-84.34 22 -83.68 22 -83 22 C-76.05972764 30.21644335 -71.54165218 39.93425171 -68 50 C-67.8040625 49.45214844 -67.608125 48.90429688 -67.40625 48.33984375 C-64.32386251 40.16885968 -60.195524 32.63748301 -56 25 C-55.34 25 -54.68 25 -54 25 C-54 24.01 -54 23.02 -54 22 C-52.389644 20.1883495 -50.7902319 18.61994155 -49 17 C-48.43023438 16.44957031 -47.86046875 15.89914062 -47.2734375 15.33203125 C-33.69423205 2.67487061 -18.01334163 -0.34641042 0 0 Z " fill="#FAFAFA" transform="translate(1011,311)"/>
<path d="M0 0 C2.39072297 -0.0305343 4.78105016 -0.05276976 7.171875 -0.0703125 C8.17903564 -0.0844519 8.17903564 -0.0844519 9.20654297 -0.09887695 C23.1941542 -0.17573196 36.11749824 7.44627031 46 17 C46.66666667 18.33333333 47.33333333 19.66666667 48 21 C48.99 21.33 49.98 21.66 51 22 C62.86996149 33.8367123 66.41311249 52.06415014 66.51171875 68.1171875 C66.52976059 69.26134125 66.54780243 70.405495 66.56639099 71.58432007 C66.62126931 75.3478494 66.65504642 79.11121555 66.6875 82.875 C66.71164668 84.85183671 66.73580534 86.82867348 66.76107025 88.80549622 C67.03507941 110.48584671 67.09722652 132.16935599 67.12204361 153.85123444 C67.12500472 156.25383192 67.1291691 158.65642544 67.13339233 161.059021 C67.139244 164.84019969 67.13925793 168.62133557 67.13450813 172.40251541 C67.13338474 173.80249624 67.13389667 175.20247942 67.13610649 176.60245895 C67.13863857 178.51394362 67.13422011 180.42543381 67.12939453 182.33691406 C67.12859894 183.41201233 67.12780334 184.4871106 67.12698364 185.5947876 C67 188 67 188 66 189 C50.2532748 190.4933869 37.42948868 186.86627134 24.625 177.515625 C24.08875 177.01546875 23.5525 176.5153125 23 176 C23 175.34 23 174.68 23 174 C22.01 173.67 21.02 173.34 20 173 C20 172.34 20 171.68 20 171 C19.01 170.67 18.02 170.34 17 170 C17 169.34 17 168.68 17 168 C16.34 168 15.68 168 15 168 C0.0816218 147.3984301 -0.45749727 125.95200212 -0.30418181 101.32884407 C-0.28519649 97.75615312 -0.28364762 94.18345139 -0.28010559 90.61071777 C-0.27084837 83.87152061 -0.24632207 77.1324726 -0.21605712 70.39334059 C-0.18231393 62.70994465 -0.16597748 55.02654091 -0.15097082 47.3430891 C-0.1197654 31.56197356 -0.06713062 15.78100615 0 0 Z " fill="#F6F6F6" transform="translate(343,315)"/>
<path d="M0 0 C3.44313862 2.97361972 4.73443618 6.19413297 5.39208984 10.66625977 C6.03013368 20.41772323 6.3791796 30.16929945 6.625 39.9375 C6.64679321 40.80060791 6.66858643 41.66371582 6.69104004 42.55297852 C7.20331267 63.70797707 6.08572201 84.04727991 3 105 C4.65 105 6.3 105 8 105 C8.99250545 110.70690634 9.10477512 116.21408489 9 122 C8.67 122 8.34 122 8 122 C7.34 118.7 6.68 115.4 6 112 C5.63648438 113.02738281 5.27296875 114.05476563 4.8984375 115.11328125 C-0.16040303 129.17791361 -5.99334165 140.66721869 -17 151 C-17.99 151.33 -18.98 151.66 -20 152 C-20.33 152.99 -20.66 153.98 -21 155 C-23.92079805 157.07530387 -25.37546731 158 -29 158 C-29 158.66 -29 159.32 -29 160 C-47.67883427 168.69912613 -66.8867326 171.85058117 -87 166 C-92.69589314 163.70660408 -98.31321736 161.02975704 -103 157 C-103 156.34 -103 155.68 -103 155 C-103.99 154.67 -104.98 154.34 -106 154 C-114.59824012 143.7240545 -115.80933476 129.83847565 -114.75 116.9609375 C-112.45826943 103.74256299 -103.54812675 92.88424138 -93 85 C-92.34 85 -91.68 85 -91 85 C-91 84.34 -91 83.68 -91 83 C-85.40698761 79.84098374 -79.8080907 76.74653781 -74 74 C-73.07445312 73.54753906 -72.14890625 73.09507812 -71.1953125 72.62890625 C-52.74713689 64.11266211 -31.89370185 60.36278251 -11.90234375 57.4296875 C-9.97114186 57.14377605 -8.04571292 56.81563433 -6.12890625 56.4453125 C-2.3629873 55.90933902 1.19794664 55.93444736 5 56 C4.904781 51.57463903 4.79837422 47.14971368 4.68261719 42.72485352 C4.64488397 41.22687694 4.60994687 39.7288267 4.578125 38.23071289 C4.41631864 20.23725887 4.41631864 20.23725887 0 3 C0 2.01 0 1.02 0 0 Z M-36 80 C-45.58438518 90.65132617 -49.69762258 102.22856037 -49.3515625 116.55859375 C-48.66946058 123.23561362 -46.80511561 128.77831925 -42.5625 134 C-37.73624805 137.76683079 -34.2621271 139.79468436 -28 140 C-19.86563743 138.85336514 -14.43815529 135.01882074 -9 129 C-7.28903409 126.69658022 -6.25173798 124.64255796 -5 122 C-4.67644531 121.36964844 -4.35289063 120.73929688 -4.01953125 120.08984375 C4.81242868 101.98601784 5.38956904 81.71652194 5 62 C-9.98946323 61.51586827 -25.32234653 69.85807655 -36 80 Z " fill="#F4F4F4" transform="translate(1143,337)"/>
<path d="M0 0 C0 0.66 0 1.32 0 2 C0.99 2.33 1.98 2.66 3 3 C3 3.66 3 4.32 3 5 C3.99 5.33 4.98 5.66 6 6 C7.3515625 8.109375 7.3515625 8.109375 8.625 10.75 C9.05039062 11.61109375 9.47578125 12.4721875 9.9140625 13.359375 C13.86945058 22.97751293 12.70415585 33.9328364 9.0703125 43.4296875 C5.31916861 51.94090364 -0.89536218 57.5699768 -9 62 C-18.27840379 65.33025241 -29.71264444 65.2257609 -39 62 C-41.46700534 60.80304556 -43.68196606 59.47959613 -46 58 C-46 57.34 -46 56.68 -46 56 C-46.99 55.67 -47.98 55.34 -49 55 C-49 54.34 -49 53.68 -49 53 C-49.66 53 -50.32 53 -51 53 C-54.06897217 50.6203157 -55.18748219 47.66147019 -56.625 44.125 C-57.05039062 43.09632813 -57.47578125 42.06765625 -57.9140625 41.0078125 C-61.3478607 31.49693259 -61.32565978 21.30858693 -57.08203125 12.1015625 C-54.42881452 6.94838344 -54.42881452 6.94838344 -53 5 C-52.34 5 -51.68 5 -51 5 C-51 4.01 -51 3.02 -51 2 C-48.76953125 0.24609375 -48.76953125 0.24609375 -45.8125 -1.5625 C-44.84957031 -2.16191406 -43.88664062 -2.76132813 -42.89453125 -3.37890625 C-28.72137773 -11.3166373 -13.05489474 -8.70326316 0 0 Z " fill="#F5F5F5" transform="translate(400,223)"/>
<path d="M0 0 C0.495 1.98 0.495 1.98 1 4 C-2.67370151 6.27957889 -6.42420345 6.48923257 -10.625 6.875 C-17.32795862 7.60844296 -22.8997415 9.03850698 -29 12 C-29.80566406 12.32484375 -30.61132812 12.6496875 -31.44140625 12.984375 C-42.13529292 17.60333075 -50.36096091 26.969017 -56 37 C-56.48339844 37.8559375 -56.96679688 38.711875 -57.46484375 39.59375 C-59.52708751 44.16951732 -60.77702098 48.84476189 -62.0625 53.6875 C-62.31837891 54.61755859 -62.57425781 55.54761719 -62.83789062 56.50585938 C-65.68857798 67.08051711 -67.29658095 77.11500062 -67.31884766 88.08081055 C-67.32889328 89.23333817 -67.3389389 90.38586578 -67.34928894 91.57331848 C-67.37993001 95.3444473 -67.39710285 99.11550575 -67.4140625 102.88671875 C-67.43278949 105.51659238 -67.45236403 108.1464601 -67.4727478 110.77632141 C-67.51931037 116.96663237 -67.55616252 123.15696048 -67.58942068 129.34735566 C-67.62780246 136.40194538 -67.67716985 143.45644531 -67.72740483 150.51095903 C-67.83038914 165.00723673 -67.91975716 179.50357878 -68 194 C-74.76520552 197.38260276 -85.99737354 194.82090768 -93 193 C-93.66 192.34 -94.32 191.68 -95 191 C-86.75 191.66 -78.5 192.32 -70 193 C-70.02094727 189.84469727 -70.04189453 186.68939453 -70.06347656 183.43847656 C-70.1303901 172.89745215 -70.17418873 162.35641719 -70.20724869 151.81523514 C-70.2279355 145.43741678 -70.25589818 139.05981987 -70.30175781 132.68212891 C-70.78759906 63.25062489 -70.78759906 63.25062489 -63 50 C-64.98491642 50.26676204 -64.98491642 50.26676204 -67 51 C-67.33 51.99 -67.66 52.98 -68 54 C-67.4735974 48.55348777 -66.09267869 44.39103423 -63.6875 39.5 C-63.39166016 38.87480469 -63.09582031 38.24960937 -62.79101562 37.60546875 C-60.71984305 33.2841886 -58.41554149 29.13788123 -56 25 C-55.34 25 -54.68 25 -54 25 C-54 24.01 -54 23.02 -54 22 C-52.389644 20.1883495 -50.7902319 18.61994155 -49 17 C-48.43023438 16.44957031 -47.86046875 15.89914062 -47.2734375 15.33203125 C-33.69423205 2.67487061 -18.01334163 -0.34641042 0 0 Z " fill="#696969" transform="translate(1011,311)"/>
<path d="M0 0 C0.66 0.66 1.32 1.32 2 2 C4.60280568 1.67958603 4.60280568 1.67958603 7 1 C5.41872057 5.20077262 3.42804774 9.14188902 1.375 13.125 C-2.15877544 20.06855876 -5.26722145 27.13941767 -8.20947266 34.35205078 C-10.00701302 38.73985906 -11.96485152 42.97311454 -14.12060547 47.19580078 C-15.26742424 49.54865772 -16.11719261 51.95389651 -16.9375 54.4375 C-18.4827526 58.84298485 -20.42354672 62.66311642 -22.77734375 66.6796875 C-24.59587795 70.13083548 -25.76572259 73.76446469 -27.03515625 77.4453125 C-27.86885351 79.65275382 -28.76991336 81.49931433 -30 83.5 C-31.73804159 86.33361645 -32.84418263 89.17305453 -33.9375 92.3125 C-35.84983837 97.80007966 -38.30650107 102.86036428 -41 108 C-41.48726563 109.10794922 -41.48726563 109.10794922 -41.984375 110.23828125 C-43 112 -43 112 -45.625 112.75 C-46.40875 112.8325 -47.1925 112.915 -48 113 C-49.43720433 108.41785442 -48.48179432 106.09896693 -46.375 101.875 C-45.81554687 100.72773438 -45.25609375 99.58046875 -44.6796875 98.3984375 C-44.12539062 97.27695312 -43.57109375 96.15546875 -43 95 C-42.15832136 93.17048295 -41.32439234 91.33737117 -40.5 89.5 C-32.60319304 72.10671136 -32.60319304 72.10671136 -29.875 66.875 C-27.86420398 62.9364987 -26.46674526 58.82548362 -25 54.66015625 C-23.88184613 51.68569225 -22.52473927 48.93442397 -21.046875 46.12670898 C-19.98244304 43.96433333 -19.11019875 41.79001022 -18.25 39.5390625 C-15.80339805 33.35629548 -12.91302125 27.41135669 -10 21.4375 C-6.55114165 14.33916902 -3.13987974 7.24134766 0 0 Z " fill="#9C9C9C" transform="translate(116,393)"/>
<path d="M0 0 C0.85203506 -0.0049649 1.70407013 -0.00992981 2.58192444 -0.01504517 C5.41424351 -0.0297077 8.24650656 -0.03647604 11.07885742 -0.04199219 C13.04082746 -0.04774088 15.00279747 -0.05349864 16.96476746 -0.05926514 C21.08491275 -0.06978719 25.20503846 -0.07562176 29.32519531 -0.07910156 C34.6081722 -0.08458467 39.89089112 -0.10860375 45.17378712 -0.13707352 C49.22894549 -0.1556869 53.28404163 -0.16090483 57.33923912 -0.16243744 C59.28691707 -0.16546813 61.23459382 -0.17351061 63.18223 -0.18662262 C65.90684288 -0.20365379 68.63082441 -0.20180992 71.35546875 -0.1953125 C72.16238159 -0.20452728 72.96929443 -0.21374207 73.80065918 -0.22323608 C77.07818583 -0.19871886 79.47803816 -0.04643551 82.40409851 1.49591064 C83.87182617 3.16113281 83.87182617 3.16113281 83.87182617 6.16113281 C53.18182617 6.16113281 22.49182617 6.16113281 -9.12817383 6.16113281 C-9.12817383 -1.62803227 -6.63795875 0.00912722 0 0 Z " fill="#FCFCFC" transform="translate(528.128173828125,497.8388671875)"/>
<path d="M0 0 C-1.98 0.99 -3.96 1.98 -6 3 C-5.505 3.99 -5.505 3.99 -5 5 C2.59 5.33 10.18 5.66 18 6 C18 6.33 18 6.66 18 7 C17.4016333 7.0093457 16.8032666 7.01869141 16.18676758 7.02832031 C-0.36057871 7.35249765 -18.18427427 8.15958084 -30.7109375 20.71484375 C-32 22 -32 22 -34 22 C-34.33 22.99 -34.66 23.98 -35 25 C-35.66 25 -36.32 25 -37 25 C-37.24492188 25.51046875 -37.48984375 26.0209375 -37.7421875 26.546875 C-39.4314692 29.84149893 -41.27942855 33.04144469 -43.125 36.25 C-43.68380859 37.22453125 -43.68380859 37.22453125 -44.25390625 38.21875 C-45.16829121 39.81306224 -46.08401256 41.4066079 -47 43 C-47.66 43 -48.32 43 -49 43 C-49 43.66 -49 44.32 -49 45 C-50.32 44.67 -51.64 44.34 -53 44 C-52.00699743 35.87652116 -47.6939409 27.89729593 -42 22 C-41.34 22 -40.68 22 -40 22 C-39.67 21.01 -39.34 20.02 -39 19 C-38.34 19 -37.68 19 -37 19 C-36.67 18.01 -36.34 17.02 -36 16 C-33.94440442 14.39733226 -31.91601802 12.9361126 -29.75 11.5 C-29.17636719 11.10941406 -28.60273437 10.71882813 -28.01171875 10.31640625 C-8.55017622 -2.85005874 -8.55017622 -2.85005874 0 0 Z " fill="#7F7F7F" transform="translate(1100,311)"/>
<path d="M0 0 C0.33 0.66 0.66 1.32 1 2 C0.34 3.65 -0.32 5.3 -1 7 C53.78 7 108.56 7 165 7 C163.31622777 3.10540926 163.31622777 3.10540926 161 1 C163.86724686 1.57344937 164.8614515 1.8614515 167 4 C167 5.32 167 6.64 167 8 C164.11730412 9.44134794 161.64198795 9.12267016 158.41952515 9.12025452 C157.39403201 9.12153615 157.39403201 9.12153615 156.34782183 9.12284368 C154.04614533 9.12449701 151.74454094 9.11897952 149.44287109 9.11352539 C147.79727683 9.11324346 146.15168244 9.11340137 144.50608826 9.1139679 C140.0290658 9.11425565 135.55206995 9.10836253 131.07505369 9.10139394 C126.39986015 9.09515668 121.72466605 9.0945563 117.04946899 9.09336853 C108.19199627 9.09025632 99.33453584 9.0820444 90.47706854 9.07201904 C80.39499075 9.0608545 70.31291238 9.05534659 60.23082995 9.05032361 C39.4872131 9.03986171 18.74360732 9.02226438 -2 9 C-3 6 -3 6 -1.5625 2.8125 C-1.046875 1.884375 -0.53125 0.95625 0 0 Z " fill="#5C5C5C" transform="translate(447,497)"/>
<path d="M0 0 C1 3 1 3 -0.29296875 5.96875 C-0.9165911 7.1500314 -1.54862793 8.32689598 -2.1875 9.5 C-4.91316193 14.69852443 -7.12531329 19.83281075 -9.03125 25.39453125 C-10.66008275 29.77530321 -12.83356366 33.86608575 -15 38 C-15.48726563 39.10794922 -15.48726563 39.10794922 -15.984375 40.23828125 C-17 42 -17 42 -19.625 42.75 C-20.40875 42.8325 -21.1925 42.915 -22 43 C-23.43720433 38.41785442 -22.48179432 36.09896693 -20.375 31.875 C-19.81554687 30.72773438 -19.25609375 29.58046875 -18.6796875 28.3984375 C-18.12539062 27.27695312 -17.57109375 26.15546875 -17 25 C-16.15832136 23.17048295 -15.32439234 21.33737117 -14.5 19.5 C-11.69720092 13.3192346 -8.84954418 7.15932401 -6 1 C-5.67 1.66 -5.34 2.32 -5 3 C-5.33 3.66 -5.66 4.32 -6 5 C-4.05000871 4.80528889 -4.05000871 4.80528889 -2 4 C-0.71563266 2.0162233 -0.71563266 2.0162233 0 0 Z " fill="#929292" transform="translate(90,463)"/>
<path d="M0 0 C3.44313862 2.97361972 4.73443618 6.19413297 5.39208984 10.66625977 C6.03013912 20.41780635 6.37793896 30.16927592 6.625 39.9375 C6.64712555 40.79828156 6.6692511 41.65906311 6.69204712 42.54592896 C7.15394141 61.21222395 6.72949318 79.50304624 4 98 C3.67 98 3.34 98 3 98 C2.97222486 96.66679321 2.95326659 95.33340287 2.9375 94 C2.92589844 93.2575 2.91429687 92.515 2.90234375 91.75 C3.00432208 88.87829036 3.36700074 86.08099128 3.74389648 83.234375 C4.20988777 79.16883427 4.37106204 75.08610195 4.5625 71 C4.62727539 69.69482422 4.62727539 69.69482422 4.69335938 68.36328125 C4.79824218 66.24231781 4.89950075 64.12117567 5 62 C4.40324463 62.13712402 3.80648926 62.27424805 3.19165039 62.41552734 C2.39750732 62.5955127 1.60336426 62.77549805 0.78515625 62.9609375 C0.00277588 63.13931152 -0.77960449 63.31768555 -1.58569336 63.50146484 C-5.0423134 64.21522944 -8.4922962 64.6173414 -12 65 C-11.34 64.34 -10.68 63.68 -10 63 C-9.01 63 -8.02 63 -7 63 C-6.67 62.01 -6.34 61.02 -6 60 C-12.57497164 60.5527631 -18.96393125 61.48554021 -25.43359375 62.79296875 C-28 63 -28 63 -31 61 C-24.73515139 59.51342575 -18.48279297 58.40588272 -12.11328125 57.46484375 C-10.10409994 57.16485307 -8.10011931 56.82633881 -6.10546875 56.44140625 C-2.34884625 55.90744607 1.20733374 55.9346092 5 56 C4.904781 51.57463903 4.79837422 47.14971368 4.68261719 42.72485352 C4.64488397 41.22687694 4.60994687 39.7288267 4.578125 38.23071289 C4.41631864 20.23725887 4.41631864 20.23725887 0 3 C0 2.01 0 1.02 0 0 Z " fill="#767676" transform="translate(1143,337)"/>
<path d="M0 0 C-0.36120614 7.46492693 -2.40983591 12.50667852 -6 19 C-6.53625 20.093125 -7.0725 21.18625 -7.625 22.3125 C-9.45277383 25.88496703 -11.15130858 29.15130858 -14 32 C-14.99 31.67 -15.98 31.34 -17 31 C-15.96947511 25.26431542 -14.40410455 20.21317109 -11.90234375 14.9453125 C-10.89124408 12.86094566 -10.89124408 12.86094566 -10 10 C-9.01 9.319375 -9.01 9.319375 -8 8.625 C-5.44857508 6.55196725 -5.56498695 5.14778441 -5 2 C-2 0 -2 0 0 0 Z " fill="#8E8E8E" transform="translate(101,437)"/>
<path d="M0 0 C-1.98 0.99 -3.96 1.98 -6 3 C-5.67 3.66 -5.34 4.32 -5 5 C2.59 5.33 10.18 5.66 18 6 C18 6.33 18 6.66 18 7 C17.4016333 7.0093457 16.8032666 7.01869141 16.18676758 7.02832031 C0.7794301 7.33016386 -11.94033787 8.04805162 -25.07421875 16.92578125 C-25.70972656 17.28027344 -26.34523438 17.63476562 -27 18 C-27.66 17.67 -28.32 17.34 -29 17 C-26.36 15.02 -23.72 13.04 -21 11 C-22.44754255 9.55245745 -24.03962913 9.44266439 -26 9 C-8.16346154 -2.72115385 -8.16346154 -2.72115385 0 0 Z " fill="#999999" transform="translate(1100,311)"/>
<path d="M0 0 C0.33 1.32 0.66 2.64 1 4 C-1.93149794 5.64396762 -4.32358238 6.33474937 -7.66015625 6.66796875 C-8.9740332 6.80041992 -8.9740332 6.80041992 -10.31445312 6.93554688 C-11.22130859 7.01869141 -12.12816406 7.10183594 -13.0625 7.1875 C-13.97322266 7.28224609 -14.88394531 7.37699219 -15.82226562 7.47460938 C-22.61029464 8.12990179 -22.61029464 8.12990179 -26 7 C-25.8125 5.125 -25.8125 5.125 -25 3 C-17.51579031 -0.74210485 -8.19988104 -0.15769002 0 0 Z " fill="#CBCBCB" transform="translate(1011,311)"/>
<path d="M0 0 C1 3 1 3 0.109375 5.234375 C-0.33921875 6.06453125 -0.7878125 6.8946875 -1.25 7.75 C-3.36991913 11.77725583 -5.26319016 15.79509196 -7 20 C-7.33 19.34 -7.66 18.68 -8 18 C-7.67 17.01 -7.34 16.02 -7 15 C-8.65 15.66 -10.3 16.32 -12 17 C-11.87625 18.1446875 -11.87625 18.1446875 -11.75 19.3125 C-12 22 -12 22 -14 23.8125 C-14.66 24.204375 -15.32 24.59625 -16 25 C-14.33171015 19.53171661 -12.36114789 14.29992558 -10.0625 9.0625 C-9.57910156 7.96035156 -9.09570312 6.85820312 -8.59765625 5.72265625 C-6.93913823 2.89628201 -6.0448421 2.04563692 -3 1 C-2.67 1.66 -2.34 2.32 -2 3 C-1.34 2.01 -0.68 1.02 0 0 Z " fill="#B4B4B4" transform="translate(108,422)"/>
<path d="M0 0 C0 0.66 0 1.32 0 2 C-1.609375 3.11328125 -1.609375 3.11328125 -3.75 4.3125 C-7.32615977 6.43544997 -9.50473279 8.64098645 -12 12 C-12.66 12 -13.32 12 -14 12 C-14.33 12.99 -14.66 13.98 -15 15 C-17.60242414 16.64820195 -18.86248779 17 -22 17 C-21.6875 15.0625 -21.6875 15.0625 -21 13 C-20.01 12.67 -19.02 12.34 -18 12 C-17.773125 11.113125 -17.54625 10.22625 -17.3125 9.3125 C-15.44677105 4.60375551 -12.33575791 2.46606305 -8 0 C-2.85714286 -1.42857143 -2.85714286 -1.42857143 0 0 Z " fill="#9E9E9E" transform="translate(1080,321)"/>
<path d="M0 0 C-0.41393723 13.43445073 -0.98529593 26.69904112 -3 40 C-3.33 40 -3.66 40 -4 40 C-4.02777514 38.66679321 -4.04673341 37.33340287 -4.0625 36 C-4.07410156 35.2575 -4.08570313 34.515 -4.09765625 33.75 C-3.99567792 30.87829036 -3.63299926 28.08099128 -3.25610352 25.234375 C-2.79011223 21.16883427 -2.62893796 17.08610195 -2.4375 13 C-2.39431641 12.12988281 -2.35113281 11.25976562 -2.30664062 10.36328125 C-2.20175782 8.24231781 -2.10049925 6.12117567 -2 4 C-2.59675537 4.13712402 -3.19351074 4.27424805 -3.80834961 4.41552734 C-4.60249268 4.5955127 -5.39663574 4.77549805 -6.21484375 4.9609375 C-7.38841431 5.22849854 -7.38841431 5.22849854 -8.58569336 5.50146484 C-12.0423134 6.21522944 -15.4922962 6.6173414 -19 7 C-18.34 6.34 -17.68 5.68 -17 5 C-16.01 5 -15.02 5 -14 5 C-13.690625 4.360625 -13.38125 3.72125 -13.0625 3.0625 C-12 1 -12 1 -11 0 C-9.52887696 -0.25910191 -8.04698431 -0.45873776 -6.5625 -0.625 C-5.75941406 -0.72039062 -4.95632813 -0.81578125 -4.12890625 -0.9140625 C-2 -1 -2 -1 0 0 Z " fill="#9F9F9F" transform="translate(1150,395)"/>
<path d="M0 0 C0.33 0.66 0.66 1.32 1 2 C2.32 1.67 3.64 1.34 5 1 C4.40974725 5.74611393 3.46391316 10.16240608 2.125 14.75 C-0.39338508 23.69719836 -1.69435821 32.81105133 -3 42 C-3.33 42 -3.66 42 -4 42 C-4.13456087 35.61156258 -3.70348139 29.61562834 -2.6875 23.3125 C-2.56955078 22.49716797 -2.45160156 21.68183594 -2.33007812 20.84179688 C-1.57611841 16.05898575 -0.45300138 12.25324329 2 8 C0.01508358 8.26676204 0.01508358 8.26676204 -2 9 C-2.33 9.99 -2.66 10.98 -3 12 C-2.49202991 7.6822542 -1.80317221 3.96697886 0 0 Z " fill="#6A6A6A" transform="translate(946,353)"/>
<path d="M0 0 C1 3 1 3 -0.43359375 6.35546875 C-1.09148807 7.6380304 -1.75989743 8.91524057 -2.4375 10.1875 C-2.77587891 10.84169922 -3.11425781 11.49589844 -3.46289062 12.16992188 C-4.29969098 13.78459299 -5.14869746 15.39292763 -6 17 C-6.33 17 -6.66 17 -7 17 C-7 15.02 -7 13.04 -7 11 C-9.9540719 15.26577569 -9.9540719 15.26577569 -12 20 C-12.66 20 -13.32 20 -14 20 C-12.60121198 15.53202662 -10.86369228 11.36177921 -8.875 7.125 C-8.33617188 5.97257812 -7.79734375 4.82015625 -7.2421875 3.6328125 C-6.83226563 2.76398438 -6.42234375 1.89515625 -6 1 C-5.67 1.66 -5.34 2.32 -5 3 C-5.33 3.66 -5.66 4.32 -6 5 C-4.05000871 4.80528889 -4.05000871 4.80528889 -2 4 C-0.71563266 2.0162233 -0.71563266 2.0162233 0 0 Z " fill="#868686" transform="translate(90,463)"/>
<path d="M0 0 C0.33 0 0.66 0 1 0 C1 2.31 1 4.62 1 7 C2.65 7 4.3 7 6 7 C6.99250545 12.70690634 7.10477512 18.21408489 7 24 C6.67 24 6.34 24 6 24 C5.34 20.7 4.68 17.4 4 14 C2.68 17.63 1.36 21.26 0 25 C-0.33 25 -0.66 25 -1 25 C-0.35812082 19.86496656 0.68272247 15.0056546 2 10 C0.68 10.33 -0.64 10.66 -2 11 C-1 3.57142857 -1 3.57142857 0 0 Z " fill="#767676" transform="translate(1145,435)"/>
<path d="M0 0 C0.33 0.66 0.66 1.32 1 2 C1.99 2 2.98 2 4 2 C3.41774746 6.80358345 1.72537179 10.06335186 -1 14 C-3.75 14.9375 -3.75 14.9375 -6 15 C-5.39644592 11.14974121 -4.23227397 8.13898841 -2.4375 4.6875 C-1.98246094 3.80449219 -1.52742187 2.92148437 -1.05859375 2.01171875 C-0.53458984 1.01591797 -0.53458984 1.01591797 0 0 Z " fill="#BEBEBE" transform="translate(953,340)"/>
<path d="M0 0 C-2.75185347 2.75185347 -5.73881201 2.96302252 -9.4375 3.625 C-10.16106689 3.75543701 -10.88463379 3.88587402 -11.63012695 4.02026367 C-22.10624761 5.80410161 -31.56553736 4.85796473 -42 3 C-42 2.67 -42 2.34 -42 2 C-40.95042114 2.01571045 -40.95042114 2.01571045 -39.87963867 2.03173828 C-36.64896368 2.07381615 -33.41834666 2.09948852 -30.1875 2.125 C-29.08728516 2.14175781 -27.98707031 2.15851563 -26.85351562 2.17578125 C-20.47199441 2.21343034 -14.54966452 1.77624135 -8.30273438 0.4453125 C-5.50774367 -0.09519461 -2.83846236 -0.1534304 0 0 Z " fill="#676767" transform="translate(1101,501)"/>
<path d="M0 0 C0.66 0.66 1.32 1.32 2 2 C4.60280568 1.67958603 4.60280568 1.67958603 7 1 C3.04535398 11.34292035 3.04535398 11.34292035 -0.1875 13.375 C-0.785625 13.58125 -1.38375 13.7875 -2 14 C-3.25127906 10.45332822 -2.72285053 8.27746562 -1.5625 4.75 C-1.27503906 3.85796875 -0.98757812 2.9659375 -0.69140625 2.046875 C-0.46324219 1.37140625 -0.23507813 0.6959375 0 0 Z " fill="#B6B6B6" transform="translate(116,393)"/>
<path d="M0 0 C0.66 1.32 1.32 2.64 2 4 C1.01 4.33 0.02 4.66 -1 5 C-1.85433077 10.87352404 -2.1095004 16.63713272 -2.125 22.5625 C-2.12951172 23.27011475 -2.13402344 23.97772949 -2.13867188 24.70678711 C-2.12522162 29.54944047 -1.67961457 34.20494167 -1 39 C-6.14785212 31.27822181 -5.75578867 19.73121838 -4.1875 10.875 C-3.33400311 6.89610801 -2.05152924 3.5435505 0 0 Z " fill="#929292" transform="translate(1033,441)"/>
<path d="M0 0 C1.75510139 3.51020279 0.94742833 7.28710518 0 11 C-2.375 14.0625 -2.375 14.0625 -5 16 C-5.99 16 -6.98 16 -8 16 C-7.67 14.02 -7.34 12.04 -7 10 C-6.34 10 -5.68 10 -5 10 C-4.896875 9.443125 -4.79375 8.88625 -4.6875 8.3125 C-3.7672748 5.21719704 -2.30606867 2.30606867 0 0 Z " fill="#DDDDDD" transform="translate(83,473)"/>
<path d="M0 0 C0.66 0.33 1.32 0.66 2 1 C1.34 1.66 0.68 2.32 0 3 C2.31 3 4.62 3 7 3 C1.71415928 8.40039455 -4.17617442 13.1953439 -10 18 C-8.44499019 14.18315774 -5.96404505 11.80804268 -3 9 C-3.33 8.01 -3.66 7.02 -4 6 C-4.99 6 -5.98 6 -7 6 C-4.69 4.02 -2.38 2.04 0 0 Z " fill="#747474" transform="translate(970,321)"/>
<path d="M0 0 C1.27875 0.103125 2.5575 0.20625 3.875 0.3125 C4.95394531 0.39951172 4.95394531 0.39951172 6.0546875 0.48828125 C8 1 8 1 10 4 C11.32 4 12.64 4 14 4 C14.33 5.32 14.66 6.64 15 8 C15.86625 7.938125 16.7325 7.87625 17.625 7.8125 C21.44199033 8.02455502 23.71077536 9.12044307 27 11 C27 11.33 27 11.66 27 12 C17.1168426 11.32614836 8.03135947 6.56017194 0 1 C0 0.67 0 0.34 0 0 Z " fill="#8B8B8B" transform="translate(687,489)"/>
<path d="M0 0 C-0.875 5.75 -0.875 5.75 -2 8 C-2.66 8 -3.32 8 -4 8 C-4 8.66 -4 9.32 -4 10 C-5.32 9.67 -6.64 9.34 -8 9 C-7.67 7.02 -7.34 5.04 -7 3 C-6.34 3 -5.68 3 -5 3 C-5 2.34 -5 1.68 -5 1 C-3 0 -3 0 0 0 Z " fill="#A6A6A6" transform="translate(1055,346)"/>
<path d="M0 0 C-0.65419099 5.06998019 -2.8546409 9.41990777 -5 14 C-6.32 14 -7.64 14 -9 14 C-8.25 9.25 -8.25 9.25 -6 7 C-5.855625 6.175 -5.71125 5.35 -5.5625 4.5 C-4.82629919 1.22799638 -3.4376005 0 0 0 Z " fill="#F1F1F1" transform="translate(101,437)"/>
<path d="M0 0 C3.11019741 1.55509871 3.69411606 3.85400688 5 7 C5.04080783 8.99958364 5.04254356 11.00045254 5 13 C5.350625 13.845625 5.70125 14.69125 6.0625 15.5625 C7.18299353 18.47578317 6.84427369 20.04504207 6 23 C5.34 23 4.68 23 4 23 C3.87882813 22.04738281 3.75765625 21.09476562 3.6328125 20.11328125 C3.46523438 18.85902344 3.29765625 17.60476563 3.125 16.3125 C2.96257813 15.07113281 2.80015625 13.82976562 2.6328125 12.55078125 C2.0719705 9.40383447 1.19039347 6.93597044 0 4 C0 2.68 0 1.36 0 0 Z " fill="#8E8E8E" transform="translate(766,337)"/>
<path d="M0 0 C0.66 0 1.32 0 2 0 C1.6875 1.9375 1.6875 1.9375 1 4 C0.01 4.33 -0.98 4.66 -2 5 C-2.33 5.99 -2.66 6.98 -3 8 C-1.35 7.34 0.3 6.68 2 6 C0.70700306 8.88437779 -0.65941363 10.87219421 -3 13 C-2.67 11.68 -2.34 10.36 -2 9 C-3.32 9.33 -4.64 9.66 -6 10 C-6 10.66 -6 11.32 -6 12 C-6.66 12 -7.32 12 -8 12 C-6.7580393 8.56072421 -5.44259716 5.74792181 -3 3 C-2.34 3 -1.68 3 -1 3 C-0.67 2.01 -0.34 1.02 0 0 Z " fill="#727272" transform="translate(1061,330)"/>
<path d="M0 0 C0.66 0 1.32 0 2 0 C2.13277344 0.63808594 2.26554688 1.27617187 2.40234375 1.93359375 C2.57894531 2.75988281 2.75554688 3.58617187 2.9375 4.4375 C3.19853516 5.67306641 3.19853516 5.67306641 3.46484375 6.93359375 C3.80752994 8.97661204 3.80752994 8.97661204 5 10 C5.23363881 11.84891946 5.41303635 13.70488031 5.5625 15.5625 C5.64628906 16.57441406 5.73007812 17.58632813 5.81640625 18.62890625 C5.90728516 19.80259766 5.90728516 19.80259766 6 21 C4 20 4 20 2.9296875 16.796875 C2.56967141 15.45014816 2.21848421 14.10103789 1.875 12.75 C1.69324219 12.08097656 1.51148438 11.41195313 1.32421875 10.72265625 C0.37081429 7.07391286 -0.21929409 3.77185836 0 0 Z " fill="#868686" transform="translate(640,417)"/>
<path d="M0 0 C0 0.33 0 0.66 0 1 C-3.93411324 1.7280939 -7.87258227 2.42906012 -11.8125 3.125 C-12.93205078 3.33253906 -14.05160156 3.54007812 -15.20507812 3.75390625 C-16.27822266 3.94082031 -17.35136719 4.12773437 -18.45703125 4.3203125 C-19.44678955 4.49836426 -20.43654785 4.67641602 -21.45629883 4.85986328 C-24 5 -24 5 -27 3 C-17.97561862 0.81668192 -9.28216471 -0.17189194 0 0 Z " fill="#8C8C8C" transform="translate(1139,395)"/>
<path d="M0 0 C0.33 0 0.66 0 1 0 C1.02701408 2.10409639 1.04640223 4.20829178 1.0625 6.3125 C1.07410156 7.48425781 1.08570313 8.65601563 1.09765625 9.86328125 C1 13 1 13 0 16 C-0.22325814 18.05893621 -0.40705759 20.12233653 -0.5625 22.1875 C-0.64628906 23.27417969 -0.73007812 24.36085938 -0.81640625 25.48046875 C-0.87699219 26.31191406 -0.93757812 27.14335937 -1 28 C-1.33 28 -1.66 28 -2 28 C-2.21867122 18.42706002 -1.99888809 9.42332955 0 0 Z " fill="#898989" transform="translate(641,384)"/>
<path d="M0 0 C-0.4794463 4.21912747 -1.16625119 6.79663178 -4 10 C-4.66 9.34 -5.32 8.68 -6 8 C-6.99 8.495 -6.99 8.495 -8 9 C-6.53333333 3.5 -6.53333333 3.5 -4 1.125 C-2 0 -2 0 0 0 Z " fill="#CACACA" transform="translate(110,416)"/>
<path d="M0 0 C1.258125 -0.04125 2.51625 -0.0825 3.8125 -0.125 C4.52019531 -0.14820313 5.22789062 -0.17140625 5.95703125 -0.1953125 C8 0 8 0 11 2 C12.423125 2.4021875 12.423125 2.4021875 13.875 2.8125 C17.54658667 4.20770294 19.40544528 6.10020355 22 9 C18.40069862 9 17.33471395 8.08874672 14.375 6.125 C9.57982263 3.13506588 5.55483252 1.89594073 0 1 C0 0.67 0 0.34 0 0 Z " fill="#7B7B7B" transform="translate(163,380)"/>
<path d="M0 0 C0.66 0 1.32 0 2 0 C1.54917531 1.46067199 1.08906463 2.91848032 0.625 4.375 C0.36976562 5.18710937 0.11453125 5.99921875 -0.1484375 6.8359375 C-1 9 -1 9 -3 11 C-3.99 10.67 -4.98 10.34 -6 10 C-4.63312778 6.01328937 -2.84804907 3.11505367 0 0 Z " fill="#EEEEEE" transform="translate(90,458)"/>
<path d="M0 0 C0.33 1.32 0.66 2.64 1 4 C0.67 3.34 0.34 2.68 0 2 C-0.99 2.33 -1.98 2.66 -3 3 C-4.55421729 3.08106686 -6.11167027 3.10756898 -7.66796875 3.09765625 C-8.56064453 3.09443359 -9.45332031 3.09121094 -10.37304688 3.08789062 C-11.76620117 3.07532227 -11.76620117 3.07532227 -13.1875 3.0625 C-14.12787109 3.05798828 -15.06824219 3.05347656 -16.03710938 3.04882812 C-18.35813712 3.03704626 -20.67903644 3.02059558 -23 3 C-19.69706753 0.79804502 -18.19462223 0.64341818 -14.3125 0.375 C-12.72115234 0.26478516 -12.72115234 0.26478516 -11.09765625 0.15234375 C-7.38648766 -0.03017274 -3.71451316 -0.07143295 0 0 Z " fill="#7C7C7C" transform="translate(1011,311)"/>
<path d="M0 0 C1 3 1 3 0.109375 5.234375 C-0.33921875 6.06453125 -0.7878125 6.8946875 -1.25 7.75 C-3.36991913 11.77725583 -5.26319016 15.79509196 -7 20 C-8.28300777 17.43398445 -7.85098078 16.33520676 -7.25 13.5625 C-7.09015625 12.78003906 -6.9303125 11.99757813 -6.765625 11.19140625 C-5.9058079 8.73039913 -4.88828893 7.74823681 -3 6 C-1.95377125 4.02379014 -0.94560065 2.0262871 0 0 Z " fill="#606060" transform="translate(108,422)"/>
<path d="M0 0 C3 1 3 1 4.6875 3.3125 C6 6 6 6 6 10 C5.34 10 4.68 10 4 10 C4 8.35 4 6.7 4 5 C0.39007621 5.65585189 0.39007621 5.65585189 -3 7 C-1.125 1.125 -1.125 1.125 0 0 Z " fill="#7C7C7C" transform="translate(188,237)"/>
<path d="M0 0 C1.32 0.66 2.64 1.32 4 2 C3.6875 4.375 3.6875 4.375 3 7 C0 9 0 9 -3 9 C-2.01 6.03 -1.02 3.06 0 0 Z " fill="#D1D1D1" transform="translate(1144,443)"/>
<path d="M0 0 C0.33 0.66 0.66 1.32 1 2 C0.07421875 3.953125 0.07421875 3.953125 -1.3125 6.25 C-2.95442012 9.05118789 -4.09532754 11.30841262 -5.0625 14.4375 C-6 17 -6 17 -8.125 18.375 C-8.74375 18.58125 -9.3625 18.7875 -10 19 C-7.60642612 12.25447361 -3.72673602 6.08046404 0 0 Z " fill="#717171" transform="translate(527,353)"/>
<path d="M0 0 C1.258125 -0.04125 2.51625 -0.0825 3.8125 -0.125 C4.52019531 -0.14820313 5.22789062 -0.17140625 5.95703125 -0.1953125 C8 0 8 0 11 2 C14.43307165 2.24270825 14.43307165 2.24270825 18.1875 2.125 C19.45980469 2.10695313 20.73210937 2.08890625 22.04296875 2.0703125 C23.01878906 2.04710937 23.99460937 2.02390625 25 2 C19.8034067 5.46439553 13.27922373 4.45583535 7.24609375 3.6171875 C4.8125 3.125 4.8125 3.125 1 2 C0.67 1.34 0.34 0.68 0 0 Z " fill="#575757" transform="translate(360,283)"/>
<path d="M0 0 C0.99 0 1.98 0 3 0 C2.75 2.375 2.75 2.375 2 5 C-0.56310828 6.7941758 -1.83119306 7 -5 7 C-4.6875 5.0625 -4.6875 5.0625 -4 3 C-3.01 2.67 -2.02 2.34 -1 2 C-0.67 1.34 -0.34 0.68 0 0 Z " fill="#D7D7D7" transform="translate(1063,331)"/>
<path d="M0 0 C0 0.66 0 1.32 0 2 C-2.97 3.65 -5.94 5.3 -9 7 C-9 3.4404523 -8.38420461 2.55450494 -6 0 C-3.37169607 -1.03539246 -2.55664546 -1.27832273 0 0 Z " fill="#EDEDED" transform="translate(1080,321)"/>
<path d="M0 0 C0.33 0.66 0.66 1.32 1 2 C1.99 2 2.98 2 4 2 C3.625 4.4375 3.625 4.4375 3 7 C2.01 7.495 2.01 7.495 1 8 C0.67 7.34 0.34 6.68 0 6 C-0.99 6.33 -1.98 6.66 -3 7 C-1.125 1.125 -1.125 1.125 0 0 Z " fill="#989898" transform="translate(953,340)"/>
<path d="M0 0 C-2.47879959 1.65253306 -4.31730933 2.58244128 -7.0625 3.5625 C-9.11594912 4.30051803 -11.04701371 5.02350686 -13 6 C-14.67654729 5.72057545 -16.34608154 5.39171753 -18 5 C-13.61274907 0.61274907 -6.00012433 -0.47369403 0 0 Z " fill="#727272" transform="translate(1099,402)"/>
<path d="M0 0 C0.95787834 3.05077691 1.07626949 3.80085189 -0.125 6.9375 C-2.08524296 10.13923018 -4.24383186 12.46730495 -7 15 C-5.45454854 9.52067211 -2.84456788 4.88570819 0 0 Z " fill="#838383" transform="translate(516,372)"/>
<path d="M0 0 C-2.69976753 2.69976753 -4.75087956 2.6024456 -8.5 3.125 C-9.6653125 3.29257812 -10.830625 3.46015625 -12.03125 3.6328125 C-15 4 -15 4 -17 4 C-17 3.34 -17 2.68 -17 2 C-5.47835991 -0.29612756 -5.47835991 -0.29612756 0 0 Z " fill="#7C7C7C" transform="translate(1101,501)"/>
<path d="M0 0 C3.2531655 3.74114033 5.44374911 8.31315138 7 13 C6.67 13.66 6.34 14.32 6 15 C5.0234375 13.20963542 4.046875 11.41927083 3.0703125 9.62890625 C2.08589976 7.83381685 2.08589976 7.83381685 0 7 C0 4.69 0 2.38 0 0 Z " fill="#7B7B7B" transform="translate(228,319)"/>
<path d="M0 0 C0 3 0 3 -2 6 C-2 6.99 -2 7.98 -2 9 C-2.66 9 -3.32 9 -4 9 C-4.33 9.66 -4.66 10.32 -5 11 C-5.66 10.67 -6.32 10.34 -7 10 C-5.33248852 6.05860922 -2.77289351 3.2107188 0 0 Z " fill="#9C9C9C" transform="translate(664,341)"/>
<path d="M0 0 C1.32 0.33 2.64 0.66 4 1 C4.33 2.32 4.66 3.64 5 5 C5.99 5 6.98 5 8 5 C8.33 7.31 8.66 9.62 9 12 C6.72494996 9.83328568 4.76424908 7.60436769 3 5 C3 4.34 3 3.68 3 3 C2.01 2.67 1.02 2.34 0 2 C0 1.34 0 0.68 0 0 Z " fill="#7D7D7D" transform="translate(1134,324)"/>
<path d="M0 0 C0.99 0 1.98 0 3 0 C2.67 1.65 2.34 3.3 2 5 C1.360625 5.103125 0.72125 5.20625 0.0625 5.3125 C-0.618125 5.539375 -1.29875 5.76625 -2 6 C-2.33 6.99 -2.66 7.98 -3 9 C-2.25 2.25 -2.25 2.25 0 0 Z " fill="#B7B7B7" transform="translate(946,356)"/>
<path d="M0 0 C0.66 0.33 1.32 0.66 2 1 C1.6875 2.875 1.6875 2.875 1 5 C0.01 5.66 -0.98 6.32 -2 7 C-2.66 6.67 -3.32 6.34 -4 6 C-3.6875 4.125 -3.6875 4.125 -3 2 C-2.01 1.34 -1.02 0.68 0 0 Z " fill="#F2F2F2" transform="translate(966,326)"/>
<path d="M0 0 C-1.45804169 0.81302325 -2.91644315 1.62540131 -4.375 2.4375 C-5.18710937 2.88996094 -5.99921875 3.34242188 -6.8359375 3.80859375 C-8.20996622 4.5650536 -9.59709261 5.29854631 -11 6 C-11.66 5.34 -12.32 4.68 -13 4 C-11.59248779 3.13083113 -10.1735479 2.28014851 -8.75 1.4375 C-7.96109375 0.96183594 -7.1721875 0.48617188 -6.359375 -0.00390625 C-3.69155375 -1.13022151 -2.65498232 -1.0169313 0 0 Z " fill="#747474" transform="translate(985,316)"/>
<path d="M0 0 C-0.33 0.99 -0.66 1.98 -1 3 C-0.01 3 0.98 3 2 3 C2.33 3.99 2.66 4.98 3 6 C-0.93673644 4.68775452 -3.22719294 3.08089673 -6 0 C-3 -1 -3 -1 0 0 Z " fill="#8B8B8B" transform="translate(904,492)"/>
<path d="M0 0 C0.57234375 0.21527344 1.1446875 0.43054688 1.734375 0.65234375 C0.49493224 1.52175869 -0.75769559 2.37239832 -2.015625 3.21484375 C-2.71171875 3.69050781 -3.4078125 4.16617187 -4.125 4.65625 C-6.265625 5.65234375 -6.265625 5.65234375 -8.53125 5.3046875 C-9.10359375 5.08941406 -9.6759375 4.87414062 -10.265625 4.65234375 C-9.02618224 3.78292881 -7.77355441 2.93228918 -6.515625 2.08984375 C-5.81953125 1.61417969 -5.1234375 1.13851563 -4.40625 0.6484375 C-2.265625 -0.34765625 -2.265625 -0.34765625 0 0 Z " fill="#6E6E6E" transform="translate(1084.265625,315.34765625)"/>
<path d="M0 0 C0.66 0.33 1.32 0.66 2 1 C-1.42388092 4.82669043 -4.00724943 6.72278474 -9 8 C-9 7.34 -9 6.68 -9 6 C-7.03125 4.4921875 -7.03125 4.4921875 -4.5 2.875 C-3.6646875 2.33617187 -2.829375 1.79734375 -1.96875 1.2421875 C-1.3190625 0.83226562 -0.669375 0.42234375 0 0 Z " fill="#7E7E7E" transform="translate(358,219)"/>
<path d="M0 0 C1.58560393 0.25720674 3.16845924 0.53138799 4.75 0.8125 C5.63171875 0.96332031 6.5134375 1.11414063 7.421875 1.26953125 C10.1910911 2.05414248 11.8259401 3.14595359 14 5 C8.72250715 4.46148032 4.74354436 3.22656164 0 1 C0 0.67 0 0.34 0 0 Z " fill="#585858" transform="translate(700,496)"/>
<path d="M0 0 C0.66 0.33 1.32 0.66 2 1 C-1.75 4 -1.75 4 -4 4 C-4 4.66 -4 5.32 -4 6 C-4.99 6 -5.98 6 -7 6 C-7.33 5.01 -7.66 4.02 -8 3 C-7.34 3 -6.68 3 -6 3 C-6 2.34 -6 1.68 -6 1 C-5.01 1.33 -4.02 1.66 -3 2 C-2.01 1.34 -1.02 0.68 0 0 Z " fill="#868686" transform="translate(801,483)"/>
<path d="M0 0 C0.33 0.66 0.66 1.32 1 2 C0.67 2.99 0.34 3.98 0 5 C0.66 5.33 1.32 5.66 2 6 C0.68 6.33 -0.64 6.66 -2 7 C-2 7.99 -2 8.98 -2 10 C-2.66 10 -3.32 10 -4 10 C-4.33 10.66 -4.66 11.32 -5 12 C-4.35550393 8.98782888 -3.34977818 6.48344164 -1.9375 3.75 C-1.57527344 3.04359375 -1.21304688 2.3371875 -0.83984375 1.609375 C-0.56269531 1.07828125 -0.28554687 0.5471875 0 0 Z " fill="#787878" transform="translate(122,381)"/>
<path d="M0 0 C2.72647685 2.35468455 3.98756342 4.5408417 5 8 C4.625 10.3125 4.625 10.3125 4 12 C4 11.34 4 10.68 4 10 C3.34 10 2.68 10 2 10 C0.68373308 6.38026598 0 3.90432869 0 0 Z " fill="#848484" transform="translate(406,231)"/>
<path d="M0 0 C1.5 1.3125 1.5 1.3125 3 3 C3 3.99 3 4.98 3 6 C3.66 6 4.32 6 5 6 C5 7.98 5 9.96 5 12 C1.94063363 8.24532309 0 4.91886939 0 0 Z " fill="#848484" transform="translate(347,460)"/>
<path d="M0 0 C0.66 1.32 1.32 2.64 2 4 C1.01 4.33 0.02 4.66 -1 5 C-1.12375 5.763125 -1.2475 6.52625 -1.375 7.3125 C-2 10 -2 10 -4 13 C-3.50269348 8.02693484 -2.44697666 4.36200187 0 0 Z " fill="#757575" transform="translate(1033,441)"/>
<path d="M0 0 C1 2 1 2 0.546875 3.91015625 C0.28390625 4.62042969 0.0209375 5.33070313 -0.25 6.0625 C-0.62898437 7.13177734 -0.62898437 7.13177734 -1.015625 8.22265625 C-2 10 -2 10 -5 11 C-3.77472971 6.94718288 -2.30119506 3.55639236 0 0 Z " fill="#7B7B7B" transform="translate(533,342)"/>
<path d="M0 0 C0.66 0.33 1.32 0.66 2 1 C1.67 2.32 1.34 3.64 1 5 C0.401875 5.103125 -0.19625 5.20625 -0.8125 5.3125 C-3.28243264 6.08876455 -4.32251235 7.07088921 -6 9 C-6.66 8.67 -7.32 8.34 -8 8 C-6.37660195 6.29115995 -4.70680947 4.62553283 -3 3 C-2.34 3 -1.68 3 -1 3 C-0.67 2.01 -0.34 1.02 0 0 Z " fill="#898989" transform="translate(675,330)"/>
<path d="M0 0 C2.58787727 2.58787727 2.62709152 4.42007861 3 8 C2.67 8.66 2.34 9.32 2 10 C1.34 10 0.68 10 0 10 C0 6.7 0 3.4 0 0 Z " fill="#B6B6B6" transform="translate(770,350)"/>
<path d="M0 0 C-0.375 2.4375 -0.375 2.4375 -1 5 C-1.99 5.495 -1.99 5.495 -3 6 C-3.99 5.67 -4.98 5.34 -6 5 C-6 4.34 -6 3.68 -6 3 C-2.53846154 0 -2.53846154 0 0 0 Z " fill="#C0C0C0" transform="translate(960,337)"/>
<path d="M0 0 C1.46015291 0.28241641 2.91809793 0.57626614 4.375 0.875 C5.18710938 1.03742188 5.99921875 1.19984375 6.8359375 1.3671875 C9 2 9 2 11 4 C7.37 3.67 3.74 3.34 0 3 C0 2.01 0 1.02 0 0 Z " fill="#909090" transform="translate(1158,311)"/>
<path d="M0 0 C-2.52956528 3.0916909 -5.22454612 3.90931332 -9 5 C-6.81610567 0.16423399 -5.20641855 -0.13701101 0 0 Z " fill="#828282" transform="translate(794,489)"/>
<path d="M0 0 C-1.01454452 2.5363613 -1.6853556 3.79351461 -4 5.3125 C-4.66 5.539375 -5.32 5.76625 -6 6 C-6.66 5.67 -7.32 5.34 -8 5 C-6.68 4.34 -5.36 3.68 -4 3 C-4 2.34 -4 1.68 -4 1 C-2 0 -2 0 0 0 Z " fill="#8F8F8F" transform="translate(1056,419)"/>
<path d="M0 0 C4.13333333 6.2 4.13333333 6.2 3.625 9.25 C3.41875 9.8275 3.2125 10.405 3 11 C2.01 10.34 1.02 9.68 0 9 C-0.29296875 6.8359375 -0.29296875 6.8359375 -0.1875 4.375 C-0.16042969 3.55773437 -0.13335938 2.74046875 -0.10546875 1.8984375 C-0.05326172 0.95871094 -0.05326172 0.95871094 0 0 Z " fill="#8F8F8F" transform="translate(833,366)"/>
<path d="M0 0 C1 3 1 3 0.22265625 4.82421875 C-0.8515625 6.54947917 -1.92578125 8.27473958 -3 10 C-3.33 10 -3.66 10 -4 10 C-4 8.02 -4 6.04 -4 4 C-3.01 3.67 -2.02 3.34 -1 3 C-0.67 2.01 -0.34 1.02 0 0 Z " fill="#878787" transform="translate(610,323)"/>
<path d="M0 0 C1.32 0.66 2.64 1.32 4 2 C0.535 4.97 0.535 4.97 -3 8 C-3.33 7.01 -3.66 6.02 -4 5 C-3.01 4.67 -2.02 4.34 -1 4 C-0.26676204 1.98491642 -0.26676204 1.98491642 0 0 Z " fill="#929292" transform="translate(126,386)"/>
<path d="M0 0 C1.32 0.33 2.64 0.66 4 1 C3.25 6.75 3.25 6.75 1 9 C0.67 6.03 0.34 3.06 0 0 Z " fill="#989898" transform="translate(713,332)"/>
<path d="M0 0 C1.5 1.375 1.5 1.375 3 3 C3 3.66 3 4.32 3 5 C2.360625 5.103125 1.72125 5.20625 1.0625 5.3125 C0.381875 5.539375 -0.29875 5.76625 -1 6 C-1.33 6.99 -1.66 7.98 -2 9 C-2.33 8.34 -2.66 7.68 -3 7 C-2.06421005 4.64018187 -1.06652192 2.30368736 0 0 Z " fill="#8F8F8F" transform="translate(156,306)"/>
<path d="M0 0 C0.33 0.99 0.66 1.98 1 3 C-0.41488448 5.76239351 -1.80363095 7.80363095 -4 10 C-3.67 7.03 -3.34 4.06 -3 1 C-2.01 1.33 -1.02 1.66 0 2 C0 1.34 0 0.68 0 0 Z " fill="#838383" transform="translate(553,425)"/>
<path d="M0 0 C-0.66 1.65 -1.32 3.3 -2 5 C-3.32 5 -4.64 5 -6 5 C-6 4.34 -6 3.68 -6 3 C-5.34 3 -4.68 3 -4 3 C-4 2.34 -4 1.68 -4 1 C-2 0 -2 0 0 0 Z " fill="#F0F0F0" transform="translate(1059,339)"/>
<path d="M0 0 C0.66 0.33 1.32 0.66 2 1 C1.67 2.32 1.34 3.64 1 5 C-0.32 5 -1.64 5 -3 5 C-1.125 1.125 -1.125 1.125 0 0 Z " fill="#F0F0F0" transform="translate(71,499)"/>
<path d="M0 0 C0.33 0.66 0.66 1.32 1 2 C0.67 2.99 0.34 3.98 0 5 C0.66 5.33 1.32 5.66 2 6 C0.02 6.99 -1.96 7.98 -4 9 C-2.80100302 5.9168649 -1.52299523 2.93720508 0 0 Z " fill="#858585" transform="translate(490,419)"/>
<path d="M0 0 C1.125 3.75 1.125 3.75 0 6 C-0.66 6 -1.32 6 -2 6 C-2 6.99 -2 7.98 -2 9 C-2.66 9 -3.32 9 -4 9 C-2.94124926 5.59687262 -1.99097846 2.98646769 0 0 Z " fill="#858585" transform="translate(503,396)"/>
<path d="M0 0 C0.33 0.66 0.66 1.32 1 2 C0.67 2.66 0.34 3.32 0 4 C0.66 4 1.32 4 2 4 C1.34 5.32 0.68 6.64 0 8 C-0.66 7.34 -1.32 6.68 -2 6 C-1.44444444 1.44444444 -1.44444444 1.44444444 0 0 Z " fill="#BBBBBB" transform="translate(962,328)"/>
<path d="M0 0 C0.99 0 1.98 0 3 0 C2 3 2 3 -0.9375 4.75 C-2.4534375 5.36875 -2.4534375 5.36875 -4 6 C-4.66 5.67 -5.32 5.34 -6 5 C-2.25 2 -2.25 2 0 2 C0 1.34 0 0.68 0 0 Z " fill="#616161" transform="translate(683,324)"/>
</svg>
