<?xml version="1.0" encoding="UTF-8"?>
<svg version="1.1" xmlns="http://www.w3.org/2000/svg" width="1280" height="323">
<path d="M0 0 C2.10100813 1.76513268 3.84226634 3.52559735 5.609375 5.6171875 C7.46697288 7.8011746 9.32616856 9.96123441 11.27734375 12.0625 C18.43793231 19.79094955 23.86573112 28.39309524 28.296875 37.9296875 C28.63460937 38.57808594 28.97234375 39.22648437 29.3203125 39.89453125 C32.33330938 45.97716028 33.50587817 52.23513552 34.68359375 58.8671875 C34.97507194 61.79271648 34.97507194 61.79271648 36.296875 62.9296875 C37.37643717 69.4374707 37.44749812 75.84454651 37.421875 82.4296875 C37.42574219 83.42355469 37.42960938 84.41742188 37.43359375 85.44140625 C37.42364379 92.97352859 37.33706223 99.92101161 34.296875 106.9296875 C33.81138048 108.83965494 33.35422684 110.75699344 32.921875 112.6796875 C30.60690422 122.10081235 26.39555641 129.73771866 21.296875 137.9296875 C20.82636719 138.72503906 20.35585938 139.52039063 19.87109375 140.33984375 C19.43410156 141.07074219 18.99710938 141.80164063 18.546875 142.5546875 C18.16015625 143.20695313 17.7734375 143.85921875 17.375 144.53125 C16.84132813 145.22347656 16.84132813 145.22347656 16.296875 145.9296875 C15.636875 145.9296875 14.976875 145.9296875 14.296875 145.9296875 C13.90048828 146.80173828 13.90048828 146.80173828 13.49609375 147.69140625 C11.39710823 151.60905675 8.28868472 154.67317034 5.296875 157.9296875 C4.79414062 158.49816406 4.29140625 159.06664062 3.7734375 159.65234375 C-13.0378367 177.700996 -39.80126768 190.68220893 -64.38061523 192.14916992 C-68.51164886 192.26996334 -72.63323332 192.31626414 -76.765625 192.3046875 C-77.49545593 192.30414368 -78.22528687 192.30359985 -78.97723389 192.30303955 C-90.32409221 192.26417299 -100.87622654 191.5200123 -111.703125 187.9296875 C-112.65445313 187.61620361 -112.65445313 187.61620361 -113.625 187.29638672 C-128.59687822 182.21827254 -141.85183066 174.31197718 -153.703125 163.9296875 C-154.62738281 163.22457031 -155.55164063 162.51945313 -156.50390625 161.79296875 C-157.22964844 161.17808594 -157.95539062 160.56320312 -158.703125 159.9296875 C-158.703125 159.2696875 -158.703125 158.6096875 -158.703125 157.9296875 C-159.693125 157.5996875 -160.683125 157.2696875 -161.703125 156.9296875 C-171.16347438 146.99265385 -177.86785295 135.24264687 -183.703125 122.9296875 C-184.26 121.8159375 -184.816875 120.7021875 -185.390625 119.5546875 C-187.0660416 114.92734642 -188.00432784 110.25241211 -188.95703125 105.4296875 C-189.62016112 101.96626743 -189.62016112 101.96626743 -190.76171875 98.875 C-197.14793589 76.93933484 -190.27604091 50.77973207 -179.69140625 31.43359375 C-179.03109725 30.26423735 -178.36848956 29.09617469 -177.703125 27.9296875 C-177.16042969 26.94871094 -176.61773438 25.96773437 -176.05859375 24.95703125 C-168.71289496 12.53547247 -158.01835369 2.69237492 -146.703125 -6.0703125 C-145.94128906 -6.68261719 -145.17945313 -7.29492188 -144.39453125 -7.92578125 C-99.32057273 -42.0632507 -42.12907345 -32.26648689 0 0 Z M-96.1796875 -13.1015625 C-105.96060928 -0.06033346 -107.59292216 16.33818709 -109.37768555 32.00292969 C-109.703125 33.9296875 -109.703125 33.9296875 -110.703125 34.9296875 C-113.89719003 60.63705557 -113.35550095 86.95416777 -111.765625 112.7421875 C-111.72223999 113.45284363 -111.67885498 114.16349976 -111.63415527 114.89569092 C-111.87329712 121.88625851 -111.87329712 121.88625851 -109.703125 127.9296875 C-109.46474103 129.53031928 -109.28275919 131.13942214 -109.125 132.75 C-106.37590839 158.80948597 -106.37590839 158.80948597 -92.390625 180.3671875 C-87.06388415 184.47905763 -81.42456764 186.26312937 -74.703125 185.9921875 C-66.86715569 184.8259037 -61.58170167 180.50289731 -56.890625 174.3046875 C-53.33340604 168.84152212 -51.52207121 163.14300375 -49.703125 156.9296875 C-49.16423791 155.51196118 -48.62276549 154.09521353 -48.078125 152.6796875 C-46.37194667 147.67242501 -45.89903635 142.48552989 -45.34912109 137.24902344 C-44.79423244 132.02079494 -44.79423244 132.02079494 -43.703125 130.9296875 C-39.26673362 100.57120975 -39.05808677 65.28083294 -43.703125 34.9296875 C-44.033125 34.5996875 -44.363125 34.2696875 -44.703125 33.9296875 C-45.12127641 30.09790004 -45.47165039 26.26792724 -45.77734375 22.42578125 C-46.31982967 16.55038291 -47.66995468 11.45372168 -49.703125 5.9296875 C-49.99574219 4.97320312 -50.28835938 4.01671875 -50.58984375 3.03125 C-53.71316476 -6.62819156 -58.89046664 -15.23528534 -67.94140625 -20.265625 C-78.04380092 -24.88002257 -88.99608582 -21.06085826 -96.1796875 -13.1015625 Z " fill="#000000" transform="translate(829.703125,131.0703125)"/>
<path d="M0 0 C2.25 -0.375 2.25 -0.375 5 0 C7.6574157 3.14058219 9.20690228 6.37591581 10.83984375 10.12890625 C12.96920479 14.96388943 15.22181989 19.7337051 17.5 24.5 C20.11107725 29.9627657 22.66773808 35.43909471 25.09399414 40.98681641 C25.99049484 42.97887913 26.9472774 44.92806352 27.9375 46.875 C30.45549304 51.84213471 32.71542636 56.92239577 35 62 C36.6614564 65.66904956 38.32993686 69.33486143 40 73 C40.45117188 73.99644531 40.90234375 74.99289063 41.3671875 76.01953125 C44.44932812 82.77525028 47.69337246 89.4295908 51.03833008 96.05737305 C53.62468548 101.19987374 56.04715261 106.40425642 58.4296875 111.64453125 C60.24986404 115.53391345 62.18193608 119.35852111 64.125 123.1875 C66.26077732 127.40368264 68.31982569 131.57653224 70 136 C71.88656235 140.94607432 74.25844396 145.61813469 76.6496582 150.33276367 C83.50824739 163.88488318 89.96445163 177.65253162 96.125 191.53515625 C98.9595465 197.86626505 101.99873506 204.0742618 105.14575195 210.25463867 C111 221.81109518 111 221.81109518 111 226 C111.66 226 112.32 226 113 226 C113.38478516 226.86044922 113.38478516 226.86044922 113.77734375 227.73828125 C116.99292731 234.87319561 120.32865111 241.94699562 123.70092773 249.0090332 C124.80880838 251.33560681 125.90730817 253.66625623 127 256 C127.38526855 256.81952148 127.77053711 257.63904297 128.16748047 258.48339844 C128.53373535 259.28036133 128.89999023 260.07732422 129.27734375 260.8984375 C129.60855225 261.61435059 129.93976074 262.33026367 130.28100586 263.06787109 C131 265 131 265 131 268 C131.66 268 132.32 268 133 268 C133.1959375 268.53625 133.391875 269.0725 133.59375 269.625 C136.06741161 276.10769939 139.05204971 282.2381842 142.26953125 288.37695312 C144.09105581 291.91224029 145.48169644 295.00055312 146 299 C112.93294931 299.89160327 83.44547671 290.74635454 58 269 C57.23558594 268.37351562 56.47117188 267.74703125 55.68359375 267.1015625 C51.02203743 263.1918701 46.61425781 258.91313171 43 254 C43 253.34 43 252.68 43 252 C42.34 252 41.68 252 41 252 C30.24086069 238.96702196 21.06845125 221.74625416 15.2265625 205.90234375 C9.10070898 189.51990063 1.55113821 172.92592042 -14.86181641 165.18432617 C-27.11442742 159.72939661 -39.31640745 159.50476101 -52 164 C-56.83350793 166.20378331 -61.40944892 168.40660865 -65.1875 172.19140625 C-67 174 -67 174 -69 174 C-69.2475 174.86625 -69.495 175.7325 -69.75 176.625 C-71.07916087 180.21373436 -72.88101304 182.82151956 -75 186 C-77.73563098 191.5019994 -79.90219852 197.23104593 -82 203 C-82.66 203 -83.32 203 -84 203 C-84.0825 203.639375 -84.165 204.27875 -84.25 204.9375 C-85.29744918 209.21458416 -87.1538884 213.01422548 -89 217 C-91.10018916 221.63014677 -93.12921442 226.27188175 -95 231 C-97.70030721 237.81405646 -100.68655904 244.43637624 -104 250.97265625 C-105.41970471 253.85088572 -106.71169521 256.77980469 -108 259.71875 C-108.98484034 261.96541703 -109.99205574 264.20112366 -111 266.4375 C-112.41780677 269.61648862 -113.73125734 272.82125899 -115 276.0625 C-116.76388519 280.51682485 -118.80222021 284.74725643 -121 289 C-121.91877213 290.83227909 -122.83539499 292.66563728 -123.75 294.5 C-124.5 296 -125.25 297.5 -126 299 C-128.31 299 -130.62 299 -133 299 C-132.22889229 287.69042023 -125.72352365 277.09979554 -121 267 C-119.89395983 264.62587191 -118.78974528 262.25089233 -117.6875 259.875 C-117.19636719 258.82054687 -116.70523438 257.76609375 -116.19921875 256.6796875 C-114.93944029 253.98311889 -114.93944029 253.98311889 -114 251 C-113.34 251 -112.68 251 -112 251 C-111.90203125 250.443125 -111.8040625 249.88625 -111.703125 249.3125 C-111.55359375 248.549375 -111.4040625 247.78625 -111.25 247 C-111.04117188 245.88625 -111.04117188 245.88625 -110.828125 244.75 C-109.89547161 241.65288685 -108.5454693 238.99897679 -107.06542969 236.13232422 C-105.34548647 232.69007307 -103.93421079 229.13098203 -102.5 225.5625 C-101.88885269 224.06216088 -101.27688184 222.56215695 -100.6640625 221.0625 C-100.37563477 220.35609375 -100.08720703 219.6496875 -99.79003906 218.921875 C-97.29580219 212.85431238 -94.50905341 206.9813394 -91.55078125 201.12890625 C-86.55723791 191.05377221 -81.79399475 180.85367907 -77.17578125 170.6015625 C-75.30293501 166.45765687 -73.38593092 162.33420452 -71.4765625 158.20703125 C-70.09517774 155.20672203 -68.73269509 152.19858451 -67.375 149.1875 C-65.93506283 146.00763874 -64.45276803 142.8637013 -62.875 139.75 C-60.30132395 134.66441612 -58.16259232 129.4201744 -56.0625 124.125 C-53.37263948 117.37477968 -50.43025869 110.79622729 -47.14453125 104.31640625 C-42.65138096 95.3343932 -42.65138096 95.3343932 -39 86 C-38.34 86 -37.68 86 -37 86 C-36.814375 84.948125 -36.814375 84.948125 -36.625 83.875 C-35.96161655 80.82343613 -35.02788045 77.94659062 -34 75 C-33.34 75 -32.68 75 -32 75 C-31.90203125 74.443125 -31.8040625 73.88625 -31.703125 73.3125 C-30.78653598 68.63473536 -29.53901596 64.72515899 -27.26953125 60.4921875 C-25.53075083 57.07882779 -24.02286628 53.57646555 -22.5 50.0625 C-22.19449219 49.35988037 -21.88898438 48.65726074 -21.57421875 47.93334961 C-20.98038008 46.56665679 -20.38709783 45.19972205 -19.79443359 43.83251953 C-17.59719863 38.76415886 -15.39382728 33.7302104 -12.875 28.8125 C-11.25200895 25.62402546 -10.03025625 22.43418751 -9 19 C-8.34 19 -7.68 19 -7 19 C-6.82984375 18.38253906 -6.6596875 17.76507813 -6.484375 17.12890625 C-4.77814576 11.1661796 -2.66418883 5.59885369 0 0 Z " fill="#080808" transform="translate(133,24)"/>
<path d="M0 0 C0.69948761 0.00215515 1.39897522 0.0043103 2.11965942 0.00653076 C31.23298246 0.14989512 56.3220371 5.40677219 77.5625 26.3125 C78.97402344 27.65634766 78.97402344 27.65634766 80.4140625 29.02734375 C82.5625 31.3125 82.5625 31.3125 82.5625 33.3125 C83.2225 33.3125 83.8825 33.3125 84.5625 33.3125 C96.00816522 49.313367 98.8929722 66.3317173 98.78955078 85.53613281 C98.78898526 87.02556857 98.78930597 88.51500488 98.79043579 90.00444031 C98.79100481 94.00985036 98.77932431 98.0151383 98.76528788 102.02052021 C98.7527046 106.22052183 98.75160407 110.42052687 98.74923706 114.62054443 C98.74304446 122.55688979 98.72666399 130.49317942 98.70653808 138.42950034 C98.6841096 147.47192037 98.67316825 156.51434319 98.66314721 165.55678415 C98.64229557 184.14205425 98.6071632 202.72727263 98.5625 221.3125 C96.31651115 221.3285825 94.07048907 221.34007078 91.82446289 221.34960938 C90.57371475 221.3564978 89.32296661 221.36338623 88.03431702 221.3704834 C76.09354952 221.17105864 66.1452285 216.10547856 56.5625 209.3125 C55.67820312 208.70535156 54.79390625 208.09820312 53.8828125 207.47265625 C41.53954331 198.3786277 32.53542137 184.96085191 29.1875 170.06640625 C28.50761569 167.07066599 27.60559539 164.20107185 26.5625 161.3125 C26.39234375 161.84617187 26.2221875 162.37984375 26.046875 162.9296875 C22.2854741 174.49399452 18.01701399 186.25409215 9.5625 195.3125 C8.9025 195.3125 8.2425 195.3125 7.5625 195.3125 C7.32144531 195.88484375 7.08039063 196.4571875 6.83203125 197.046875 C0.03546393 209.1761336 -16.16137435 216.60961522 -28.94726562 220.29150391 C-35.80561644 222.02169928 -42.7040389 222.02140343 -49.73852539 221.90942383 C-52.13481029 221.87485849 -54.52743319 221.88891477 -56.92382812 221.90820312 C-72.25962199 221.89429807 -84.93509664 218.64897193 -96.25 207.8125 C-105.85498467 198.1363673 -108.88886496 186.25645137 -109 173.0625 C-109.02175293 171.69738281 -109.02175293 171.69738281 -109.04394531 170.3046875 C-108.84557187 156.95076766 -101.70817027 145.47363403 -92.625 136.0625 C-62.24733169 107.14441936 -15.39601099 99.8904086 24.5625 96.3125 C24.58740464 91.35034542 24.60545606 86.38822805 24.61743164 81.42602539 C24.62242943 79.74144862 24.62922989 78.05687612 24.63793945 76.37231445 C24.65020622 73.93700094 24.65577398 71.50174526 24.66015625 69.06640625 C24.66789818 67.95489952 24.66789818 67.95489952 24.67579651 66.82093811 C24.67658429 59.31072002 24.07120318 52.42049235 21.5625 45.3125 C21.28986328 43.98412109 21.28986328 43.98412109 21.01171875 42.62890625 C19.03631101 33.11543951 15.32322839 25.74601444 7.375 19.875 C-5.15189279 12.44307873 -21.59632469 12.82436479 -35.53515625 15.55859375 C-49.91028068 19.29264357 -62.97453726 26.41090965 -71.265625 39.11328125 C-72.29024422 40.87154773 -73.28715679 42.64647297 -74.24609375 44.44140625 C-74.63925781 45.05886719 -75.03242187 45.67632812 -75.4375 46.3125 C-76.0975 46.3125 -76.7575 46.3125 -77.4375 46.3125 C-77.72625 47.42625 -78.015 48.54 -78.3125 49.6875 C-79.4375 53.3125 -79.4375 53.3125 -81.4375 55.3125 C-84 55.5 -84 55.5 -86.4375 55.3125 C-87.4375 54.3125 -87.4375 54.3125 -87.5 51.25 C-87.479375 50.280625 -87.45875 49.31125 -87.4375 48.3125 C-86.7775 48.3125 -86.1175 48.3125 -85.4375 48.3125 C-85.251875 47.52875 -85.06625 46.745 -84.875 45.9375 C-82.83798219 40.80067249 -79.76488522 36.69673913 -76.4375 32.3125 C-75.9115625 31.61769531 -75.385625 30.92289063 -74.84375 30.20703125 C-68.3273107 22.2052271 -59.55505696 16.04661611 -50.4375 11.3125 C-49.88578125 11.00054687 -49.3340625 10.68859375 -48.765625 10.3671875 C-33.52788566 2.09713239 -17.10095451 -0.0949362 0 0 Z M-21.04296875 125.86328125 C-29.43159133 135.02623822 -33.59117171 148.73253022 -33.5625 160.875 C-33.56507812 161.96941406 -33.56765625 163.06382812 -33.5703125 164.19140625 C-33.45000685 167.01858913 -33.08249972 169.5635726 -32.4375 172.3125 C-31.7775 172.3125 -31.1175 172.3125 -30.4375 172.3125 C-30.4065625 173.55 -30.4065625 173.55 -30.375 174.8125 C-28.88463844 180.37651651 -25.39888256 184.41574671 -20.546875 187.5234375 C-14.44703899 190.22621037 -8.19951731 189.7447713 -2.046875 187.40234375 C9.37523297 181.67186441 15.53911413 170.36005104 19.65234375 158.703125 C21.28412688 152.6242076 22.08059835 146.40584794 22.94921875 140.1796875 C23.5625 136.3125 23.5625 136.3125 24.5625 135.3125 C26.43175723 124.88158311 25.65802178 113.86545283 25.5625 103.3125 C8.26310222 103.3125 -9.07546722 114.30343184 -21.04296875 125.86328125 Z " fill="#040404" transform="translate(1181.4375,101.6875)"/>
<path d="M0 0 C1.56232239 -0.0013593 3.12464446 -0.00314218 4.68696594 -0.00531006 C8.8808384 -0.00981968 13.07468592 -0.00812233 17.26855874 -0.00493097 C21.68141506 -0.00237583 26.09426944 -0.00475341 30.50712585 -0.00631714 C37.90807473 -0.00812874 45.30901358 -0.00575811 52.70996094 -0.00097656 C61.24484251 0.00447419 69.77970021 0.00269343 78.31458122 -0.00280297 C85.67379214 -0.00735091 93.03299592 -0.00797672 100.3922078 -0.0053643 C104.7741896 -0.00381206 109.15616019 -0.00357893 113.53814125 -0.00690079 C117.6545733 -0.00980436 121.77097473 -0.00775841 125.88740349 -0.00200653 C127.39095636 -0.00069265 128.89451185 -0.00104952 130.39806366 -0.0032692 C138.23925441 -0.01377185 145.98119407 0.11206827 153.76831055 1.12939453 C153.26947683 6.3276593 152.09620071 9.97331312 149.5300293 14.50830078 C149.20799026 15.08345932 148.88595123 15.65861786 148.55415344 16.25120544 C147.53163465 18.07078891 146.49382314 19.88111506 145.45581055 21.69189453 C144.77060075 22.90945091 144.08634766 24.12754622 143.40307617 25.34619141 C140.91676764 29.75494473 138.43647714 34.13120541 135.61914062 38.34008789 C133.92165191 40.89830035 132.78615714 43.24549585 131.76831055 46.12939453 C131.10831055 46.12939453 130.44831055 46.12939453 129.76831055 46.12939453 C129.60975586 46.67466797 129.45120117 47.21994141 129.2878418 47.78173828 C127.45962771 53.69060701 124.9390993 58.82803625 121.76831055 64.12939453 C121.10831055 64.12939453 120.44831055 64.12939453 119.76831055 64.12939453 C119.69354492 64.79068359 119.6187793 65.45197266 119.54174805 66.13330078 C118.49173914 70.20075953 116.50878414 73.46188653 114.39331055 77.06689453 C113.59249607 78.45023696 112.79299436 79.83434028 111.99487305 81.21923828 C111.61492187 81.87778809 111.2349707 82.53633789 110.84350586 83.21484375 C109.38820608 85.80622906 108.06530863 88.45590494 106.76831055 91.12939453 C106.10831055 91.12939453 105.44831055 91.12939453 104.76831055 91.12939453 C104.67807617 91.81904297 104.5878418 92.50869141 104.49487305 93.21923828 C103.59690604 96.81593409 102.0251862 99.49851866 100.14331055 102.69189453 C99.78575684 103.30468262 99.42820312 103.9174707 99.05981445 104.54882812 C97.97010354 106.41353025 96.87100988 108.27234861 95.76831055 110.12939453 C91.67714325 117.02471608 87.77906896 123.90567572 84.32299805 131.14501953 C83.14058098 133.41478496 81.92488306 135.50674432 80.5534668 137.65673828 C76.88719936 143.43658153 73.63720493 149.45188271 70.33081055 155.44189453 C69.68191201 156.61322377 69.03282442 157.7844483 68.38354492 158.95556641 C64.91458949 165.22081688 61.46741633 171.4974949 58.046875 177.78930664 C56.84241988 179.99375621 55.62196523 182.18836217 54.39331055 184.37939453 C52.07558222 188.55282038 49.78763143 192.74198747 47.51831055 196.94189453 C46.98778076 197.9120752 46.98778076 197.9120752 46.4465332 198.90185547 C44.80316436 201.95895208 43.51581207 204.74579661 42.76831055 208.12939453 C43.32914557 208.12847274 43.8899806 208.12755095 44.46781063 208.12660122 C58.09587147 208.1045448 71.7239292 208.08804616 85.35200405 208.07758236 C91.9423584 208.07235281 98.53269991 208.06525386 105.12304688 208.05395508 C111.47723073 208.04312875 117.8314022 208.03711824 124.18559456 208.03451729 C126.61580666 208.03266258 129.04601804 208.0290411 131.4762249 208.02366447 C134.86714036 208.01645743 138.25800395 208.01540345 141.64892578 208.01586914 C142.664561 208.01227386 143.68019623 208.00867859 144.72660828 208.00497437 C145.64512573 208.00634903 146.56364319 208.00772369 147.50999451 208.00914001 C148.3128762 208.00821822 149.11575788 208.00729643 149.94296932 208.0063467 C151.76831055 208.12939453 151.76831055 208.12939453 152.76831055 209.12939453 C152.76831055 210.77939453 152.76831055 212.42939453 152.76831055 214.12939453 C89.40831055 214.12939453 26.04831055 214.12939453 -39.23168945 214.12939453 C-36.51725925 207.34331902 -33.85880355 201.35338921 -30.23168945 195.12939453 C-29.30696192 193.50006518 -28.38384794 191.86981924 -27.4621582 190.23876953 C-26.97392578 189.37904541 -26.48569336 188.51932129 -25.98266602 187.63354492 C-19.53931451 176.28322508 -13.20931505 164.8735573 -6.91650391 153.43945312 C-2.72776428 145.83006425 1.49152145 138.23991472 5.77612305 130.68408203 C7.4042965 127.79802489 8.99278185 124.89141273 10.5769043 121.98095703 C13.91744302 115.84376104 17.30844639 109.73527301 20.70581055 103.62939453 C21.36210719 102.44908192 22.01835609 101.26874277 22.67456055 100.08837891 C24.03228766 97.64621978 25.39021606 95.20417274 26.74829102 92.76220703 C29.92355025 87.05233608 33.09578153 81.34078274 36.26831055 75.62939453 C39.78143979 69.30483617 43.29471968 62.98036333 46.81106567 56.65759277 C48.16031884 54.23140686 49.50924778 51.80504076 50.8581543 49.37866211 C51.79534074 47.69318499 52.73298846 46.00796438 53.6706543 44.32275391 C56.36956711 39.46770963 59.05578958 34.60718248 61.7019043 29.72314453 C64.0655573 25.37577517 66.49936586 21.07264418 68.95996094 16.77978516 C69.32768867 16.13728821 69.69541641 15.49479126 70.07428741 14.83282471 C70.97184355 13.26475608 71.8700134 11.69703877 72.76831055 10.12939453 C71.81935913 10.13161514 70.87040771 10.13383575 69.8927002 10.13612366 C60.83503403 10.15662614 51.77737274 10.17149467 42.71968842 10.1812067 C38.06596388 10.18636798 33.41225846 10.19333848 28.75854492 10.20483398 C8.73654957 10.25303778 -11.23438741 10.27169276 -31.23168945 9.12939453 C-31.23168945 6.48939453 -31.23168945 3.84939453 -31.23168945 1.12939453 C-20.80878098 0.30574172 -10.45478881 -0.01554905 0 0 Z " fill="#010101" transform="translate(459.231689453125,108.87060546875)"/>
<path d="M0 0 C0.99 0.99 0.99 0.99 2 2 C1.625 4.625 1.625 4.625 1 7 C-0.29292969 7.17015625 -1.58585937 7.3403125 -2.91796875 7.515625 C-24.90105504 10.52593295 -43.19326973 15.92557174 -57.25 34.25 C-61.33378526 40.14055086 -64.29666508 46.37767955 -67 53 C-67.46019531 54.11955078 -67.46019531 54.11955078 -67.9296875 55.26171875 C-71.10335567 63.85025375 -72.48386588 73.35453344 -73.5234375 82.43359375 C-74 86 -74 86 -75 87 C-76.15422665 94.66970504 -76.13944451 102.43575077 -76.11352539 110.17260742 C-76.11367142 111.33488861 -76.11381744 112.4971698 -76.1139679 113.69467163 C-76.11327678 117.49829032 -76.10552219 121.30185872 -76.09765625 125.10546875 C-76.09578922 127.75775739 -76.09431741 130.41004333 -76.09336853 133.06233215 C-76.09027531 139.30580937 -76.08208933 145.54926882 -76.07201904 151.79273826 C-76.0607951 158.90772853 -76.05533171 166.02271971 -76.05032361 173.13771665 C-76.03990477 187.75848688 -76.02234471 202.37924319 -76 217 C-79.99603868 217.05491966 -83.99197879 217.08792893 -87.98828125 217.1171875 C-89.67395203 217.14075317 -89.67395203 217.14075317 -91.39367676 217.16479492 C-109.01637866 217.26146361 -121.58757812 209.94385113 -134.3125 198.25 C-141.83421645 190.24196568 -147.58488393 180.73580794 -150 170 C-150.33593831 168.93687277 -150.67187662 167.87374554 -151.01799488 166.77840233 C-151.98575226 163.05482019 -152.24904281 160.00075837 -152.24723816 156.16665649 C-152.24965257 155.51617981 -152.25206699 154.86570313 -152.25455457 154.19551504 C-152.26014893 152.03600002 -152.2515614 149.87678646 -152.24291992 147.71728516 C-152.24399381 146.1612439 -152.24593407 144.60520304 -152.24867249 143.04916382 C-152.25350456 138.83886186 -152.24588741 134.62866648 -152.23571944 130.4183774 C-152.22691987 126.0119416 -152.2286967 121.60550895 -152.2290802 117.19906616 C-152.22814493 109.80668356 -152.21947632 102.41434211 -152.20581055 95.02197266 C-152.19005162 86.46549117 -152.18481371 77.90905463 -152.1855461 69.35255969 C-152.18615536 61.12405498 -152.18106148 52.89556496 -152.17275429 44.66706467 C-152.16921666 41.16228496 -152.16739037 37.65751044 -152.16686058 34.15272903 C-152.16585961 30.03396319 -152.15978334 25.91523539 -152.14969444 21.79648209 C-152.14676259 20.28109469 -152.14554545 18.76570292 -152.14612198 17.25031281 C-152.14660926 15.19064802 -152.14099109 13.13109143 -152.13371277 11.07144165 C-152.13203692 9.91630884 -152.13036108 8.76117603 -152.12863445 7.5710392 C-152 5 -152 5 -151 4 C-131.89901792 2.60124861 -114.32820165 6.75771993 -99.3125 19.125 C-88.35227168 28.59462432 -78.92685984 41.32958982 -77 56 C-76.62488281 55.09378906 -76.24976563 54.18757813 -75.86328125 53.25390625 C-67.35361792 32.89069674 -55.94410301 14.4014046 -34.7421875 5.65625 C-23.61533537 1.45005535 -11.98068911 -1.32685156 0 0 Z " fill="#040404" transform="translate(1055,106)"/>
<path d="M0 0 C19.29845169 0.27657017 35.02104961 8.9908218 49.375 21.25 C50.69679399 22.74820363 51.97100187 24.29010701 53.1875 25.875 C53.79207031 26.65101563 54.39664063 27.42703125 55.01953125 28.2265625 C56.375 30.25 56.375 30.25 56.375 32.25 C57.035 32.25 57.695 32.25 58.375 32.25 C65.27044511 44.43324432 70.5072657 55.45701862 70.49525452 69.78636169 C70.49731651 71.69398033 70.49731651 71.69398033 70.49942017 73.64013672 C70.49588196 75.03149438 70.49224716 76.4228518 70.48852539 77.81420898 C70.48824303 79.2930552 70.4884022 80.77190155 70.4889679 82.25074768 C70.48925398 86.25021799 70.4833878 90.24965811 70.47639394 94.24912143 C70.47012893 98.43447639 70.46955411 102.61983211 70.46836853 106.80519104 C70.46526449 114.72397486 70.4570636 122.64274482 70.44701904 130.56152254 C70.43582911 139.57964923 70.4303402 148.5977766 70.42532361 157.6159085 C70.4148802 176.16061352 70.39729873 194.70530564 70.375 213.25 C68.00903537 213.2772276 65.64339099 213.2969476 63.27734375 213.3125 C61.95984131 213.32410156 60.64233887 213.33570313 59.28491211 213.34765625 C42.75822056 212.93487594 28.13506464 205.0237765 16.53515625 193.66796875 C14.375 191.25 14.375 191.25 13.375 188.25 C12.715 188.25 12.055 188.25 11.375 188.25 C8.80017293 184.74290795 6.631134 180.96806836 4.375 177.25 C3.96507812 176.62222656 3.55515625 175.99445313 3.1328125 175.34765625 C0.4691555 171.12503721 -0.73138876 166.78940085 -1.9140625 161.99609375 C-2.58346333 159.21689686 -2.58346333 159.21689686 -3.65398121 156.48370075 C-4.68105838 153.06331356 -4.87398069 150.32823973 -4.87223816 146.76469421 C-4.87643265 145.47893997 -4.88062714 144.19318573 -4.88494873 142.86846924 C-4.87946628 141.45617599 -4.87378333 140.04388351 -4.86791992 138.6315918 C-4.86899358 137.13481056 -4.87093351 135.63802973 -4.87367249 134.14125061 C-4.87850849 130.08790773 -4.87088224 126.0346754 -4.86071944 121.98134589 C-4.85192529 117.74039829 -4.85369661 113.49945401 -4.8540802 109.25849915 C-4.85314462 102.14261019 -4.8444722 95.02676397 -4.83081055 87.91088867 C-4.81505597 79.67423261 -4.80981353 71.43762323 -4.8105461 63.20095319 C-4.81115539 55.28159923 -4.80606092 47.36226053 -4.79775429 39.44291115 C-4.79421647 36.06931248 -4.79239034 32.6957192 -4.79186058 29.32211876 C-4.79085953 25.35685059 -4.78478258 21.39162195 -4.77469444 17.42636681 C-4.77176271 15.96741986 -4.77054543 14.50846836 -4.77112198 13.04951859 C-4.7716093 11.06647066 -4.76536364 9.0834244 -4.75871277 7.10038757 C-4.75703692 5.98820201 -4.75536108 4.87601645 -4.75363445 3.73012829 C-4.54936193 -0.20833499 -4.10975079 0.28343109 0 0 Z " fill="#0B0B0B" transform="translate(312.625,109.75)"/>
<path d="M0 0 C1.16063965 -0.01562988 2.3212793 -0.03125977 3.51708984 -0.04736328 C11.03481647 0.09171412 16.09902019 1.43229651 22.25 5.75 C22.9814624 6.23637939 23.7129248 6.72275879 24.46655273 7.22387695 C33.60041035 13.42738758 38.48802944 22.1506429 41.25 32.75 C42.1801016 40.91032537 41.6224801 48.24586678 38.25 55.75 C37.98316406 56.41257813 37.71632813 57.07515625 37.44140625 57.7578125 C33.1847817 67.40616149 25.58738706 74.78382225 15.86328125 78.71484375 C3.58895176 82.69620324 -9.99403866 82.01051203 -21.75 76.75 C-24.67524338 75.01521119 -27.40486748 73.22974738 -29.75 70.75 C-29.75 70.09 -29.75 69.43 -29.75 68.75 C-30.41 68.75 -31.07 68.75 -31.75 68.75 C-36.43129692 63.46887116 -38.65005259 57.73158872 -40.20703125 50.9375 C-40.54115944 48.78686163 -40.54115944 48.78686163 -41.75 47.75 C-42.97448048 33.41272853 -40.95626202 23.84389164 -31.6875 12.4375 C-21.82188377 2.4427104 -13.76977725 0.13490723 0 0 Z " fill="#000000" transform="translate(345.75,-0.75)"/>
<path d="M0 0 C2.10100813 1.76513268 3.84226634 3.52559735 5.609375 5.6171875 C7.46697288 7.8011746 9.32616856 9.96123441 11.27734375 12.0625 C18.43793231 19.79094955 23.86573112 28.39309524 28.296875 37.9296875 C28.63460937 38.57808594 28.97234375 39.22648437 29.3203125 39.89453125 C32.33330938 45.97716028 33.50587817 52.23513552 34.68359375 58.8671875 C34.97507194 61.79271648 34.97507194 61.79271648 36.296875 62.9296875 C37.37643717 69.4374707 37.44749812 75.84454651 37.421875 82.4296875 C37.42574219 83.42355469 37.42960938 84.41742188 37.43359375 85.44140625 C37.42364379 92.97352859 37.33706223 99.92101161 34.296875 106.9296875 C33.81138048 108.83965494 33.35422684 110.75699344 32.921875 112.6796875 C30.60690422 122.10081235 26.39555641 129.73771866 21.296875 137.9296875 C20.82636719 138.72503906 20.35585938 139.52039063 19.87109375 140.33984375 C19.43410156 141.07074219 18.99710938 141.80164063 18.546875 142.5546875 C18.16015625 143.20695313 17.7734375 143.85921875 17.375 144.53125 C16.84132813 145.22347656 16.84132813 145.22347656 16.296875 145.9296875 C15.636875 145.9296875 14.976875 145.9296875 14.296875 145.9296875 C13.90048828 146.80173828 13.90048828 146.80173828 13.49609375 147.69140625 C11.39710823 151.60905675 8.28868472 154.67317034 5.296875 157.9296875 C4.79414062 158.49816406 4.29140625 159.06664062 3.7734375 159.65234375 C-13.0378367 177.700996 -39.80126768 190.68220893 -64.38061523 192.14916992 C-68.51164886 192.26996334 -72.63323332 192.31626414 -76.765625 192.3046875 C-77.49545593 192.30414368 -78.22528687 192.30359985 -78.97723389 192.30303955 C-90.32409221 192.26417299 -100.87622654 191.5200123 -111.703125 187.9296875 C-112.65445313 187.61620361 -112.65445313 187.61620361 -113.625 187.29638672 C-128.59687822 182.21827254 -141.85183066 174.31197718 -153.703125 163.9296875 C-154.62738281 163.22457031 -155.55164063 162.51945313 -156.50390625 161.79296875 C-157.22964844 161.17808594 -157.95539062 160.56320312 -158.703125 159.9296875 C-158.703125 159.2696875 -158.703125 158.6096875 -158.703125 157.9296875 C-159.693125 157.5996875 -160.683125 157.2696875 -161.703125 156.9296875 C-171.16347438 146.99265385 -177.86785295 135.24264687 -183.703125 122.9296875 C-184.26 121.8159375 -184.816875 120.7021875 -185.390625 119.5546875 C-187.0660416 114.92734642 -188.00432784 110.25241211 -188.95703125 105.4296875 C-189.62016112 101.96626743 -189.62016112 101.96626743 -190.76171875 98.875 C-197.14793589 76.93933484 -190.27604091 50.77973207 -179.69140625 31.43359375 C-179.03109725 30.26423735 -178.36848956 29.09617469 -177.703125 27.9296875 C-177.16042969 26.94871094 -176.61773438 25.96773437 -176.05859375 24.95703125 C-168.71289496 12.53547247 -158.01835369 2.69237492 -146.703125 -6.0703125 C-145.94128906 -6.68261719 -145.17945313 -7.29492188 -144.39453125 -7.92578125 C-99.32057273 -42.0632507 -42.12907345 -32.26648689 0 0 Z M-109.703125 -23.0703125 C-111.30994141 -22.56177734 -111.30994141 -22.56177734 -112.94921875 -22.04296875 C-142.79331191 -11.57331809 -167.09877853 8.78518038 -180.953125 37.3046875 C-192.77570253 64.23389188 -193.6303386 92.04530863 -183.4296875 119.67578125 C-171.94359774 148.86793671 -149.11558967 170.39561019 -120.703125 182.9296875 C-116.09612222 184.85343595 -111.4851485 186.49670883 -106.703125 187.9296875 C-105.63964844 188.249375 -104.57617188 188.5690625 -103.48046875 188.8984375 C-73.66809218 196.29163307 -42.55258617 189.47183952 -16.55273438 174.09521484 C8.8376111 158.0955436 27.19851864 132.55993263 33.88793945 103.34863281 C39.22957864 76.76146024 34.3095711 47.46548046 19.3125 24.76953125 C0.47233053 -1.77466101 -25.46901971 -20.16594885 -57.81079102 -26.24365234 C-74.93885725 -28.8893359 -93.19813038 -28.5121116 -109.703125 -23.0703125 Z " fill="#FAFAFA" transform="translate(829.703125,131.0703125)"/>
<path d="M0 0 C1.56232239 -0.0013593 3.12464446 -0.00314218 4.68696594 -0.00531006 C8.8808384 -0.00981968 13.07468592 -0.00812233 17.26855874 -0.00493097 C21.68141506 -0.00237583 26.09426944 -0.00475341 30.50712585 -0.00631714 C37.90807473 -0.00812874 45.30901358 -0.00575811 52.70996094 -0.00097656 C61.24484251 0.00447419 69.77970021 0.00269343 78.31458122 -0.00280297 C85.67379214 -0.00735091 93.03299592 -0.00797672 100.3922078 -0.0053643 C104.7741896 -0.00381206 109.15616019 -0.00357893 113.53814125 -0.00690079 C117.6545733 -0.00980436 121.77097473 -0.00775841 125.88740349 -0.00200653 C127.39095636 -0.00069265 128.89451185 -0.00104952 130.39806366 -0.0032692 C138.23925441 -0.01377185 145.98119407 0.11206827 153.76831055 1.12939453 C153.26947683 6.3276593 152.09620071 9.97331312 149.5300293 14.50830078 C149.20799026 15.08345932 148.88595123 15.65861786 148.55415344 16.25120544 C147.53163465 18.07078891 146.49382314 19.88111506 145.45581055 21.69189453 C144.77060075 22.90945091 144.08634766 24.12754622 143.40307617 25.34619141 C140.91676764 29.75494473 138.43647714 34.13120541 135.61914062 38.34008789 C133.92165191 40.89830035 132.78615714 43.24549585 131.76831055 46.12939453 C131.10831055 46.12939453 130.44831055 46.12939453 129.76831055 46.12939453 C131.41963385 39.93170642 134.7045913 34.69605878 137.89331055 29.19189453 C143.03967608 20.25892592 147.91191693 11.23513256 152.76831055 2.12939453 C92.37831055 2.12939453 31.98831055 2.12939453 -30.23168945 2.12939453 C-30.23168945 4.10939453 -30.23168945 6.08939453 -30.23168945 8.12939453 C4.74831055 8.12939453 39.72831055 8.12939453 75.76831055 8.12939453 C74.30365731 11.79102761 72.82236604 15.04985127 70.9675293 18.49658203 C70.4094458 19.53484131 69.8513623 20.57310059 69.27636719 21.64282227 C68.6755835 22.75214111 68.0747998 23.86145996 67.45581055 25.00439453 C66.82989014 26.16334229 66.20396973 27.32229004 65.55908203 28.51635742 C60.52238271 37.82070138 55.33750645 47.03768414 50.1081543 56.23486328 C46.49599922 62.59392881 42.94107985 68.98423649 39.39331055 75.37939453 C38.76690674 76.50853271 38.14050293 77.6376709 37.49511719 78.80102539 C36.22170588 81.09720987 34.94851333 83.39351569 33.67553711 85.68994141 C30.54337641 91.33841554 27.40562621 96.9837825 24.26831055 102.62939453 C20.50513783 109.40202588 16.74265905 116.17503876 12.9831543 122.94970703 C6.9308623 133.85383641 0.86693126 144.75109914 -5.23168945 155.62939453 C-7.56596028 159.79553677 -9.89928126 163.96220921 -12.23168945 168.12939453 C-13.17625 169.81693848 -13.17625 169.81693848 -14.13989258 171.53857422 C-22.02512497 185.63964295 -29.80408598 199.78101228 -37.23168945 214.12939453 C-37.89168945 213.79939453 -38.55168945 213.46939453 -39.23168945 213.12939453 C-38.00903343 210.45957492 -36.77880413 207.79367971 -35.54418945 205.12939453 C-35.20452148 204.38560547 -34.86485352 203.64181641 -34.51489258 202.87548828 C-32.47634126 198.49355553 -30.2293843 194.41772506 -27.61816406 190.35449219 C-24.67001432 185.62312455 -22.04766157 180.69738911 -19.35668945 175.81689453 C-18.70269854 174.63447862 -18.04847856 173.45218938 -17.39404297 172.27001953 C-16.03097366 169.80743285 -14.66889348 167.3443027 -13.30737305 164.88085938 C-11.252619 161.16499484 -9.19047797 157.45326768 -7.1262207 153.74267578 C-6.79257507 153.14283371 -6.45892944 152.54299164 -6.11517334 151.92497253 C-4.52095049 149.05897938 -2.92643907 146.19314701 -1.33178711 143.32739258 C1.41026705 138.39435728 4.14006285 133.45568772 6.8347168 128.49658203 C9.70999905 123.2139212 12.66924001 117.98189181 15.64331055 112.75439453 C20.70435603 103.8293816 25.69483881 94.86712319 30.64331055 85.87939453 C30.97700653 85.27336395 31.31070251 84.66733337 31.6545105 84.04293823 C32.33120495 82.81393076 33.00789663 81.58492176 33.68458557 80.35591125 C34.02030075 79.7461998 34.35601593 79.13648834 34.7019043 78.50830078 C35.03765976 77.89846848 35.37341522 77.28863617 35.71934509 76.6603241 C43.71236684 62.1484305 51.75568635 47.66357983 59.8996582 33.23583984 C62.43831732 28.73331234 64.92664529 24.20539291 67.3815918 19.65673828 C69.13704366 16.45736544 70.95516174 13.29644748 72.76831055 10.12939453 C71.81935913 10.13161514 70.87040771 10.13383575 69.8927002 10.13612366 C60.83503403 10.15662614 51.77737274 10.17149467 42.71968842 10.1812067 C38.06596388 10.18636798 33.41225846 10.19333848 28.75854492 10.20483398 C8.73654957 10.25303778 -11.23438741 10.27169276 -31.23168945 9.12939453 C-31.23168945 6.48939453 -31.23168945 3.84939453 -31.23168945 1.12939453 C-20.80878098 0.30574172 -10.45478881 -0.01554905 0 0 Z " fill="#FCFCFC" transform="translate(459.231689453125,108.87060546875)"/>
<path d="M0 0 C0.99 0.99 0.99 0.99 2 2 C1.625 4.625 1.625 4.625 1 7 C-0.29292969 7.17015625 -1.58585937 7.3403125 -2.91796875 7.515625 C-24.89173086 10.52465612 -42.92368659 15.92588288 -57.125 34.0625 C-58.0932844 35.36767598 -59.05570612 36.6773632 -60 38 C-60.33 37.34 -60.66 36.68 -61 36 C-49.61848282 20.74392378 -36.18028262 10.63922352 -17 7 C-14.00272285 6.66412653 -11.01266616 6.5003102 -8 6.375 C-7.22527344 6.33632812 -6.45054687 6.29765625 -5.65234375 6.2578125 C-3.76856585 6.16478643 -1.88431744 6.08136825 0 6 C-0.33 4.68 -0.66 3.36 -1 2 C-21.90419431 3.59830862 -41.03335452 6.75438664 -56 23 C-65.77306389 35.0400117 -72.18585238 49.33585297 -77 64 C-77.33 64 -77.66 64 -78 64 C-78.20753906 62.92363281 -78.41507813 61.84726563 -78.62890625 60.73828125 C-82.37913722 42.50100034 -90.54964236 27.93346262 -105.91796875 16.97265625 C-110.43026852 14.08455564 -114.9956892 11.89251216 -120 10 C-120.72832031 9.70480469 -121.45664062 9.40960938 -122.20703125 9.10546875 C-128.12437907 7.00175315 -134.13711251 6.49564886 -140.34765625 5.91796875 C-141.27646606 5.82849976 -142.20527588 5.73903076 -143.16223145 5.64685059 C-145.44118437 5.42781911 -147.72041229 5.21230508 -150 5 C-149.93936113 25.39348412 -149.86178778 45.78683762 -149.76428509 66.1801796 C-149.71939957 75.6500563 -149.67996833 85.119896 -149.65356445 94.58984375 C-149.63052556 102.84787666 -149.59706213 111.10579177 -149.55129844 119.36373115 C-149.5274454 123.73259945 -149.5086649 128.10135166 -149.50238609 132.47028351 C-149.49629919 136.59075126 -149.47617072 140.71092228 -149.44572449 144.83127975 C-149.43700163 146.33557187 -149.43320961 147.83990286 -149.43499184 149.34421921 C-149.45095985 169.0586827 -143.97646279 184.62265143 -130.1328125 198.9296875 C-119.66366972 208.70378346 -106.25174908 214.6742559 -92 216 C-92 216.33 -92 216.66 -92 217 C-108.2141313 218.42229222 -120.46556275 209.89221812 -132.3359375 200.06640625 C-140.97954589 192.12316929 -147.43258132 181.41283196 -150 170 C-150.33593831 168.93687277 -150.67187662 167.87374554 -151.01799488 166.77840233 C-151.98575226 163.05482019 -152.24904281 160.00075837 -152.24723816 156.16665649 C-152.24965257 155.51617981 -152.25206699 154.86570313 -152.25455457 154.19551504 C-152.26014893 152.03600002 -152.2515614 149.87678646 -152.24291992 147.71728516 C-152.24399381 146.1612439 -152.24593407 144.60520304 -152.24867249 143.04916382 C-152.25350456 138.83886186 -152.24588741 134.62866648 -152.23571944 130.4183774 C-152.22691987 126.0119416 -152.2286967 121.60550895 -152.2290802 117.19906616 C-152.22814493 109.80668356 -152.21947632 102.41434211 -152.20581055 95.02197266 C-152.19005162 86.46549117 -152.18481371 77.90905463 -152.1855461 69.35255969 C-152.18615536 61.12405498 -152.18106148 52.89556496 -152.17275429 44.66706467 C-152.16921666 41.16228496 -152.16739037 37.65751044 -152.16686058 34.15272903 C-152.16585961 30.03396319 -152.15978334 25.91523539 -152.14969444 21.79648209 C-152.14676259 20.28109469 -152.14554545 18.76570292 -152.14612198 17.25031281 C-152.14660926 15.19064802 -152.14099109 13.13109143 -152.13371277 11.07144165 C-152.13203692 9.91630884 -152.13036108 8.76117603 -152.12863445 7.5710392 C-152 5 -152 5 -151 4 C-131.89901792 2.60124861 -114.32820165 6.75771993 -99.3125 19.125 C-88.35227168 28.59462432 -78.92685984 41.32958982 -77 56 C-76.62488281 55.09378906 -76.24976563 54.18757813 -75.86328125 53.25390625 C-67.35361792 32.89069674 -55.94410301 14.4014046 -34.7421875 5.65625 C-23.61533537 1.45005535 -11.98068911 -1.32685156 0 0 Z " fill="#FBFBFB" transform="translate(1055,106)"/>
<path d="M0 0 C2.25 -0.375 2.25 -0.375 5 0 C7.6574157 3.14058219 9.20690228 6.37591581 10.83984375 10.12890625 C12.96920479 14.96388943 15.22181989 19.7337051 17.5 24.5 C20.11107725 29.9627657 22.66773808 35.43909471 25.09399414 40.98681641 C25.99049484 42.97887913 26.9472774 44.92806352 27.9375 46.875 C30.45549304 51.84213471 32.71542636 56.92239577 35 62 C36.6614564 65.66904956 38.32993686 69.33486143 40 73 C40.45117188 73.99644531 40.90234375 74.99289063 41.3671875 76.01953125 C44.44932812 82.77525028 47.69337246 89.4295908 51.03833008 96.05737305 C53.62468548 101.19987374 56.04715261 106.40425642 58.4296875 111.64453125 C60.24986404 115.53391345 62.18193608 119.35852111 64.125 123.1875 C66.26077732 127.40368264 68.31982569 131.57653224 70 136 C71.88656235 140.94607432 74.25844396 145.61813469 76.6496582 150.33276367 C83.50824739 163.88488318 89.96445163 177.65253162 96.125 191.53515625 C98.9595465 197.86626505 101.99873506 204.0742618 105.14575195 210.25463867 C106.11235613 212.16274353 107.06256172 214.07740655 108 216 C108.31163086 216.63873047 108.62326172 217.27746094 108.94433594 217.93554688 C111.11951803 222.64144592 111.11951803 222.64144592 110 226 C103.57823962 213.55263339 97.55523197 200.95890451 91.8125 188.1875 C86.67461007 176.76515178 81.37563173 165.43974601 75.875 154.1875 C70.42764854 143.04359532 65.11436377 131.85433369 59.92871094 120.58544922 C55.77946338 111.60134883 51.47035814 102.70290722 47.125 93.8125 C41.40933832 82.11603117 35.92158314 70.33659667 30.5843811 58.46304321 C25.04202595 46.14470655 19.22235836 33.97440081 13.27734375 21.84570312 C12.95631683 21.19017456 12.63528992 20.534646 12.30453491 19.85925293 C11.6875215 18.59949971 11.06973087 17.3401268 10.45108032 16.08117676 C8.76428164 12.63129647 7.1769457 9.15590875 5.66796875 5.625 C4.43906313 1.95886396 4.43906313 1.95886396 2 1 C1.6119519 2.24801392 1.6119519 2.24801392 1.21606445 3.52124023 C-0.12177347 7.34835378 -1.74489737 10.99119411 -3.45703125 14.66015625 C-3.79635178 15.39439819 -4.1356723 16.12864014 -4.48527527 16.88513184 C-5.21340997 18.46024791 -5.94288642 20.0347443 -6.67358398 21.6086731 C-8.60849991 25.77750442 -10.53262313 29.95131013 -12.45703125 34.125 C-12.84408234 34.96398331 -13.23113342 35.80296661 -13.62991333 36.66737366 C-17.13644944 44.2769776 -20.58155917 51.9129831 -24 59.5625 C-24.52730713 60.74191162 -25.05461426 61.92132324 -25.59790039 63.13647461 C-27.06644479 66.42379231 -28.53351883 69.71176145 -30 73 C-34.34273744 82.7346935 -38.71098156 92.44699064 -43.3125 102.0625 C-46.86104684 109.48507734 -50.23834613 116.97444668 -53.5625 124.5 C-58.22704615 135.05077707 -62.95624317 145.56979762 -67.75 156.0625 C-68.08612305 156.79838348 -68.42224609 157.53426697 -68.76855469 158.29244995 C-74.1026311 169.95867637 -79.56059841 181.56328816 -85.05419922 193.1550293 C-92.16651083 208.18220225 -98.87515492 223.37984584 -105.52148438 238.61767578 C-107.32934355 242.75342231 -109.16009321 246.87842662 -111 251 C-112.28617662 247.14147015 -111.42756222 246.04085969 -109.8125 242.375 C-109.34585938 241.3025 -108.87921875 240.23 -108.3984375 239.125 C-107.70621094 237.578125 -107.70621094 237.578125 -107 236 C-106.46246094 234.7934375 -106.46246094 234.7934375 -105.9140625 233.5625 C-105.26614484 232.11116444 -104.61642187 230.66063339 -103.96484375 229.2109375 C-102.92411641 226.82611291 -101.95671192 224.4196994 -101 222 C-98.17218744 214.8699512 -95.01013242 207.97263814 -91.55078125 201.12890625 C-86.55723791 191.05377221 -81.79399475 180.85367907 -77.17578125 170.6015625 C-75.30293501 166.45765687 -73.38593092 162.33420452 -71.4765625 158.20703125 C-70.09517774 155.20672203 -68.73269509 152.19858451 -67.375 149.1875 C-65.93506283 146.00763874 -64.45276803 142.8637013 -62.875 139.75 C-60.30132395 134.66441612 -58.16259232 129.4201744 -56.0625 124.125 C-53.37263948 117.37477968 -50.43025869 110.79622729 -47.14453125 104.31640625 C-42.65138096 95.3343932 -42.65138096 95.3343932 -39 86 C-38.34 86 -37.68 86 -37 86 C-36.814375 84.948125 -36.814375 84.948125 -36.625 83.875 C-35.96161655 80.82343613 -35.02788045 77.94659062 -34 75 C-33.34 75 -32.68 75 -32 75 C-31.90203125 74.443125 -31.8040625 73.88625 -31.703125 73.3125 C-30.78653598 68.63473536 -29.53901596 64.72515899 -27.26953125 60.4921875 C-25.53075083 57.07882779 -24.02286628 53.57646555 -22.5 50.0625 C-22.19449219 49.35988037 -21.88898438 48.65726074 -21.57421875 47.93334961 C-20.98038008 46.56665679 -20.38709783 45.19972205 -19.79443359 43.83251953 C-17.59719863 38.76415886 -15.39382728 33.7302104 -12.875 28.8125 C-11.25200895 25.62402546 -10.03025625 22.43418751 -9 19 C-8.34 19 -7.68 19 -7 19 C-6.82984375 18.38253906 -6.6596875 17.76507813 -6.484375 17.12890625 C-4.77814576 11.1661796 -2.66418883 5.59885369 0 0 Z " fill="#FAFAFA" transform="translate(133,24)"/>
<path d="M0 0 C13.90675198 9.5058811 18.15189576 25.57688373 21.15576172 41.34326172 C24.82200539 62.01058479 25.14255523 82.89631429 25.1640625 103.828125 C25.16755707 104.91829926 25.17105164 106.00847351 25.1746521 107.13168335 C25.30263485 179.11419542 25.30263485 179.11419542 5.4609375 200.796875 C-0.33709194 206.08828051 -6.75376655 207.71455241 -14.42578125 207.6015625 C-22.00764667 206.66606691 -27.9549234 202.42283993 -32.625 196.546875 C-58.52790069 157.75894165 -52.23447291 81.18727492 -43.62548828 37.47265625 C-40.78783964 24.34453766 -37.33557647 9.76875281 -26.1484375 1.265625 C-17.94276482 -3.97170775 -8.59689683 -4.77184582 0 0 Z M-30.625 7.234375 C-40.40592178 20.27560404 -42.03823466 36.67412459 -43.82299805 52.33886719 C-44.1484375 54.265625 -44.1484375 54.265625 -45.1484375 55.265625 C-48.34250253 80.97299307 -47.80081345 107.29010527 -46.2109375 133.078125 C-46.16755249 133.78878113 -46.12416748 134.49943726 -46.07946777 135.23162842 C-46.31860962 142.22219601 -46.31860962 142.22219601 -44.1484375 148.265625 C-43.91005353 149.86625678 -43.72807169 151.47535964 -43.5703125 153.0859375 C-40.82122089 179.14542347 -40.82122089 179.14542347 -26.8359375 200.703125 C-21.50919665 204.81499513 -15.86988014 206.59906687 -9.1484375 206.328125 C-1.31246819 205.1618412 3.97298583 200.83883481 8.6640625 194.640625 C12.22128146 189.17745962 14.03261629 183.47894125 15.8515625 177.265625 C16.39044959 175.84789868 16.93192201 174.43115103 17.4765625 173.015625 C19.18274083 168.00836251 19.65565115 162.82146739 20.20556641 157.58496094 C20.76045506 152.35673244 20.76045506 152.35673244 21.8515625 151.265625 C26.28795388 120.90714725 26.49660073 85.61677044 21.8515625 55.265625 C21.5215625 54.935625 21.1915625 54.605625 20.8515625 54.265625 C20.43341109 50.43383754 20.08303711 46.60386474 19.77734375 42.76171875 C19.23485783 36.88632041 17.88473282 31.78965918 15.8515625 26.265625 C15.55894531 25.30914062 15.26632812 24.35265625 14.96484375 23.3671875 C11.84152274 13.70774594 6.66422086 5.10065216 -2.38671875 0.0703125 C-12.48911342 -4.54408507 -23.44139832 -0.72492076 -30.625 7.234375 Z " fill="#FAFAFA" transform="translate(764.1484375,110.734375)"/>
<path d="M0 0 C12.06455204 10.20650922 15.35149841 25.24904413 16.625 40.375 C16.89828829 46.11765915 16.87323058 51.86393364 16.83081055 57.61157227 C16.81220661 60.22877453 16.81030388 62.84562823 16.81054688 65.46289062 C16.80564263 67.12760725 16.79981915 68.79232149 16.79296875 70.45703125 C16.79185593 71.23915482 16.7907431 72.02127838 16.78959656 72.82710266 C16.7411655 78.2588345 16.7411655 78.2588345 15.625 79.375 C13.82474021 79.67472693 12.01492617 79.91729203 10.203125 80.13671875 C-21.73303717 84.16963574 -53.98929886 89.34082668 -82.375 105.375 C-83.36371094 105.92671875 -84.35242187 106.4784375 -85.37109375 107.046875 C-98.70956524 114.99319844 -110.48578157 126.11665563 -114.88671875 141.3984375 C-118.14972168 154.60707336 -116.31487665 168.91249284 -109.6875 180.875 C-102.09467943 192.16932061 -91.70183144 197.35373428 -78.6875 200.1875 C-76.58577626 200.5961058 -74.48237086 200.99659618 -72.375 201.375 C-72.375 201.705 -72.375 202.035 -72.375 202.375 C-83.41034459 203.24051722 -93.87788533 199.34230146 -102.375 192.375 C-111.2521902 184.55671917 -117.37339547 174.67733746 -118.65869141 162.74023438 C-118.83559006 159.86401176 -118.91322902 157.00645096 -118.9375 154.125 C-118.95925293 152.75988281 -118.95925293 152.75988281 -118.98144531 151.3671875 C-118.78307187 138.01326766 -111.64567027 126.53613403 -102.5625 117.125 C-72.18483169 88.20691936 -25.33351099 80.9529086 14.625 77.375 C14.64990464 72.41284542 14.66795606 67.45072805 14.67993164 62.48852539 C14.68492943 60.80394862 14.69172989 59.11937612 14.70043945 57.43481445 C14.71270622 54.99950094 14.71827398 52.56424526 14.72265625 50.12890625 C14.72781754 49.38790176 14.73297882 48.64689728 14.73829651 47.88343811 C14.73908429 40.37322002 14.13370318 33.48299235 11.625 26.375 C11.35236328 25.04662109 11.35236328 25.04662109 11.07421875 23.69140625 C9.09881101 14.17793951 5.38572839 6.80851444 -2.5625 0.9375 C-15.08939279 -6.49442127 -31.53382469 -6.11313521 -45.47265625 -3.37890625 C-59.84778068 0.35514357 -72.91203726 7.47340965 -81.203125 20.17578125 C-82.22774422 21.93404773 -83.22465679 23.70897297 -84.18359375 25.50390625 C-84.57675781 26.12136719 -84.96992187 26.73882812 -85.375 27.375 C-86.035 27.375 -86.695 27.375 -87.375 27.375 C-83.8824369 16.19879807 -73.11409914 6.30391707 -63.1953125 0.72265625 C-44.55224446 -8.18573499 -18.19546957 -12.08453828 0 0 Z " fill="#FAFAFA" transform="translate(1191.375,120.625)"/>
<path d="M0 0 C0.69948761 0.00215515 1.39897522 0.0043103 2.11965942 0.00653076 C31.23298246 0.14989512 56.3220371 5.40677219 77.5625 26.3125 C78.97402344 27.65634766 78.97402344 27.65634766 80.4140625 29.02734375 C82.5625 31.3125 82.5625 31.3125 82.5625 33.3125 C83.2225 33.3125 83.8825 33.3125 84.5625 33.3125 C95.13879575 48.09800161 99.13420066 64.3992128 98.5625 82.3125 C98.2325 82.3125 97.9025 82.3125 97.5625 82.3125 C97.47613281 81.35472656 97.38976563 80.39695312 97.30078125 79.41015625 C94.90777018 55.70580133 86.77109751 37.11213957 69 20.9375 C67.87369186 20.03750611 66.72691011 19.16262242 65.5625 18.3125 C64.56476563 17.58160156 64.56476563 17.58160156 63.546875 16.8359375 C44.96125722 4.50874204 21.84415176 3.07303551 0.25 2.9375 C-0.46534912 2.9294635 -1.18069824 2.921427 -1.91772461 2.91314697 C-26.50476614 2.70362237 -49.68732862 9.71478019 -68 26.6875 C-68.804375 27.55375 -69.60875 28.42 -70.4375 29.3125 C-71.05367187 29.95832031 -71.66984375 30.60414063 -72.3046875 31.26953125 C-77.19660058 36.53987534 -80.96958374 42.02033375 -84.4375 48.3125 C-84.7675 47.6525 -85.0975 46.9925 -85.4375 46.3125 C-78.37211464 30.69948059 -65.47004172 19.1178582 -50.4375 11.3125 C-49.88578125 11.00054687 -49.3340625 10.68859375 -48.765625 10.3671875 C-33.52788566 2.09713239 -17.10095451 -0.0949362 0 0 Z " fill="#FAFAFA" transform="translate(1181.4375,101.6875)"/>
<path d="M0 0 C0 0.33 0 0.66 0 1 C-1.01707031 1.12955078 -1.01707031 1.12955078 -2.0546875 1.26171875 C-12.69317149 2.86780567 -21.72155671 6.87861896 -29 15 C-35.85512861 24.99488217 -37.09788604 35.16753318 -36 47 C-34.46100282 54.82615044 -31.41331771 61.15765477 -26 67 C-25.43667969 67.62777344 -24.87335938 68.25554687 -24.29296875 68.90234375 C-17.11506695 76.05002281 -7.9023572 78.15815916 2 78.5 C13.15402087 78.11537859 23.08167146 75.0946476 31 67 C38.7916173 57.7583732 41.75587939 47.63861552 41.37890625 35.6484375 C40.29234064 25.18604289 35.63329124 16.79389354 27.640625 9.9921875 C20.28102985 4.52963085 13.04375975 1.9621021 4 1 C4 0.67 4 0.34 4 0 C12.51223383 -0.64813963 18.00609276 0.04543767 25 5 C25.69996094 5.45761719 26.39992188 5.91523437 27.12109375 6.38671875 C36.27459454 12.70246126 41.20901212 21.28928582 44 32 C44.9301016 40.16032537 44.3724801 47.49586678 41 55 C40.73316406 55.66257813 40.46632813 56.32515625 40.19140625 57.0078125 C35.9347817 66.65616149 28.33738706 74.03382225 18.61328125 77.96484375 C6.33895176 81.94620324 -7.24403866 81.26051203 -19 76 C-21.92524338 74.26521119 -24.65486748 72.47974738 -27 70 C-27 69.34 -27 68.68 -27 68 C-27.66 68 -28.32 68 -29 68 C-33.68129692 62.71887116 -35.90005259 56.98158872 -37.45703125 50.1875 C-37.79115944 48.03686163 -37.79115944 48.03686163 -39 47 C-40.22448048 32.66272853 -38.20626202 23.09389164 -28.9375 11.6875 C-20.86886537 3.29340784 -11.72945591 -1.48087319 0 0 Z " fill="#FBFBFB" transform="translate(343,0)"/>
<path d="M0 0 C0.45213335 26.00810162 0.47988314 57.6816288 -17.4375 78.75 C-23.27696128 84.67914584 -29.91770489 88.07107009 -38.3125 88.25 C-44.18855071 88.16316181 -48.32633841 86.48347278 -52.75 82.5625 C-60.23699006 74.03565021 -61.7429801 65.28357997 -61.34765625 54.1015625 C-60.42985229 40.13383632 -54.06552169 27.60343187 -44 18 C-32.20935186 8.22032416 -15.68294326 -0.26858354 0 0 Z M-47.60546875 23.55078125 C-55.99409133 32.71373822 -60.15367171 46.42003022 -60.125 58.5625 C-60.12757812 59.65691406 -60.13015625 60.75132812 -60.1328125 61.87890625 C-60.01250685 64.70608913 -59.64499972 67.2510726 -59 70 C-58.34 70 -57.68 70 -57 70 C-56.9690625 71.2375 -56.9690625 71.2375 -56.9375 72.5 C-55.44713844 78.06401651 -51.96138256 82.10324671 -47.109375 85.2109375 C-41.00953899 87.91371037 -34.76201731 87.4322713 -28.609375 85.08984375 C-17.18726703 79.35936441 -11.02338587 68.04755104 -6.91015625 56.390625 C-5.27837312 50.3117076 -4.48190165 44.09334794 -3.61328125 37.8671875 C-3 34 -3 34 -2 33 C-0.13074277 22.56908311 -0.90447822 11.55295283 -1 1 C-18.29939778 1 -35.63796722 11.99093184 -47.60546875 23.55078125 Z " fill="#F8F8F8" transform="translate(1208,204)"/>
<path d="M0 0 C1 3 1 3 -0.625 6.37109375 C-1.40635933 7.73253021 -2.1987553 9.08767091 -3 10.4375 C-3.41354736 11.15325195 -3.82709473 11.86900391 -4.25317383 12.60644531 C-5.49128276 14.74419421 -6.74280962 16.87342706 -8 19 C-12.07711891 25.90413924 -15.98880252 32.7753615 -19.4453125 40.015625 C-20.62772957 42.28539043 -21.84342749 44.37734979 -23.21484375 46.52734375 C-26.88111118 52.307187 -30.13110561 58.32248818 -33.4375 64.3125 C-34.08639854 65.48382924 -34.73548613 66.65505376 -35.38476562 67.82617188 C-38.85372106 74.09142235 -42.30089422 80.36810037 -45.72143555 86.65991211 C-46.92589067 88.86436167 -48.14634532 91.05896764 -49.375 93.25 C-51.69272833 97.42342585 -53.98067912 101.61259293 -56.25 105.8125 C-56.78052979 106.78268066 -56.78052979 106.78268066 -57.32177734 107.77246094 C-58.96514618 110.82955755 -60.25249848 113.61640208 -61 117 C-60.43916497 116.99907821 -59.87832994 116.99815641 -59.30049992 116.99720669 C-45.67243907 116.97515027 -32.04438134 116.95865163 -18.4163065 116.94818783 C-11.82595215 116.94295828 -5.23561063 116.93585933 1.35473633 116.92456055 C7.70892018 116.91373422 14.06309165 116.90772371 20.41728401 116.90512276 C22.84749611 116.90326805 25.27770749 116.89964657 27.70791435 116.89426994 C31.09882981 116.88706289 34.48969341 116.88600892 37.88061523 116.88647461 C38.89625046 116.88287933 39.91188568 116.87928406 40.95829773 116.87557983 C41.87681519 116.8769545 42.79533264 116.87832916 43.74168396 116.87974548 C44.54456565 116.87882369 45.34744734 116.8779019 46.17465878 116.87695217 C48 117 48 117 49 118 C49.04063832 119.66617115 49.042721 121.33388095 49 123 C48.34 123 47.68 123 47 123 C47 121.35 47 119.7 47 118 C10.37 118 -26.26 118 -64 118 C-62.6209498 113.86284941 -61.38318975 110.5394908 -59.41796875 106.75390625 C-58.90508301 105.76406738 -58.39219727 104.77422852 -57.86376953 103.75439453 C-57.31060059 102.70106934 -56.75743164 101.64774414 -56.1875 100.5625 C-55.31907471 98.90130127 -55.31907471 98.90130127 -54.43310547 97.20654297 C-49.59543055 88.01168751 -44.53073745 78.95896641 -39.37890625 69.9375 C-35.7205513 63.52920462 -32.13894514 57.07927229 -28.5625 50.625 C-23.55470369 41.59685105 -18.53878347 32.57339858 -13.5 23.5625 C-12.94900635 22.57523926 -12.3980127 21.58797852 -11.83032227 20.57080078 C-7.96622857 13.66682849 -4.00620928 6.82241824 0 0 Z " fill="#FBFBFB" transform="translate(563,200)"/>
<path d="M0 0 C1.32 1.32 2.64 2.64 4 4 C3.45730469 4.59167969 2.91460938 5.18335938 2.35546875 5.79296875 C1.64003906 6.58316406 0.92460938 7.37335938 0.1875 8.1875 C-0.52019531 8.96480469 -1.22789063 9.74210938 -1.95703125 10.54296875 C-5.11199706 14.33737314 -7.15937645 17.96498702 -8.5625 22.6875 C-9.43026121 25.60455041 -9.80715898 26.80715898 -12 29 C-14.5625 29.1875 -14.5625 29.1875 -17 29 C-18 28 -18 28 -18.0625 24.9375 C-18.041875 23.968125 -18.02125 22.99875 -18 22 C-17.01 21.67 -16.02 21.34 -15 21 C-13.62905902 19.0501711 -13.62905902 19.0501711 -12.375 16.625 C-8.89021178 10.53542058 -4.55015116 5.31862113 0 0 Z " fill="#303030" transform="translate(1112,128)"/>
<path d="M0 0 C3.23500568 0.57743112 4.68936861 1.45703077 6.9375 3.8125 C14.46288085 10.45725117 24.78783465 11.66695629 34.48828125 11.40625 C39.3456341 10.84433154 43.7584673 9.507474 48.35546875 7.875 C51 7 51 7 54 7 C45.92286277 13.61361924 35.00177001 13.8830173 24.97363281 13.21142578 C16.49431828 12.30307764 7.96649258 9.30898006 2 3 C2 2.34 2 1.68 2 1 C1.34 0.67 0.68 0.34 0 0 Z " fill="#F7F7F7" transform="translate(314,67)"/>
<path d="M0 0 C8.49951754 -0.64717139 14.02235618 0.0326439 21 5 C21.73476563 5.50402344 22.46953125 6.00804687 23.2265625 6.52734375 C26.75310206 9.04721656 29.59803312 11.3381057 32 15 C32 15.66 32 16.32 32 17 C31.34 17 30.68 17 30 17 C28.7734375 15.64453125 28.7734375 15.64453125 27.375 13.8125 C20.39686965 5.4488813 10.57793449 2.12531218 0 1 C0 0.67 0 0.34 0 0 Z " fill="#FCFCFC" transform="translate(347,0)"/>
<path d="M0 0 C0.33 0 0.66 0 1 0 C1.43088073 4.44708645 1.85800371 8.89451346 2.28173828 13.34228516 C2.42622832 14.85345053 2.57172176 16.36452032 2.71826172 17.87548828 C2.92943757 20.05476559 3.13693159 22.23436786 3.34375 24.4140625 C3.46943359 25.7232666 3.59511719 27.0324707 3.72460938 28.38134766 C3.97011491 31.60730777 4.05250047 34.76684608 4 38 C3.34 37.67 2.68 37.34 2 37 C1.60522461 34.42382812 1.60522461 34.42382812 1.40234375 31.03125 C1.32306641 29.82082031 1.24378906 28.61039063 1.16210938 27.36328125 C1.08798828 26.08839844 1.01386719 24.81351563 0.9375 23.5 C0.78391549 20.98933748 0.62657339 18.478901 0.46484375 15.96875 C0.399021 14.84919922 0.33319824 13.72964844 0.26538086 12.57617188 C0.28105868 10.0707499 0.28105868 10.0707499 -1 9 C-1.1328125 7.1875 -1.1328125 7.1875 -1.125 5 C-1.12757813 4.278125 -1.13015625 3.55625 -1.1328125 2.8125 C-1 1 -1 1 0 0 Z " fill="#F3F3F3" transform="translate(785,156)"/>
<path d="M0 0 C3.67135373 2.68685664 3.92795324 6.4110355 4.625 10.625 C5.05594053 15.18336739 5.05594053 15.18336739 7 19 C7.04092937 21.33297433 7.04241723 23.66705225 7 26 C6.34 26.33 5.68 26.66 5 27 C4.70996094 25.26363281 4.70996094 25.26363281 4.4140625 23.4921875 C4.15128853 21.95308283 3.88825388 20.41402266 3.625 18.875 C3.49867188 18.11445313 3.37234375 17.35390625 3.2421875 16.5703125 C2.65331571 13.1548561 1.99760019 9.99280056 0.8984375 6.6953125 C0 4 0 4 0 0 Z " fill="#F5F5F5" transform="translate(859,175)"/>
<path d="M0 0 C3.30939598 1.43089183 5.35447453 3.19427735 7.8125 5.8125 C11.29802032 9.40265132 14.84195364 12.2279691 19 15 C18.01 15.495 18.01 15.495 17 16 C14.77620524 14.27522672 12.55418208 12.54831645 10.3359375 10.81640625 C8.54752648 9.42575219 6.74543497 8.05267539 4.9375 6.6875 C4.298125 6.130625 3.65875 5.57375 3 5 C3 4.34 3 3.68 3 3 C2.01 2.67 1.02 2.34 0 2 C0 1.34 0 0.68 0 0 Z " fill="#EFEFEF" transform="translate(668,286)"/>
<path d="M0 0 C3.23500568 0.57743112 4.68936861 1.45703077 6.9375 3.8125 C11.75979494 8.2012114 17.8150717 9.41889051 24 11 C24 11.33 24 11.66 24 12 C15.26000022 11.59537038 8.46807921 9.06382426 2 3 C2 2.34 2 1.68 2 1 C1.34 0.67 0.68 0.34 0 0 Z " fill="#EAEAEA" transform="translate(314,67)"/>
<path d="M0 0 C3.96 0 7.92 0 12 0 C12.66 1.32 13.32 2.64 14 4 C9.38 3.01 4.76 2.02 0 1 C0 0.67 0 0.34 0 0 Z " fill="#EEEEEE" transform="translate(347,0)"/>
<path d="M0 0 C1.0326802 2.78823655 1.04509293 3.8677274 0.0625 6.75 C-0.288125 7.4925 -0.63875 8.235 -1 9 C-1.33 9 -1.66 9 -2 9 C-2.33 6.69 -2.66 4.38 -3 2 C-2.01 1.34 -1.02 0.68 0 0 Z " fill="#F2F2F2" transform="translate(979,161)"/>
</svg>
